<?xml version="1.0" encoding="UTF-8" standalone="no"?>
<!DOCTYPE svg PUBLIC "-//W3C//DTD SVG 1.1//EN"
 "http://www.w3.org/Graphics/SVG/1.1/DTD/svg11.dtd">
<!-- Generated by graphviz version 2.43.0 (0)
 -->
<!-- Title: Graph Pages: 1 -->
<svg width="146pt" height="260pt"
 viewBox="0.00 0.00 145.92 260.00" xmlns="http://www.w3.org/2000/svg" xmlns:xlink="http://www.w3.org/1999/xlink">
<g id="graph0" class="graph" transform="scale(1 1) rotate(0) translate(4 256)">
<title>Graph</title>
<polygon fill="white" stroke="transparent" points="-4,4 -4,-256 141.92,-256 141.92,4 -4,4"/>
<!-- Print#3 -->
<g id="node1" class="node">
<title>Print#3</title>
<ellipse fill="none" stroke="black" cx="57.93" cy="-18" rx="36.3" ry="18"/>
<text text-anchor="middle" x="57.93" y="-13.8" font-family="Times,serif" font-size="14.00">Print#3</text>
</g>
<!-- Add#2 -->
<g id="node2" class="node">
<title>Add#2</title>
<ellipse fill="none" stroke="black" cx="57.93" cy="-90" rx="34.36" ry="18"/>
<text text-anchor="middle" x="57.93" y="-85.8" font-family="Times,serif" font-size="14.00">Add#2</text>
</g>
<!-- Add#2&#45;&gt;Print#3 -->
<g id="edge4" class="edge">
<title>Add#2&#45;&gt;Print#3</title>
<path fill="none" stroke="black" d="M57.93,-71.7C57.93,-63.98 57.93,-54.71 57.93,-46.11"/>
<polygon fill="black" stroke="black" points="61.43,-46.1 57.93,-36.1 54.43,-46.1 61.43,-46.1"/>
</g>
<!-- Timer[foo]#0 -->
<g id="node3" class="node">
<title>Timer[foo]#0</title>
<ellipse fill="none" stroke="black" cx="57.93" cy="-234" rx="57.86" ry="18"/>
<text text-anchor="middle" x="57.93" y="-229.8" font-family="Times,serif" font-size="14.00">Timer[foo]#0</text>
</g>
<!-- Timer[foo]#0&#45;&gt;Add#2 -->
<g id="edge1" class="edge">
<title>Timer[foo]#0&#45;&gt;Add#2</title>
<path fill="none" stroke="black" d="M50.86,-215.67C47.09,-205.47 42.84,-192.22 40.93,-180 38.46,-164.19 38.46,-159.81 40.93,-144 42.31,-135.18 44.91,-125.82 47.67,-117.46"/>
<polygon fill="black" stroke="black" points="51.03,-118.45 51.04,-107.86 44.42,-116.13 51.03,-118.45"/>
</g>
<!-- Negate#1 -->
<g id="node4" class="node">
<title>Negate#1</title>
<ellipse fill="none" stroke="black" cx="93.93" cy="-162" rx="43.98" ry="18"/>
<text text-anchor="middle" x="93.93" y="-157.8" font-family="Times,serif" font-size="14.00">Negate#1</text>
</g>
<!-- Timer[foo]#0&#45;&gt;Negate#1 -->
<g id="edge2" class="edge">
<title>Timer[foo]#0&#45;&gt;Negate#1</title>
<path fill="none" stroke="black" d="M66.64,-216.05C70.85,-207.89 75.98,-197.91 80.65,-188.82"/>
<polygon fill="black" stroke="black" points="83.83,-190.28 85.3,-179.79 77.61,-187.08 83.83,-190.28"/>
</g>
<!-- Negate#1&#45;&gt;Add#2 -->
<g id="edge3" class="edge">
<title>Negate#1&#45;&gt;Add#2</title>
<path fill="none" stroke="black" d="M85.22,-144.05C81.01,-135.89 75.88,-125.91 71.21,-116.82"/>
<polygon fill="black" stroke="black" points="74.25,-115.08 66.56,-107.79 68.03,-118.28 74.25,-115.08"/>
</g>
</g>
</svg>
