<?xml version="1.0" encoding="UTF-8" standalone="no"?>
<!DOCTYPE svg PUBLIC "-//W3C//DTD SVG 1.1//EN"
 "http://www.w3.org/Graphics/SVG/1.1/DTD/svg11.dtd">
<!-- Generated by graphviz version 2.43.0 (0)
 -->
<!-- Title: Graph Pages: 1 -->
<svg width="320pt" height="404pt"
 viewBox="0.00 0.00 319.92 404.00" xmlns="http://www.w3.org/2000/svg" xmlns:xlink="http://www.w3.org/1999/xlink">
<g id="graph0" class="graph" transform="scale(1 1) rotate(0) translate(4 400)">
<title>Graph</title>
<polygon fill="white" stroke="transparent" points="-4,4 -4,-400 315.92,-400 315.92,4 -4,4"/>
<!-- Print#13 -->
<g id="node1" class="node">
<title>Print#13</title>
<ellipse fill="none" stroke="black" cx="221.86" cy="-18" rx="40.64" ry="18"/>
<text text-anchor="middle" x="221.86" y="-13.8" font-family="Times,serif" font-size="14.00">Print#13</text>
</g>
<!-- Add#12 -->
<g id="node2" class="node">
<title>Add#12</title>
<ellipse fill="none" stroke="black" cx="221.86" cy="-90" rx="38.7" ry="18"/>
<text text-anchor="middle" x="221.86" y="-85.8" font-family="Times,serif" font-size="14.00">Add#12</text>
</g>
<!-- Add#12&#45;&gt;Print#13 -->
<g id="edge10" class="edge">
<title>Add#12&#45;&gt;Print#13</title>
<path fill="none" stroke="black" d="M221.86,-71.7C221.86,-63.98 221.86,-54.71 221.86,-46.11"/>
<polygon fill="black" stroke="black" points="225.36,-46.1 221.86,-36.1 218.36,-46.1 225.36,-46.1"/>
</g>
<!-- Add#11 -->
<g id="node3" class="node">
<title>Add#11</title>
<ellipse fill="none" stroke="black" cx="173.86" cy="-162" rx="38.06" ry="18"/>
<text text-anchor="middle" x="173.86" y="-157.8" font-family="Times,serif" font-size="14.00">Add#11</text>
</g>
<!-- Add#11&#45;&gt;Add#12 -->
<g id="edge8" class="edge">
<title>Add#11&#45;&gt;Add#12</title>
<path fill="none" stroke="black" d="M185,-144.76C190.85,-136.23 198.15,-125.58 204.71,-116.02"/>
<polygon fill="black" stroke="black" points="207.69,-117.86 210.46,-107.63 201.92,-113.9 207.69,-117.86"/>
</g>
<!-- Sub#10 -->
<g id="node4" class="node">
<title>Sub#10</title>
<ellipse fill="none" stroke="black" cx="124.86" cy="-234" rx="37.27" ry="18"/>
<text text-anchor="middle" x="124.86" y="-229.8" font-family="Times,serif" font-size="14.00">Sub#10</text>
</g>
<!-- Sub#10&#45;&gt;Add#11 -->
<g id="edge5" class="edge">
<title>Sub#10&#45;&gt;Add#11</title>
<path fill="none" stroke="black" d="M136.23,-216.76C142.2,-208.23 149.66,-197.58 156.35,-188.02"/>
<polygon fill="black" stroke="black" points="159.35,-189.83 162.22,-179.63 153.62,-185.82 159.35,-189.83"/>
</g>
<!-- Add#9 -->
<g id="node5" class="node">
<title>Add#9</title>
<ellipse fill="none" stroke="black" cx="61.86" cy="-306" rx="34.36" ry="18"/>
<text text-anchor="middle" x="61.86" y="-301.8" font-family="Times,serif" font-size="14.00">Add#9</text>
</g>
<!-- Add#9&#45;&gt;Sub#10 -->
<g id="edge3" class="edge">
<title>Add#9&#45;&gt;Sub#10</title>
<path fill="none" stroke="black" d="M75.85,-289.46C84.05,-280.35 94.58,-268.65 103.77,-258.43"/>
<polygon fill="black" stroke="black" points="106.4,-260.75 110.48,-250.98 101.19,-256.07 106.4,-260.75"/>
</g>
<!-- Timer[foo]#4 -->
<g id="node6" class="node">
<title>Timer[foo]#4</title>
<ellipse fill="none" stroke="black" cx="211.86" cy="-378" rx="57.86" ry="18"/>
<text text-anchor="middle" x="211.86" y="-373.8" font-family="Times,serif" font-size="14.00">Timer[foo]#4</text>
</g>
<!-- Timer[foo]#4&#45;&gt;Add#9 -->
<g id="edge1" class="edge">
<title>Timer[foo]#4&#45;&gt;Add#9</title>
<path fill="none" stroke="black" d="M181.15,-362.67C156.37,-351.1 121.55,-334.85 95.92,-322.89"/>
<polygon fill="black" stroke="black" points="97.13,-319.6 86.59,-318.54 94.17,-325.94 97.13,-319.6"/>
</g>
<!-- Negate#8 -->
<g id="node9" class="node">
<title>Negate#8</title>
<ellipse fill="none" stroke="black" cx="223.86" cy="-234" rx="43.98" ry="18"/>
<text text-anchor="middle" x="223.86" y="-229.8" font-family="Times,serif" font-size="14.00">Negate#8</text>
</g>
<!-- Timer[foo]#4&#45;&gt;Negate#8 -->
<g id="edge6" class="edge">
<title>Timer[foo]#4&#45;&gt;Negate#8</title>
<path fill="none" stroke="black" d="M213.31,-359.87C215.36,-335.67 219.11,-291.21 221.55,-262.39"/>
<polygon fill="black" stroke="black" points="225.06,-262.45 222.41,-252.19 218.08,-261.86 225.06,-262.45"/>
</g>
<!-- Timer[long]#5 -->
<g id="node7" class="node">
<title>Timer[long]#5</title>
<ellipse fill="none" stroke="black" cx="61.86" cy="-378" rx="61.73" ry="18"/>
<text text-anchor="middle" x="61.86" y="-373.8" font-family="Times,serif" font-size="14.00">Timer[long]#5</text>
</g>
<!-- Timer[long]#5&#45;&gt;Add#9 -->
<g id="edge2" class="edge">
<title>Timer[long]#5&#45;&gt;Add#9</title>
<path fill="none" stroke="black" d="M61.86,-359.7C61.86,-351.98 61.86,-342.71 61.86,-334.11"/>
<polygon fill="black" stroke="black" points="65.36,-334.1 61.86,-324.1 58.36,-334.1 65.36,-334.1"/>
</g>
<!-- Const[5] -->
<g id="node8" class="node">
<title>Const[5]</title>
<ellipse fill="none" stroke="black" cx="154.86" cy="-306" rx="41.12" ry="18"/>
<text text-anchor="middle" x="154.86" y="-301.8" font-family="Times,serif" font-size="14.00">Const[5]</text>
</g>
<!-- Const[5]&#45;&gt;Sub#10 -->
<g id="edge4" class="edge">
<title>Const[5]&#45;&gt;Sub#10</title>
<path fill="none" stroke="black" d="M147.6,-288.05C144.14,-279.97 139.92,-270.12 136.05,-261.11"/>
<polygon fill="black" stroke="black" points="139.22,-259.6 132.06,-251.79 132.78,-262.36 139.22,-259.6"/>
</g>
<!-- Negate#8&#45;&gt;Add#11 -->
<g id="edge7" class="edge">
<title>Negate#8&#45;&gt;Add#11</title>
<path fill="none" stroke="black" d="M212.01,-216.41C205.91,-207.87 198.35,-197.28 191.57,-187.79"/>
<polygon fill="black" stroke="black" points="194.29,-185.57 185.63,-179.47 188.59,-189.64 194.29,-185.57"/>
</g>
<!-- Const[1] -->
<g id="node10" class="node">
<title>Const[1]</title>
<ellipse fill="none" stroke="black" cx="270.86" cy="-162" rx="41.12" ry="18"/>
<text text-anchor="middle" x="270.86" y="-157.8" font-family="Times,serif" font-size="14.00">Const[1]</text>
</g>
<!-- Const[1]&#45;&gt;Add#12 -->
<g id="edge9" class="edge">
<title>Const[1]&#45;&gt;Add#12</title>
<path fill="none" stroke="black" d="M259.25,-144.41C253.27,-135.87 245.86,-125.28 239.21,-115.79"/>
<polygon fill="black" stroke="black" points="241.99,-113.66 233.39,-107.47 236.26,-117.67 241.99,-113.66"/>
</g>
</g>
</svg>
