<?xml version="1.0" encoding="UTF-8" standalone="no"?>
<!DOCTYPE svg PUBLIC "-//W3C//DTD SVG 1.1//EN"
 "http://www.w3.org/Graphics/SVG/1.1/DTD/svg11.dtd">
<!-- Generated by graphviz version 2.43.0 (0)
 -->
<!-- Title: Graph Pages: 1 -->
<svg width="1735pt" height="980pt"
 viewBox="0.00 0.00 1735.38 980.00" xmlns="http://www.w3.org/2000/svg" xmlns:xlink="http://www.w3.org/1999/xlink">
<g id="graph0" class="graph" transform="scale(1 1) rotate(0) translate(4 976)">
<title>Graph</title>
<polygon fill="white" stroke="transparent" points="-4,4 -4,-976 1731.38,-976 1731.38,4 -4,4"/>
<!-- Mult#261 -->
<g id="node1" class="node">
<title>Mult#261</title>
<ellipse fill="none" stroke="black" cx="700.99" cy="-18" rx="44.99" ry="18"/>
<text text-anchor="middle" x="700.99" y="-13.8" font-family="Times,serif" font-size="14.00">Mult#261</text>
</g>
<!-- Sub#256 -->
<g id="node2" class="node">
<title>Sub#256</title>
<ellipse fill="none" stroke="black" cx="649.99" cy="-90" rx="41.61" ry="18"/>
<text text-anchor="middle" x="649.99" y="-85.8" font-family="Times,serif" font-size="14.00">Sub#256</text>
</g>
<!-- Sub#256&#45;&gt;Mult#261 -->
<g id="edge70" class="edge">
<title>Sub#256&#45;&gt;Mult#261</title>
<path fill="none" stroke="black" d="M662.08,-72.41C668.3,-63.87 676.02,-53.28 682.93,-43.79"/>
<polygon fill="black" stroke="black" points="685.93,-45.61 688.99,-35.47 680.28,-41.49 685.93,-45.61"/>
</g>
<!-- Mult#227 -->
<g id="node3" class="node">
<title>Mult#227</title>
<ellipse fill="none" stroke="black" cx="457.99" cy="-162" rx="44.99" ry="18"/>
<text text-anchor="middle" x="457.99" y="-157.8" font-family="Times,serif" font-size="14.00">Mult#227</text>
</g>
<!-- Mult#227&#45;&gt;Sub#256 -->
<g id="edge30" class="edge">
<title>Mult#227&#45;&gt;Sub#256</title>
<path fill="none" stroke="black" d="M490.13,-149.28C523.01,-137.29 574.19,-118.63 609.75,-105.67"/>
<polygon fill="black" stroke="black" points="611.14,-108.89 619.34,-102.18 608.75,-102.31 611.14,-108.89"/>
</g>
<!-- Mult#207 -->
<g id="node4" class="node">
<title>Mult#207</title>
<ellipse fill="none" stroke="black" cx="44.99" cy="-594" rx="44.99" ry="18"/>
<text text-anchor="middle" x="44.99" y="-589.8" font-family="Times,serif" font-size="14.00">Mult#207</text>
</g>
<!-- Mult#207&#45;&gt;Mult#227 -->
<g id="edge3" class="edge">
<title>Mult#207&#45;&gt;Mult#227</title>
<path fill="none" stroke="black" d="M44.99,-575.95C44.99,-549.29 44.99,-496.11 44.99,-451 44.99,-451 44.99,-451 44.99,-305 44.99,-229.54 294.64,-185.58 405.75,-169.76"/>
<polygon fill="black" stroke="black" points="406.32,-173.21 415.74,-168.36 405.35,-166.28 406.32,-173.21"/>
</g>
<!-- Const[&#45;1] -->
<g id="node5" class="node">
<title>Const[&#45;1]</title>
<ellipse fill="none" stroke="black" cx="472.99" cy="-666" rx="44.01" ry="18"/>
<text text-anchor="middle" x="472.99" y="-661.8" font-family="Times,serif" font-size="14.00">Const[&#45;1]</text>
</g>
<!-- Const[&#45;1]&#45;&gt;Mult#207 -->
<g id="edge1" class="edge">
<title>Const[&#45;1]&#45;&gt;Mult#207</title>
<path fill="none" stroke="black" d="M440.72,-653.69C433.93,-651.58 426.77,-649.55 419.99,-648 307.14,-622.12 172.11,-606.77 98.81,-599.7"/>
<polygon fill="black" stroke="black" points="98.74,-596.18 88.45,-598.72 98.08,-603.15 98.74,-596.18"/>
</g>
<!-- Mult#209 -->
<g id="node12" class="node">
<title>Mult#209</title>
<ellipse fill="none" stroke="black" cx="301.99" cy="-594" rx="44.99" ry="18"/>
<text text-anchor="middle" x="301.99" y="-589.8" font-family="Times,serif" font-size="14.00">Mult#209</text>
</g>
<!-- Const[&#45;1]&#45;&gt;Mult#209 -->
<g id="edge4" class="edge">
<title>Const[&#45;1]&#45;&gt;Mult#209</title>
<path fill="none" stroke="black" d="M442.81,-652.65C414.78,-641.17 372.85,-624.01 342.03,-611.39"/>
<polygon fill="black" stroke="black" points="343.02,-608.01 332.44,-607.47 340.37,-614.49 343.02,-608.01"/>
</g>
<!-- Mult#228 -->
<g id="node29" class="node">
<title>Mult#228</title>
<ellipse fill="none" stroke="black" cx="703.99" cy="-594" rx="44.99" ry="18"/>
<text text-anchor="middle" x="703.99" y="-589.8" font-family="Times,serif" font-size="14.00">Mult#228</text>
</g>
<!-- Const[&#45;1]&#45;&gt;Mult#228 -->
<g id="edge31" class="edge">
<title>Const[&#45;1]&#45;&gt;Mult#228</title>
<path fill="none" stroke="black" d="M506.31,-654.16C512.83,-652.08 519.62,-649.95 525.99,-648 580.88,-631.23 595.06,-628.62 649.99,-612 653.34,-610.99 656.8,-609.93 660.28,-608.85"/>
<polygon fill="black" stroke="black" points="661.53,-612.13 670.04,-605.82 659.45,-605.45 661.53,-612.13"/>
</g>
<!-- Mult#230 -->
<g id="node34" class="node">
<title>Mult#230</title>
<ellipse fill="none" stroke="black" cx="595.99" cy="-594" rx="44.99" ry="18"/>
<text text-anchor="middle" x="595.99" y="-589.8" font-family="Times,serif" font-size="14.00">Mult#230</text>
</g>
<!-- Const[&#45;1]&#45;&gt;Mult#230 -->
<g id="edge34" class="edge">
<title>Const[&#45;1]&#45;&gt;Mult#230</title>
<path fill="none" stroke="black" d="M497.59,-651C516.15,-640.44 541.84,-625.82 562.31,-614.17"/>
<polygon fill="black" stroke="black" points="564.06,-617.2 571.02,-609.21 560.6,-611.12 564.06,-617.2"/>
</g>
<!-- Const[210.59] -->
<g id="node6" class="node">
<title>Const[210.59]</title>
<ellipse fill="none" stroke="black" cx="102.99" cy="-954" rx="60.91" ry="18"/>
<text text-anchor="middle" x="102.99" y="-949.8" font-family="Times,serif" font-size="14.00">Const[210.59]</text>
</g>
<!-- Const[210.59]&#45;&gt;Mult#207 -->
<g id="edge2" class="edge">
<title>Const[210.59]&#45;&gt;Mult#207</title>
<path fill="none" stroke="black" d="M89.29,-936.28C81.72,-926.28 72.72,-913.03 66.99,-900 50.64,-862.79 45.99,-851.64 45.99,-811 45.99,-811 45.99,-811 45.99,-737 45.99,-697 45.59,-650.65 45.3,-622.08"/>
<polygon fill="black" stroke="black" points="48.8,-622.01 45.19,-612.05 41.8,-622.09 48.8,-622.01"/>
</g>
<!-- Div#215 -->
<g id="node23" class="node">
<title>Div#215</title>
<ellipse fill="none" stroke="black" cx="116.99" cy="-882" rx="41.12" ry="18"/>
<text text-anchor="middle" x="116.99" y="-877.8" font-family="Times,serif" font-size="14.00">Div#215</text>
</g>
<!-- Const[210.59]&#45;&gt;Div#215 -->
<g id="edge14" class="edge">
<title>Const[210.59]&#45;&gt;Div#215</title>
<path fill="none" stroke="black" d="M106.45,-935.7C108,-927.98 109.85,-918.71 111.57,-910.11"/>
<polygon fill="black" stroke="black" points="115.04,-910.6 113.57,-900.1 108.18,-909.22 115.04,-910.6"/>
</g>
<!-- Div#240 -->
<g id="node48" class="node">
<title>Div#240</title>
<ellipse fill="none" stroke="black" cx="219.99" cy="-882" rx="41.12" ry="18"/>
<text text-anchor="middle" x="219.99" y="-877.8" font-family="Times,serif" font-size="14.00">Div#240</text>
</g>
<!-- Const[210.59]&#45;&gt;Div#240 -->
<g id="edge50" class="edge">
<title>Const[210.59]&#45;&gt;Div#240</title>
<path fill="none" stroke="black" d="M128.67,-937.64C146.13,-927.19 169.35,-913.3 188.01,-902.13"/>
<polygon fill="black" stroke="black" points="189.97,-905.04 196.76,-896.9 186.38,-899.03 189.97,-905.04"/>
</g>
<!-- Add#226 -->
<g id="node7" class="node">
<title>Add#226</title>
<ellipse fill="none" stroke="black" cx="457.99" cy="-234" rx="43.05" ry="18"/>
<text text-anchor="middle" x="457.99" y="-229.8" font-family="Times,serif" font-size="14.00">Add#226</text>
</g>
<!-- Add#226&#45;&gt;Mult#227 -->
<g id="edge29" class="edge">
<title>Add#226&#45;&gt;Mult#227</title>
<path fill="none" stroke="black" d="M457.99,-215.7C457.99,-207.98 457.99,-198.71 457.99,-190.11"/>
<polygon fill="black" stroke="black" points="461.49,-190.1 457.99,-180.1 454.49,-190.1 461.49,-190.1"/>
</g>
<!-- Mult#224 -->
<g id="node8" class="node">
<title>Mult#224</title>
<ellipse fill="none" stroke="black" cx="420.99" cy="-306" rx="44.99" ry="18"/>
<text text-anchor="middle" x="420.99" y="-301.8" font-family="Times,serif" font-size="14.00">Mult#224</text>
</g>
<!-- Mult#224&#45;&gt;Add#226 -->
<g id="edge27" class="edge">
<title>Mult#224&#45;&gt;Add#226</title>
<path fill="none" stroke="black" d="M429.95,-288.05C434.27,-279.89 439.54,-269.91 444.34,-260.82"/>
<polygon fill="black" stroke="black" points="447.54,-262.27 449.12,-251.79 441.35,-258.99 447.54,-262.27"/>
</g>
<!-- Erf#222 -->
<g id="node9" class="node">
<title>Erf#222</title>
<ellipse fill="none" stroke="black" cx="302.99" cy="-378" rx="39.17" ry="18"/>
<text text-anchor="middle" x="302.99" y="-373.8" font-family="Times,serif" font-size="14.00">Erf#222</text>
</g>
<!-- Erf#222&#45;&gt;Mult#224 -->
<g id="edge25" class="edge">
<title>Erf#222&#45;&gt;Mult#224</title>
<path fill="none" stroke="black" d="M326.02,-363.34C343.71,-352.85 368.36,-338.22 388.11,-326.51"/>
<polygon fill="black" stroke="black" points="389.99,-329.46 396.8,-321.35 386.42,-323.44 389.99,-329.46"/>
</g>
<!-- Div#221 -->
<g id="node10" class="node">
<title>Div#221</title>
<ellipse fill="none" stroke="black" cx="190.99" cy="-450" rx="41.12" ry="18"/>
<text text-anchor="middle" x="190.99" y="-445.8" font-family="Times,serif" font-size="14.00">Div#221</text>
</g>
<!-- Div#221&#45;&gt;Erf#222 -->
<g id="edge24" class="edge">
<title>Div#221&#45;&gt;Erf#222</title>
<path fill="none" stroke="black" d="M213.66,-434.83C230.47,-424.33 253.58,-409.89 272.08,-398.32"/>
<polygon fill="black" stroke="black" points="274.12,-401.17 280.74,-392.91 270.41,-395.24 274.12,-401.17"/>
</g>
<!-- Mult#218 -->
<g id="node11" class="node">
<title>Mult#218</title>
<ellipse fill="none" stroke="black" cx="117.99" cy="-522" rx="44.99" ry="18"/>
<text text-anchor="middle" x="117.99" y="-517.8" font-family="Times,serif" font-size="14.00">Mult#218</text>
</g>
<!-- Mult#218&#45;&gt;Div#221 -->
<g id="edge19" class="edge">
<title>Mult#218&#45;&gt;Div#221</title>
<path fill="none" stroke="black" d="M134.56,-505.12C144.24,-495.83 156.62,-483.96 167.32,-473.7"/>
<polygon fill="black" stroke="black" points="169.95,-476.03 174.74,-466.58 165.1,-470.98 169.95,-476.03"/>
</g>
<!-- Mult#209&#45;&gt;Mult#218 -->
<g id="edge6" class="edge">
<title>Mult#209&#45;&gt;Mult#218</title>
<path fill="none" stroke="black" d="M270.36,-580.97C239.59,-569.26 192.7,-551.42 159.06,-538.62"/>
<polygon fill="black" stroke="black" points="160.11,-535.28 149.52,-534.99 157.62,-541.82 160.11,-535.28"/>
</g>
<!-- Const[11.40175425099138] -->
<g id="node13" class="node">
<title>Const[11.40175425099138]</title>
<ellipse fill="none" stroke="black" cx="301.99" cy="-666" rx="109.04" ry="18"/>
<text text-anchor="middle" x="301.99" y="-661.8" font-family="Times,serif" font-size="14.00">Const[11.40175425099138]</text>
</g>
<!-- Const[11.40175425099138]&#45;&gt;Mult#209 -->
<g id="edge5" class="edge">
<title>Const[11.40175425099138]&#45;&gt;Mult#209</title>
<path fill="none" stroke="black" d="M301.99,-647.7C301.99,-639.98 301.99,-630.71 301.99,-622.11"/>
<polygon fill="black" stroke="black" points="305.49,-622.1 301.99,-612.1 298.49,-622.1 305.49,-622.1"/>
</g>
<!-- Add#217 -->
<g id="node14" class="node">
<title>Add#217</title>
<ellipse fill="none" stroke="black" cx="116.99" cy="-738" rx="43.05" ry="18"/>
<text text-anchor="middle" x="116.99" y="-733.8" font-family="Times,serif" font-size="14.00">Add#217</text>
</g>
<!-- Add#217&#45;&gt;Mult#218 -->
<g id="edge18" class="edge">
<title>Add#217&#45;&gt;Mult#218</title>
<path fill="none" stroke="black" d="M117.07,-719.85C117.25,-682.83 117.66,-595.18 117.86,-550.39"/>
<polygon fill="black" stroke="black" points="121.37,-550.25 117.91,-540.23 114.37,-550.22 121.37,-550.25"/>
</g>
<!-- Mult#214 -->
<g id="node15" class="node">
<title>Mult#214</title>
<ellipse fill="none" stroke="black" cx="362.99" cy="-810" rx="44.99" ry="18"/>
<text text-anchor="middle" x="362.99" y="-805.8" font-family="Times,serif" font-size="14.00">Mult#214</text>
</g>
<!-- Mult#214&#45;&gt;Add#217 -->
<g id="edge13" class="edge">
<title>Mult#214&#45;&gt;Add#217</title>
<path fill="none" stroke="black" d="M326.01,-799.48C286.86,-789.26 223.34,-772.3 168.99,-756 165.71,-755.02 162.32,-753.97 158.91,-752.9"/>
<polygon fill="black" stroke="black" points="159.96,-749.56 149.37,-749.86 157.83,-756.23 159.96,-749.56"/>
</g>
<!-- Mult#211 -->
<g id="node16" class="node">
<title>Mult#211</title>
<ellipse fill="none" stroke="black" cx="689.99" cy="-882" rx="44.84" ry="18"/>
<text text-anchor="middle" x="689.99" y="-877.8" font-family="Times,serif" font-size="14.00">Mult#211</text>
</g>
<!-- Mult#211&#45;&gt;Mult#214 -->
<g id="edge9" class="edge">
<title>Mult#211&#45;&gt;Mult#214</title>
<path fill="none" stroke="black" d="M648.97,-874.53C595.28,-865.71 498.42,-848.65 416.99,-828 413.45,-827.1 409.8,-826.11 406.14,-825.06"/>
<polygon fill="black" stroke="black" points="407.11,-821.7 396.53,-822.2 405.12,-828.41 407.11,-821.7"/>
</g>
<!-- Const[4] -->
<g id="node17" class="node">
<title>Const[4]</title>
<ellipse fill="none" stroke="black" cx="974.99" cy="-954" rx="41.12" ry="18"/>
<text text-anchor="middle" x="974.99" y="-949.8" font-family="Times,serif" font-size="14.00">Const[4]</text>
</g>
<!-- Const[4]&#45;&gt;Mult#211 -->
<g id="edge7" class="edge">
<title>Const[4]&#45;&gt;Mult#211</title>
<path fill="none" stroke="black" d="M938.36,-945.54C892.62,-936 812.09,-918.5 743.99,-900 740.47,-899.04 736.82,-898 733.17,-896.93"/>
<polygon fill="black" stroke="black" points="734.16,-893.57 723.57,-894.03 732.13,-900.27 734.16,-893.57"/>
</g>
<!-- Sqrt#219 -->
<g id="node26" class="node">
<title>Sqrt#219</title>
<ellipse fill="none" stroke="black" cx="903.99" cy="-882" rx="42.57" ry="18"/>
<text text-anchor="middle" x="903.99" y="-877.8" font-family="Times,serif" font-size="14.00">Sqrt#219</text>
</g>
<!-- Const[4]&#45;&gt;Sqrt#219 -->
<g id="edge20" class="edge">
<title>Const[4]&#45;&gt;Sqrt#219</title>
<path fill="none" stroke="black" d="M958.88,-937.12C949.53,-927.9 937.59,-916.13 927.24,-905.92"/>
<polygon fill="black" stroke="black" points="929.62,-903.35 920.04,-898.82 924.7,-908.33 929.62,-903.35"/>
</g>
<!-- Sqrt#231 -->
<g id="node39" class="node">
<title>Sqrt#231</title>
<ellipse fill="none" stroke="black" cx="1360.99" cy="-882" rx="42.57" ry="18"/>
<text text-anchor="middle" x="1360.99" y="-877.8" font-family="Times,serif" font-size="14.00">Sqrt#231</text>
</g>
<!-- Const[4]&#45;&gt;Sqrt#231 -->
<g id="edge37" class="edge">
<title>Const[4]&#45;&gt;Sqrt#231</title>
<path fill="none" stroke="black" d="M1014.61,-948.88C1077.72,-941.83 1204.74,-925.68 1309.99,-900 1313.21,-899.21 1316.52,-898.32 1319.83,-897.36"/>
<polygon fill="black" stroke="black" points="1321.14,-900.62 1329.67,-894.34 1319.08,-893.93 1321.14,-900.62"/>
</g>
<!-- Mult#236 -->
<g id="node45" class="node">
<title>Mult#236</title>
<ellipse fill="none" stroke="black" cx="797.99" cy="-882" rx="44.99" ry="18"/>
<text text-anchor="middle" x="797.99" y="-877.8" font-family="Times,serif" font-size="14.00">Mult#236</text>
</g>
<!-- Const[4]&#45;&gt;Mult#236 -->
<g id="edge43" class="edge">
<title>Const[4]&#45;&gt;Mult#236</title>
<path fill="none" stroke="black" d="M945.37,-941.28C916.11,-929.71 871.15,-911.93 838.58,-899.05"/>
<polygon fill="black" stroke="black" points="839.49,-895.65 828.91,-895.23 836.92,-902.16 839.49,-895.65"/>
</g>
<!-- Sqrt#245 -->
<g id="node51" class="node">
<title>Sqrt#245</title>
<ellipse fill="none" stroke="black" cx="1006.99" cy="-882" rx="42.57" ry="18"/>
<text text-anchor="middle" x="1006.99" y="-877.8" font-family="Times,serif" font-size="14.00">Sqrt#245</text>
</g>
<!-- Const[4]&#45;&gt;Sqrt#245 -->
<g id="edge57" class="edge">
<title>Const[4]&#45;&gt;Sqrt#245</title>
<path fill="none" stroke="black" d="M982.74,-936.05C986.43,-927.97 990.94,-918.12 995.06,-909.11"/>
<polygon fill="black" stroke="black" points="998.34,-910.34 999.32,-899.79 991.98,-907.43 998.34,-910.34"/>
</g>
<!-- Mult#258 -->
<g id="node54" class="node">
<title>Mult#258</title>
<ellipse fill="none" stroke="black" cx="1605.99" cy="-882" rx="44.99" ry="18"/>
<text text-anchor="middle" x="1605.99" y="-877.8" font-family="Times,serif" font-size="14.00">Mult#258</text>
</g>
<!-- Const[4]&#45;&gt;Mult#258 -->
<g id="edge71" class="edge">
<title>Const[4]&#45;&gt;Mult#258</title>
<path fill="none" stroke="black" d="M1016,-952.23C1111.11,-949.79 1353.76,-939.83 1551.99,-900 1555.84,-899.23 1559.8,-898.28 1563.74,-897.24"/>
<polygon fill="black" stroke="black" points="1564.79,-900.58 1573.44,-894.47 1562.87,-893.85 1564.79,-900.58"/>
</g>
<!-- Const[0.00192307692307692] -->
<g id="node18" class="node">
<title>Const[0.00192307692307692]</title>
<ellipse fill="none" stroke="black" cx="765.99" cy="-954" rx="118.38" ry="18"/>
<text text-anchor="middle" x="765.99" y="-949.8" font-family="Times,serif" font-size="14.00">Const[0.00192307692307692]</text>
</g>
<!-- Const[0.00192307692307692]&#45;&gt;Mult#211 -->
<g id="edge8" class="edge">
<title>Const[0.00192307692307692]&#45;&gt;Mult#211</title>
<path fill="none" stroke="black" d="M747.6,-936.05C737.7,-926.94 725.36,-915.57 714.64,-905.7"/>
<polygon fill="black" stroke="black" points="716.91,-903.03 707.18,-898.83 712.16,-908.18 716.91,-903.03"/>
</g>
<!-- Const[0.00192307692307692]&#45;&gt;Mult#236 -->
<g id="edge44" class="edge">
<title>Const[0.00192307692307692]&#45;&gt;Mult#236</title>
<path fill="none" stroke="black" d="M773.9,-935.7C777.55,-927.73 781.95,-918.1 785.99,-909.26"/>
<polygon fill="black" stroke="black" points="789.2,-910.65 790.17,-900.1 782.83,-907.74 789.2,-910.65"/>
</g>
<!-- Pow#213 -->
<g id="node19" class="node">
<title>Pow#213</title>
<ellipse fill="none" stroke="black" cx="363.99" cy="-882" rx="43.54" ry="18"/>
<text text-anchor="middle" x="363.99" y="-877.8" font-family="Times,serif" font-size="14.00">Pow#213</text>
</g>
<!-- Pow#213&#45;&gt;Mult#214 -->
<g id="edge12" class="edge">
<title>Pow#213&#45;&gt;Mult#214</title>
<path fill="none" stroke="black" d="M363.75,-863.7C363.64,-855.98 363.5,-846.71 363.38,-838.11"/>
<polygon fill="black" stroke="black" points="366.88,-838.05 363.24,-828.1 359.88,-838.15 366.88,-838.05"/>
</g>
<!-- Const[14.04] -->
<g id="node20" class="node">
<title>Const[14.04]</title>
<ellipse fill="none" stroke="black" cx="540.99" cy="-954" rx="56.57" ry="18"/>
<text text-anchor="middle" x="540.99" y="-949.8" font-family="Times,serif" font-size="14.00">Const[14.04]</text>
</g>
<!-- Const[14.04]&#45;&gt;Pow#213 -->
<g id="edge10" class="edge">
<title>Const[14.04]&#45;&gt;Pow#213</title>
<path fill="none" stroke="black" d="M506.87,-939.5C477.5,-927.89 435.08,-911.11 404.1,-898.86"/>
<polygon fill="black" stroke="black" points="405.06,-895.48 394.47,-895.05 402.48,-901.99 405.06,-895.48"/>
</g>
<!-- Mult#220 -->
<g id="node25" class="node">
<title>Mult#220</title>
<ellipse fill="none" stroke="black" cx="578.99" cy="-810" rx="44.99" ry="18"/>
<text text-anchor="middle" x="578.99" y="-805.8" font-family="Times,serif" font-size="14.00">Mult#220</text>
</g>
<!-- Const[14.04]&#45;&gt;Mult#220 -->
<g id="edge22" class="edge">
<title>Const[14.04]&#45;&gt;Mult#220</title>
<path fill="none" stroke="black" d="M545.58,-935.87C552.08,-911.56 564.06,-866.82 571.76,-838.01"/>
<polygon fill="black" stroke="black" points="575.19,-838.75 574.39,-828.19 568.43,-836.94 575.19,-838.75"/>
</g>
<!-- Mult#234 -->
<g id="node37" class="node">
<title>Mult#234</title>
<ellipse fill="none" stroke="black" cx="1009.99" cy="-738" rx="44.99" ry="18"/>
<text text-anchor="middle" x="1009.99" y="-733.8" font-family="Times,serif" font-size="14.00">Mult#234</text>
</g>
<!-- Const[14.04]&#45;&gt;Mult#234 -->
<g id="edge41" class="edge">
<title>Const[14.04]&#45;&gt;Mult#234</title>
<path fill="none" stroke="black" d="M549.05,-935.99C560.23,-913.03 580.48,-873.85 592.99,-864 651.08,-818.3 863.8,-769.47 960.98,-748.97"/>
<polygon fill="black" stroke="black" points="961.78,-752.37 970.85,-746.9 960.34,-745.52 961.78,-752.37"/>
</g>
<!-- Pow#238 -->
<g id="node46" class="node">
<title>Pow#238</title>
<ellipse fill="none" stroke="black" cx="468.99" cy="-882" rx="43.54" ry="18"/>
<text text-anchor="middle" x="468.99" y="-877.8" font-family="Times,serif" font-size="14.00">Pow#238</text>
</g>
<!-- Const[14.04]&#45;&gt;Pow#238 -->
<g id="edge46" class="edge">
<title>Const[14.04]&#45;&gt;Pow#238</title>
<path fill="none" stroke="black" d="M524.29,-936.76C514.93,-927.66 503.1,-916.16 492.79,-906.13"/>
<polygon fill="black" stroke="black" points="495.21,-903.61 485.6,-899.15 490.33,-908.63 495.21,-903.61"/>
</g>
<!-- Mult#246 -->
<g id="node50" class="node">
<title>Mult#246</title>
<ellipse fill="none" stroke="black" cx="936.99" cy="-810" rx="44.99" ry="18"/>
<text text-anchor="middle" x="936.99" y="-805.8" font-family="Times,serif" font-size="14.00">Mult#246</text>
</g>
<!-- Const[14.04]&#45;&gt;Mult#246 -->
<g id="edge59" class="edge">
<title>Const[14.04]&#45;&gt;Mult#246</title>
<path fill="none" stroke="black" d="M557.51,-936.54C582.17,-912.12 626.74,-868.62 635.99,-864 715.23,-824.39 819.14,-813.9 881.84,-811.4"/>
<polygon fill="black" stroke="black" points="882.04,-814.89 891.91,-811.05 881.8,-807.9 882.04,-814.89"/>
</g>
<!-- Const[2] -->
<g id="node21" class="node">
<title>Const[2]</title>
<ellipse fill="none" stroke="black" cx="394.99" cy="-954" rx="41.12" ry="18"/>
<text text-anchor="middle" x="394.99" y="-949.8" font-family="Times,serif" font-size="14.00">Const[2]</text>
</g>
<!-- Const[2]&#45;&gt;Pow#213 -->
<g id="edge11" class="edge">
<title>Const[2]&#45;&gt;Pow#213</title>
<path fill="none" stroke="black" d="M387.49,-936.05C383.91,-927.97 379.55,-918.12 375.56,-909.11"/>
<polygon fill="black" stroke="black" points="378.68,-907.52 371.43,-899.79 372.28,-910.35 378.68,-907.52"/>
</g>
<!-- Const[2]&#45;&gt;Pow#238 -->
<g id="edge47" class="edge">
<title>Const[2]&#45;&gt;Pow#238</title>
<path fill="none" stroke="black" d="M411.42,-937.46C421.31,-928.11 434.08,-916.02 445.08,-905.62"/>
<polygon fill="black" stroke="black" points="447.5,-908.15 452.36,-898.73 442.69,-903.06 447.5,-908.15"/>
</g>
<!-- Log#216 -->
<g id="node22" class="node">
<title>Log#216</title>
<ellipse fill="none" stroke="black" cx="116.99" cy="-810" rx="42.08" ry="18"/>
<text text-anchor="middle" x="116.99" y="-805.8" font-family="Times,serif" font-size="14.00">Log#216</text>
</g>
<!-- Log#216&#45;&gt;Add#217 -->
<g id="edge17" class="edge">
<title>Log#216&#45;&gt;Add#217</title>
<path fill="none" stroke="black" d="M116.99,-791.7C116.99,-783.98 116.99,-774.71 116.99,-766.11"/>
<polygon fill="black" stroke="black" points="120.49,-766.1 116.99,-756.1 113.49,-766.1 120.49,-766.1"/>
</g>
<!-- Div#215&#45;&gt;Log#216 -->
<g id="edge16" class="edge">
<title>Div#215&#45;&gt;Log#216</title>
<path fill="none" stroke="black" d="M116.99,-863.7C116.99,-855.98 116.99,-846.71 116.99,-838.11"/>
<polygon fill="black" stroke="black" points="120.49,-838.1 116.99,-828.1 113.49,-838.1 120.49,-838.1"/>
</g>
<!-- Foo[strikes] -->
<g id="node24" class="node">
<title>Foo[strikes]</title>
<ellipse fill="none" stroke="black" cx="234.99" cy="-954" rx="52.7" ry="18"/>
<text text-anchor="middle" x="234.99" y="-949.8" font-family="Times,serif" font-size="14.00">Foo[strikes]</text>
</g>
<!-- Foo[strikes]&#45;&gt;Div#215 -->
<g id="edge15" class="edge">
<title>Foo[strikes]&#45;&gt;Div#215</title>
<path fill="none" stroke="black" d="M209.68,-937.98C192.02,-927.51 168.32,-913.45 149.3,-902.16"/>
<polygon fill="black" stroke="black" points="151.04,-899.13 140.66,-897.04 147.47,-905.15 151.04,-899.13"/>
</g>
<!-- Foo[strikes]&#45;&gt;Mult#228 -->
<g id="edge32" class="edge">
<title>Foo[strikes]&#45;&gt;Mult#228</title>
<path fill="none" stroke="black" d="M247.41,-936.43C254.64,-926.28 263.56,-912.81 269.99,-900 292.88,-854.39 268.17,-822.62 308.99,-792 410.7,-715.7 792.96,-848.69 879.99,-756 912.85,-721.01 908.63,-686.52 879.99,-648 864.96,-627.78 801.51,-612.34 755.09,-603.47"/>
<polygon fill="black" stroke="black" points="755.64,-600.02 745.17,-601.63 754.36,-606.9 755.64,-600.02"/>
</g>
<!-- Foo[strikes]&#45;&gt;Div#240 -->
<g id="edge51" class="edge">
<title>Foo[strikes]&#45;&gt;Div#240</title>
<path fill="none" stroke="black" d="M231.28,-935.7C229.63,-927.98 227.65,-918.71 225.8,-910.11"/>
<polygon fill="black" stroke="black" points="229.18,-909.15 223.66,-900.1 222.33,-910.62 229.18,-909.15"/>
</g>
<!-- Mult#220&#45;&gt;Div#221 -->
<g id="edge23" class="edge">
<title>Mult#220&#45;&gt;Div#221</title>
<path fill="none" stroke="black" d="M544.66,-798.17C448.66,-767.89 184.34,-684.47 183.99,-684 160.57,-652.01 177.1,-532.5 186.15,-478.18"/>
<polygon fill="black" stroke="black" points="189.61,-478.67 187.84,-468.23 182.71,-477.5 189.61,-478.67"/>
</g>
<!-- Sqrt#219&#45;&gt;Mult#220 -->
<g id="edge21" class="edge">
<title>Sqrt#219&#45;&gt;Mult#220</title>
<path fill="none" stroke="black" d="M872.28,-869.94C865.62,-867.81 858.61,-865.72 851.99,-864 775.66,-844.2 685.6,-828.09 630.4,-819.02"/>
<polygon fill="black" stroke="black" points="630.95,-815.56 620.51,-817.41 629.82,-822.47 630.95,-815.56"/>
</g>
<!-- Const[0.5] -->
<g id="node27" class="node">
<title>Const[0.5]</title>
<ellipse fill="none" stroke="black" cx="496.99" cy="-378" rx="47.88" ry="18"/>
<text text-anchor="middle" x="496.99" y="-373.8" font-family="Times,serif" font-size="14.00">Const[0.5]</text>
</g>
<!-- Const[0.5]&#45;&gt;Add#226 -->
<g id="edge28" class="edge">
<title>Const[0.5]&#45;&gt;Add#226</title>
<path fill="none" stroke="black" d="M493.12,-359.85C488.97,-341.86 482.03,-312.81 474.99,-288 472.56,-279.41 469.66,-270.11 466.96,-261.74"/>
<polygon fill="black" stroke="black" points="470.24,-260.51 463.8,-252.1 463.59,-262.69 470.24,-260.51"/>
</g>
<!-- Const[0.5]&#45;&gt;Mult#224 -->
<g id="edge26" class="edge">
<title>Const[0.5]&#45;&gt;Mult#224</title>
<path fill="none" stroke="black" d="M479.75,-361.12C469.64,-351.81 456.71,-339.9 445.55,-329.62"/>
<polygon fill="black" stroke="black" points="447.9,-327.02 438.17,-322.82 443.15,-332.17 447.9,-327.02"/>
</g>
<!-- Add#254 -->
<g id="node30" class="node">
<title>Add#254</title>
<ellipse fill="none" stroke="black" cx="604.99" cy="-234" rx="43.05" ry="18"/>
<text text-anchor="middle" x="604.99" y="-229.8" font-family="Times,serif" font-size="14.00">Add#254</text>
</g>
<!-- Const[0.5]&#45;&gt;Add#254 -->
<g id="edge67" class="edge">
<title>Const[0.5]&#45;&gt;Add#254</title>
<path fill="none" stroke="black" d="M505.59,-360.12C515.39,-341.59 532.47,-311.37 550.99,-288 559.55,-277.19 570.17,-266.34 579.72,-257.3"/>
<polygon fill="black" stroke="black" points="582.13,-259.83 587.09,-250.46 577.38,-254.7 582.13,-259.83"/>
</g>
<!-- Mult#252 -->
<g id="node31" class="node">
<title>Mult#252</title>
<ellipse fill="none" stroke="black" cx="604.99" cy="-306" rx="44.99" ry="18"/>
<text text-anchor="middle" x="604.99" y="-301.8" font-family="Times,serif" font-size="14.00">Mult#252</text>
</g>
<!-- Const[0.5]&#45;&gt;Mult#252 -->
<g id="edge65" class="edge">
<title>Const[0.5]&#45;&gt;Mult#252</title>
<path fill="none" stroke="black" d="M519.9,-362.15C535.5,-352.04 556.37,-338.52 573.53,-327.39"/>
<polygon fill="black" stroke="black" points="575.63,-330.2 582.12,-321.82 571.83,-324.33 575.63,-330.2"/>
</g>
<!-- Mult#255 -->
<g id="node28" class="node">
<title>Mult#255</title>
<ellipse fill="none" stroke="black" cx="649.99" cy="-162" rx="44.99" ry="18"/>
<text text-anchor="middle" x="649.99" y="-157.8" font-family="Times,serif" font-size="14.00">Mult#255</text>
</g>
<!-- Mult#255&#45;&gt;Sub#256 -->
<g id="edge69" class="edge">
<title>Mult#255&#45;&gt;Sub#256</title>
<path fill="none" stroke="black" d="M649.99,-143.7C649.99,-135.98 649.99,-126.71 649.99,-118.11"/>
<polygon fill="black" stroke="black" points="653.49,-118.1 649.99,-108.1 646.49,-118.1 653.49,-118.1"/>
</g>
<!-- Mult#228&#45;&gt;Mult#255 -->
<g id="edge33" class="edge">
<title>Mult#228&#45;&gt;Mult#255</title>
<path fill="none" stroke="black" d="M702.21,-575.97C699.59,-549.34 694.99,-496.21 694.99,-451 694.99,-451 694.99,-451 694.99,-305 694.99,-262.9 676.79,-216.91 663.54,-189.02"/>
<polygon fill="black" stroke="black" points="666.64,-187.38 659.1,-179.94 660.35,-190.46 666.64,-187.38"/>
</g>
<!-- Add#254&#45;&gt;Mult#255 -->
<g id="edge68" class="edge">
<title>Add#254&#45;&gt;Mult#255</title>
<path fill="none" stroke="black" d="M615.66,-216.41C621.01,-208.08 627.62,-197.8 633.61,-188.49"/>
<polygon fill="black" stroke="black" points="636.63,-190.26 639.09,-179.96 630.74,-186.48 636.63,-190.26"/>
</g>
<!-- Mult#252&#45;&gt;Add#254 -->
<g id="edge66" class="edge">
<title>Mult#252&#45;&gt;Add#254</title>
<path fill="none" stroke="black" d="M604.99,-287.7C604.99,-279.98 604.99,-270.71 604.99,-262.11"/>
<polygon fill="black" stroke="black" points="608.49,-262.1 604.99,-252.1 601.49,-262.1 608.49,-262.1"/>
</g>
<!-- Erf#250 -->
<g id="node32" class="node">
<title>Erf#250</title>
<ellipse fill="none" stroke="black" cx="604.99" cy="-378" rx="39.17" ry="18"/>
<text text-anchor="middle" x="604.99" y="-373.8" font-family="Times,serif" font-size="14.00">Erf#250</text>
</g>
<!-- Erf#250&#45;&gt;Mult#252 -->
<g id="edge64" class="edge">
<title>Erf#250&#45;&gt;Mult#252</title>
<path fill="none" stroke="black" d="M604.99,-359.7C604.99,-351.98 604.99,-342.71 604.99,-334.11"/>
<polygon fill="black" stroke="black" points="608.49,-334.1 604.99,-324.1 601.49,-334.1 608.49,-334.1"/>
</g>
<!-- Mult#249 -->
<g id="node33" class="node">
<title>Mult#249</title>
<ellipse fill="none" stroke="black" cx="604.99" cy="-450" rx="44.99" ry="18"/>
<text text-anchor="middle" x="604.99" y="-445.8" font-family="Times,serif" font-size="14.00">Mult#249</text>
</g>
<!-- Mult#249&#45;&gt;Erf#250 -->
<g id="edge63" class="edge">
<title>Mult#249&#45;&gt;Erf#250</title>
<path fill="none" stroke="black" d="M604.99,-431.7C604.99,-423.98 604.99,-414.71 604.99,-406.11"/>
<polygon fill="black" stroke="black" points="608.49,-406.1 604.99,-396.1 601.49,-406.1 608.49,-406.1"/>
</g>
<!-- Mult#230&#45;&gt;Mult#249 -->
<g id="edge36" class="edge">
<title>Mult#230&#45;&gt;Mult#249</title>
<path fill="none" stroke="black" d="M597.08,-575.87C598.61,-551.67 601.43,-507.21 603.26,-478.39"/>
<polygon fill="black" stroke="black" points="606.76,-478.39 603.9,-468.19 599.78,-477.95 606.76,-478.39"/>
</g>
<!-- Const[0.7071067811865476] -->
<g id="node35" class="node">
<title>Const[0.7071067811865476]</title>
<ellipse fill="none" stroke="black" cx="648.99" cy="-666" rx="113.89" ry="18"/>
<text text-anchor="middle" x="648.99" y="-661.8" font-family="Times,serif" font-size="14.00">Const[0.7071067811865476]</text>
</g>
<!-- Const[0.7071067811865476]&#45;&gt;Mult#230 -->
<g id="edge35" class="edge">
<title>Const[0.7071067811865476]&#45;&gt;Mult#230</title>
<path fill="none" stroke="black" d="M636.16,-648.05C629.78,-639.63 621.95,-629.28 614.9,-619.97"/>
<polygon fill="black" stroke="black" points="617.53,-617.65 608.7,-611.79 611.95,-621.87 617.53,-617.65"/>
</g>
<!-- Add#248 -->
<g id="node36" class="node">
<title>Add#248</title>
<ellipse fill="none" stroke="black" cx="877.99" cy="-522" rx="43.05" ry="18"/>
<text text-anchor="middle" x="877.99" y="-517.8" font-family="Times,serif" font-size="14.00">Add#248</text>
</g>
<!-- Add#248&#45;&gt;Mult#249 -->
<g id="edge62" class="edge">
<title>Add#248&#45;&gt;Mult#249</title>
<path fill="none" stroke="black" d="M842.3,-511.85C793.56,-499.35 706.06,-476.91 652.01,-463.06"/>
<polygon fill="black" stroke="black" points="652.56,-459.58 642,-460.49 650.82,-466.36 652.56,-459.58"/>
</g>
<!-- Mult#234&#45;&gt;Add#248 -->
<g id="edge42" class="edge">
<title>Mult#234&#45;&gt;Add#248</title>
<path fill="none" stroke="black" d="M1003.3,-720.13C990.86,-689.81 962.31,-624.72 927.99,-576 920.48,-565.34 910.91,-554.66 902.15,-545.72"/>
<polygon fill="black" stroke="black" points="904.61,-543.23 895.05,-538.65 899.67,-548.19 904.61,-543.23"/>
</g>
<!-- Mult#233 -->
<g id="node38" class="node">
<title>Mult#233</title>
<ellipse fill="none" stroke="black" cx="1183.99" cy="-810" rx="44.99" ry="18"/>
<text text-anchor="middle" x="1183.99" y="-805.8" font-family="Times,serif" font-size="14.00">Mult#233</text>
</g>
<!-- Mult#233&#45;&gt;Mult#234 -->
<g id="edge40" class="edge">
<title>Mult#233&#45;&gt;Mult#234</title>
<path fill="none" stroke="black" d="M1153.29,-796.65C1124.55,-785.09 1081.46,-767.75 1050.03,-755.11"/>
<polygon fill="black" stroke="black" points="1051.27,-751.83 1040.69,-751.35 1048.66,-758.33 1051.27,-751.83"/>
</g>
<!-- Sqrt#231&#45;&gt;Mult#233 -->
<g id="edge38" class="edge">
<title>Sqrt#231&#45;&gt;Mult#233</title>
<path fill="none" stroke="black" d="M1330.97,-869.13C1301.65,-857.53 1256.83,-839.81 1224.4,-826.98"/>
<polygon fill="black" stroke="black" points="1225.35,-823.59 1214.76,-823.17 1222.77,-830.1 1225.35,-823.59"/>
</g>
<!-- Const[&#45;0.0620173672946042] -->
<g id="node40" class="node">
<title>Const[&#45;0.0620173672946042]</title>
<ellipse fill="none" stroke="black" cx="1183.99" cy="-882" rx="116.92" ry="18"/>
<text text-anchor="middle" x="1183.99" y="-877.8" font-family="Times,serif" font-size="14.00">Const[&#45;0.0620173672946042]</text>
</g>
<!-- Const[&#45;0.0620173672946042]&#45;&gt;Mult#233 -->
<g id="edge39" class="edge">
<title>Const[&#45;0.0620173672946042]&#45;&gt;Mult#233</title>
<path fill="none" stroke="black" d="M1183.99,-863.7C1183.99,-855.98 1183.99,-846.71 1183.99,-838.11"/>
<polygon fill="black" stroke="black" points="1187.49,-838.1 1183.99,-828.1 1180.49,-838.1 1187.49,-838.1"/>
</g>
<!-- Div#247 -->
<g id="node41" class="node">
<title>Div#247</title>
<ellipse fill="none" stroke="black" cx="877.99" cy="-594" rx="41.12" ry="18"/>
<text text-anchor="middle" x="877.99" y="-589.8" font-family="Times,serif" font-size="14.00">Div#247</text>
</g>
<!-- Div#247&#45;&gt;Add#248 -->
<g id="edge61" class="edge">
<title>Div#247&#45;&gt;Add#248</title>
<path fill="none" stroke="black" d="M877.99,-575.7C877.99,-567.98 877.99,-558.71 877.99,-550.11"/>
<polygon fill="black" stroke="black" points="881.49,-550.1 877.99,-540.1 874.49,-550.1 881.49,-550.1"/>
</g>
<!-- Mult#244 -->
<g id="node42" class="node">
<title>Mult#244</title>
<ellipse fill="none" stroke="black" cx="825.99" cy="-666" rx="44.99" ry="18"/>
<text text-anchor="middle" x="825.99" y="-661.8" font-family="Times,serif" font-size="14.00">Mult#244</text>
</g>
<!-- Mult#244&#45;&gt;Div#247 -->
<g id="edge56" class="edge">
<title>Mult#244&#45;&gt;Div#247</title>
<path fill="none" stroke="black" d="M838.32,-648.41C844.66,-639.87 852.53,-629.28 859.58,-619.79"/>
<polygon fill="black" stroke="black" points="862.6,-621.58 865.76,-611.47 856.99,-617.41 862.6,-621.58"/>
</g>
<!-- Add#242 -->
<g id="node43" class="node">
<title>Add#242</title>
<ellipse fill="none" stroke="black" cx="220.99" cy="-738" rx="43.05" ry="18"/>
<text text-anchor="middle" x="220.99" y="-733.8" font-family="Times,serif" font-size="14.00">Add#242</text>
</g>
<!-- Add#242&#45;&gt;Mult#244 -->
<g id="edge54" class="edge">
<title>Add#242&#45;&gt;Mult#244</title>
<path fill="none" stroke="black" d="M263.96,-735.92C357.31,-732.9 585.29,-721.93 771.99,-684 775.84,-683.22 779.8,-682.27 783.74,-681.22"/>
<polygon fill="black" stroke="black" points="784.78,-684.56 793.44,-678.45 782.86,-677.83 784.78,-684.56"/>
</g>
<!-- Mult#239 -->
<g id="node44" class="node">
<title>Mult#239</title>
<ellipse fill="none" stroke="black" cx="470.99" cy="-810" rx="44.99" ry="18"/>
<text text-anchor="middle" x="470.99" y="-805.8" font-family="Times,serif" font-size="14.00">Mult#239</text>
</g>
<!-- Mult#239&#45;&gt;Add#242 -->
<g id="edge49" class="edge">
<title>Mult#239&#45;&gt;Add#242</title>
<path fill="none" stroke="black" d="M437.08,-798.03C430.44,-795.97 423.51,-793.87 416.99,-792 355.65,-774.41 339.47,-773.12 277.99,-756 273.62,-754.78 269.07,-753.48 264.53,-752.16"/>
<polygon fill="black" stroke="black" points="265.27,-748.73 254.69,-749.27 263.3,-755.45 265.27,-748.73"/>
</g>
<!-- Mult#236&#45;&gt;Mult#239 -->
<g id="edge45" class="edge">
<title>Mult#236&#45;&gt;Mult#239</title>
<path fill="none" stroke="black" d="M764.78,-869.73C757.96,-867.65 750.78,-865.62 743.99,-864 648.04,-841.13 620.95,-850.87 524.99,-828 521.39,-827.14 517.67,-826.17 513.96,-825.13"/>
<polygon fill="black" stroke="black" points="514.78,-821.72 504.2,-822.27 512.81,-828.44 514.78,-821.72"/>
</g>
<!-- Pow#238&#45;&gt;Mult#239 -->
<g id="edge48" class="edge">
<title>Pow#238&#45;&gt;Mult#239</title>
<path fill="none" stroke="black" d="M469.49,-863.7C469.71,-855.98 469.97,-846.71 470.22,-838.11"/>
<polygon fill="black" stroke="black" points="473.72,-838.2 470.5,-828.1 466.72,-838 473.72,-838.2"/>
</g>
<!-- Log#241 -->
<g id="node47" class="node">
<title>Log#241</title>
<ellipse fill="none" stroke="black" cx="219.99" cy="-810" rx="42.08" ry="18"/>
<text text-anchor="middle" x="219.99" y="-805.8" font-family="Times,serif" font-size="14.00">Log#241</text>
</g>
<!-- Log#241&#45;&gt;Add#242 -->
<g id="edge53" class="edge">
<title>Log#241&#45;&gt;Add#242</title>
<path fill="none" stroke="black" d="M220.24,-791.7C220.35,-783.98 220.48,-774.71 220.61,-766.11"/>
<polygon fill="black" stroke="black" points="224.11,-766.15 220.75,-756.1 217.11,-766.05 224.11,-766.15"/>
</g>
<!-- Div#240&#45;&gt;Log#241 -->
<g id="edge52" class="edge">
<title>Div#240&#45;&gt;Log#241</title>
<path fill="none" stroke="black" d="M219.99,-863.7C219.99,-855.98 219.99,-846.71 219.99,-838.11"/>
<polygon fill="black" stroke="black" points="223.49,-838.1 219.99,-828.1 216.49,-838.1 223.49,-838.1"/>
</g>
<!-- Const[16.1245154965971] -->
<g id="node49" class="node">
<title>Const[16.1245154965971]</title>
<ellipse fill="none" stroke="black" cx="765.99" cy="-738" rx="105.35" ry="18"/>
<text text-anchor="middle" x="765.99" y="-733.8" font-family="Times,serif" font-size="14.00">Const[16.1245154965971]</text>
</g>
<!-- Const[16.1245154965971]&#45;&gt;Mult#244 -->
<g id="edge55" class="edge">
<title>Const[16.1245154965971]&#45;&gt;Mult#244</title>
<path fill="none" stroke="black" d="M780.52,-720.05C788,-711.33 797.24,-700.54 805.44,-690.98"/>
<polygon fill="black" stroke="black" points="808.16,-693.18 812.02,-683.31 802.85,-688.62 808.16,-693.18"/>
</g>
<!-- Mult#246&#45;&gt;Div#247 -->
<g id="edge60" class="edge">
<title>Mult#246&#45;&gt;Div#247</title>
<path fill="none" stroke="black" d="M936.85,-791.94C936.07,-761.86 932.1,-697.88 912.99,-648 909.19,-638.06 903.28,-628.09 897.39,-619.52"/>
<polygon fill="black" stroke="black" points="900.05,-617.21 891.36,-611.15 894.37,-621.31 900.05,-617.21"/>
</g>
<!-- Sqrt#245&#45;&gt;Mult#246 -->
<g id="edge58" class="edge">
<title>Sqrt#245&#45;&gt;Mult#246</title>
<path fill="none" stroke="black" d="M991.11,-865.12C982.11,-856.12 970.68,-844.68 960.64,-834.65"/>
<polygon fill="black" stroke="black" points="962.85,-831.9 953.3,-827.31 957.9,-836.85 962.85,-831.9"/>
</g>
<!-- Exp#260 -->
<g id="node52" class="node">
<title>Exp#260</title>
<ellipse fill="none" stroke="black" cx="1062.99" cy="-90" rx="42.08" ry="18"/>
<text text-anchor="middle" x="1062.99" y="-85.8" font-family="Times,serif" font-size="14.00">Exp#260</text>
</g>
<!-- Exp#260&#45;&gt;Mult#261 -->
<g id="edge76" class="edge">
<title>Exp#260&#45;&gt;Mult#261</title>
<path fill="none" stroke="black" d="M1025.28,-81.71C959.47,-68.98 823.71,-42.73 750.45,-28.56"/>
<polygon fill="black" stroke="black" points="751.03,-25.11 740.54,-26.65 749.7,-31.98 751.03,-25.11"/>
</g>
<!-- Mult#259 -->
<g id="node53" class="node">
<title>Mult#259</title>
<ellipse fill="none" stroke="black" cx="1481.99" cy="-810" rx="44.99" ry="18"/>
<text text-anchor="middle" x="1481.99" y="-805.8" font-family="Times,serif" font-size="14.00">Mult#259</text>
</g>
<!-- Mult#259&#45;&gt;Exp#260 -->
<g id="edge75" class="edge">
<title>Mult#259&#45;&gt;Exp#260</title>
<path fill="none" stroke="black" d="M1444.2,-799.97C1387.25,-783.85 1285.99,-744.32 1285.99,-667 1285.99,-667 1285.99,-667 1285.99,-233 1285.99,-150.98 1177.34,-114.28 1111.72,-99.59"/>
<polygon fill="black" stroke="black" points="1112.09,-96.09 1101.58,-97.42 1110.63,-102.93 1112.09,-96.09"/>
</g>
<!-- Mult#258&#45;&gt;Mult#259 -->
<g id="edge73" class="edge">
<title>Mult#258&#45;&gt;Mult#259</title>
<path fill="none" stroke="black" d="M1580.9,-866.83C1562.16,-856.26 1536.35,-841.68 1515.79,-830.08"/>
<polygon fill="black" stroke="black" points="1517.48,-827.01 1507.05,-825.14 1514.04,-833.11 1517.48,-827.01"/>
</g>
<!-- Const[&#45;0.00384615384615385] -->
<g id="node55" class="node">
<title>Const[&#45;0.00384615384615385]</title>
<ellipse fill="none" stroke="black" cx="1605.99" cy="-954" rx="121.27" ry="18"/>
<text text-anchor="middle" x="1605.99" y="-949.8" font-family="Times,serif" font-size="14.00">Const[&#45;0.00384615384615385]</text>
</g>
<!-- Const[&#45;0.00384615384615385]&#45;&gt;Mult#258 -->
<g id="edge72" class="edge">
<title>Const[&#45;0.00384615384615385]&#45;&gt;Mult#258</title>
<path fill="none" stroke="black" d="M1605.99,-935.7C1605.99,-927.98 1605.99,-918.71 1605.99,-910.11"/>
<polygon fill="black" stroke="black" points="1609.49,-910.1 1605.99,-900.1 1602.49,-910.1 1609.49,-910.1"/>
</g>
<!-- Const[0.2175] -->
<g id="node56" class="node">
<title>Const[0.2175]</title>
<ellipse fill="none" stroke="black" cx="1481.99" cy="-882" rx="60.91" ry="18"/>
<text text-anchor="middle" x="1481.99" y="-877.8" font-family="Times,serif" font-size="14.00">Const[0.2175]</text>
</g>
<!-- Const[0.2175]&#45;&gt;Mult#259 -->
<g id="edge74" class="edge">
<title>Const[0.2175]&#45;&gt;Mult#259</title>
<path fill="none" stroke="black" d="M1481.99,-863.7C1481.99,-855.98 1481.99,-846.71 1481.99,-838.11"/>
<polygon fill="black" stroke="black" points="1485.49,-838.1 1481.99,-828.1 1478.49,-838.1 1485.49,-838.1"/>
</g>
</g>
</svg>
