<?xml version="1.0" encoding="UTF-8" standalone="no"?>
<!DOCTYPE svg PUBLIC "-//W3C//DTD SVG 1.1//EN"
 "http://www.w3.org/Graphics/SVG/1.1/DTD/svg11.dtd">
<!-- Generated by graphviz version 2.43.0 (0)
 -->
<!-- Title: Graph Pages: 1 -->
<svg width="196pt" height="260pt"
 viewBox="0.00 0.00 195.58 260.00" xmlns="http://www.w3.org/2000/svg" xmlns:xlink="http://www.w3.org/1999/xlink">
<g id="graph0" class="graph" transform="scale(1 1) rotate(0) translate(4 256)">
<title>Graph</title>
<polygon fill="white" stroke="transparent" points="-4,4 -4,-256 191.58,-256 191.58,4 -4,4"/>
<!-- Print#18 -->
<g id="node1" class="node">
<title>Print#18</title>
<ellipse fill="none" stroke="black" cx="90.59" cy="-18" rx="40.64" ry="18"/>
<text text-anchor="middle" x="90.59" y="-13.8" font-family="Times,serif" font-size="14.00">Print#18</text>
</g>
<!-- Div#17 -->
<g id="node2" class="node">
<title>Div#17</title>
<ellipse fill="none" stroke="black" cx="90.59" cy="-90" rx="36.77" ry="18"/>
<text text-anchor="middle" x="90.59" y="-85.8" font-family="Times,serif" font-size="14.00">Div#17</text>
</g>
<!-- Div#17&#45;&gt;Print#18 -->
<g id="edge5" class="edge">
<title>Div#17&#45;&gt;Print#18</title>
<path fill="none" stroke="black" d="M90.59,-71.7C90.59,-63.98 90.59,-54.71 90.59,-46.11"/>
<polygon fill="black" stroke="black" points="94.09,-46.1 90.59,-36.1 87.09,-46.1 94.09,-46.1"/>
</g>
<!-- Sum#15 -->
<g id="node3" class="node">
<title>Sum#15</title>
<ellipse fill="none" stroke="black" cx="39.59" cy="-162" rx="39.68" ry="18"/>
<text text-anchor="middle" x="39.59" y="-157.8" font-family="Times,serif" font-size="14.00">Sum#15</text>
</g>
<!-- Sum#15&#45;&gt;Div#17 -->
<g id="edge2" class="edge">
<title>Sum#15&#45;&gt;Div#17</title>
<path fill="none" stroke="black" d="M51.42,-144.76C57.79,-136.02 65.78,-125.05 72.88,-115.31"/>
<polygon fill="black" stroke="black" points="75.77,-117.29 78.83,-107.15 70.11,-113.17 75.77,-117.29"/>
</g>
<!-- Foo[stream] -->
<g id="node4" class="node">
<title>Foo[stream]</title>
<ellipse fill="none" stroke="black" cx="90.59" cy="-234" rx="53.16" ry="18"/>
<text text-anchor="middle" x="90.59" y="-229.8" font-family="Times,serif" font-size="14.00">Foo[stream]</text>
</g>
<!-- Foo[stream]&#45;&gt;Sum#15 -->
<g id="edge1" class="edge">
<title>Foo[stream]&#45;&gt;Sum#15</title>
<path fill="none" stroke="black" d="M78.5,-216.41C72.28,-207.87 64.57,-197.28 57.65,-187.79"/>
<polygon fill="black" stroke="black" points="60.31,-185.49 51.59,-179.47 54.65,-189.61 60.31,-185.49"/>
</g>
<!-- Count#16 -->
<g id="node5" class="node">
<title>Count#16</title>
<ellipse fill="none" stroke="black" cx="142.59" cy="-162" rx="44.99" ry="18"/>
<text text-anchor="middle" x="142.59" y="-157.8" font-family="Times,serif" font-size="14.00">Count#16</text>
</g>
<!-- Foo[stream]&#45;&gt;Count#16 -->
<g id="edge3" class="edge">
<title>Foo[stream]&#45;&gt;Count#16</title>
<path fill="none" stroke="black" d="M102.91,-216.41C109.26,-207.87 117.13,-197.28 124.18,-187.79"/>
<polygon fill="black" stroke="black" points="127.2,-189.58 130.36,-179.47 121.58,-185.41 127.2,-189.58"/>
</g>
<!-- Count#16&#45;&gt;Div#17 -->
<g id="edge4" class="edge">
<title>Count#16&#45;&gt;Div#17</title>
<path fill="none" stroke="black" d="M130.27,-144.41C123.92,-135.87 116.05,-125.28 109,-115.79"/>
<polygon fill="black" stroke="black" points="111.6,-113.41 102.83,-107.47 105.98,-117.58 111.6,-113.41"/>
</g>
</g>
</svg>
