<?xml version="1.0" encoding="UTF-8" standalone="no"?>
<!DOCTYPE svg PUBLIC "-//W3C//DTD SVG 1.1//EN"
 "http://www.w3.org/Graphics/SVG/1.1/DTD/svg11.dtd">
<!-- Generated by graphviz version 2.43.0 (0)
 -->
<!-- Title: Graph Pages: 1 -->
<svg width="1649pt" height="980pt"
 viewBox="0.00 0.00 1648.96 980.00" xmlns="http://www.w3.org/2000/svg" xmlns:xlink="http://www.w3.org/1999/xlink">
<g id="graph0" class="graph" transform="scale(1 1) rotate(0) translate(4 976)">
<title>Graph</title>
<polygon fill="white" stroke="transparent" points="-4,4 -4,-976 1644.96,-976 1644.96,4 -4,4"/>
<!-- Mult#102 -->
<g id="node1" class="node">
<title>Mult#102</title>
<ellipse fill="none" stroke="black" cx="691.57" cy="-18" rx="44.99" ry="18"/>
<text text-anchor="middle" x="691.57" y="-13.8" font-family="Times,serif" font-size="14.00">Mult#102</text>
</g>
<!-- Sub#97 -->
<g id="node2" class="node">
<title>Sub#97</title>
<ellipse fill="none" stroke="black" cx="643.57" cy="-90" rx="37.27" ry="18"/>
<text text-anchor="middle" x="643.57" y="-85.8" font-family="Times,serif" font-size="14.00">Sub#97</text>
</g>
<!-- Sub#97&#45;&gt;Mult#102 -->
<g id="edge70" class="edge">
<title>Sub#97&#45;&gt;Mult#102</title>
<path fill="none" stroke="black" d="M654.7,-72.76C660.56,-64.23 667.86,-53.58 674.42,-44.02"/>
<polygon fill="black" stroke="black" points="677.4,-45.86 680.17,-35.63 671.62,-41.9 677.4,-45.86"/>
</g>
<!-- Mult#68 -->
<g id="node3" class="node">
<title>Mult#68</title>
<ellipse fill="none" stroke="black" cx="460.57" cy="-162" rx="40.64" ry="18"/>
<text text-anchor="middle" x="460.57" y="-157.8" font-family="Times,serif" font-size="14.00">Mult#68</text>
</g>
<!-- Mult#68&#45;&gt;Sub#97 -->
<g id="edge30" class="edge">
<title>Mult#68&#45;&gt;Sub#97</title>
<path fill="none" stroke="black" d="M490.38,-149.6C521.81,-137.57 571.43,-118.6 605.63,-105.51"/>
<polygon fill="black" stroke="black" points="607.19,-108.66 615.28,-101.82 604.69,-102.13 607.19,-108.66"/>
</g>
<!-- Mult#48 -->
<g id="node4" class="node">
<title>Mult#48</title>
<ellipse fill="none" stroke="black" cx="40.57" cy="-594" rx="40.64" ry="18"/>
<text text-anchor="middle" x="40.57" y="-589.8" font-family="Times,serif" font-size="14.00">Mult#48</text>
</g>
<!-- Mult#48&#45;&gt;Mult#68 -->
<g id="edge3" class="edge">
<title>Mult#48&#45;&gt;Mult#68</title>
<path fill="none" stroke="black" d="M40.57,-575.95C40.57,-549.29 40.57,-496.11 40.57,-451 40.57,-451 40.57,-451 40.57,-305 40.57,-227.45 300.78,-184.01 411.57,-169.02"/>
<polygon fill="black" stroke="black" points="412.36,-172.45 421.81,-167.66 411.44,-165.51 412.36,-172.45"/>
</g>
<!-- Const[&#45;1] -->
<g id="node5" class="node">
<title>Const[&#45;1]</title>
<ellipse fill="none" stroke="black" cx="467.57" cy="-666" rx="44.01" ry="18"/>
<text text-anchor="middle" x="467.57" y="-661.8" font-family="Times,serif" font-size="14.00">Const[&#45;1]</text>
</g>
<!-- Const[&#45;1]&#45;&gt;Mult#48 -->
<g id="edge1" class="edge">
<title>Const[&#45;1]&#45;&gt;Mult#48</title>
<path fill="none" stroke="black" d="M435.3,-653.69C428.51,-651.58 421.35,-649.56 414.57,-648 299.89,-621.68 162.24,-606.22 90.16,-599.32"/>
<polygon fill="black" stroke="black" points="90.29,-595.82 80.01,-598.37 89.64,-602.79 90.29,-595.82"/>
</g>
<!-- Mult#50 -->
<g id="node12" class="node">
<title>Mult#50</title>
<ellipse fill="none" stroke="black" cx="296.57" cy="-594" rx="40.64" ry="18"/>
<text text-anchor="middle" x="296.57" y="-589.8" font-family="Times,serif" font-size="14.00">Mult#50</text>
</g>
<!-- Const[&#45;1]&#45;&gt;Mult#50 -->
<g id="edge4" class="edge">
<title>Const[&#45;1]&#45;&gt;Mult#50</title>
<path fill="none" stroke="black" d="M437.39,-652.65C408.84,-640.96 365.87,-623.37 334.91,-610.69"/>
<polygon fill="black" stroke="black" points="335.89,-607.31 325.31,-606.76 333.24,-613.79 335.89,-607.31"/>
</g>
<!-- Mult#69 -->
<g id="node29" class="node">
<title>Mult#69</title>
<ellipse fill="none" stroke="black" cx="692.57" cy="-594" rx="40.64" ry="18"/>
<text text-anchor="middle" x="692.57" y="-589.8" font-family="Times,serif" font-size="14.00">Mult#69</text>
</g>
<!-- Const[&#45;1]&#45;&gt;Mult#69 -->
<g id="edge31" class="edge">
<title>Const[&#45;1]&#45;&gt;Mult#69</title>
<path fill="none" stroke="black" d="M500.89,-654.17C507.41,-652.09 514.2,-649.95 520.57,-648 575.03,-631.3 589.31,-629.34 643.57,-612 646.35,-611.11 649.2,-610.18 652.07,-609.22"/>
<polygon fill="black" stroke="black" points="653.45,-612.45 661.8,-605.93 651.21,-605.82 653.45,-612.45"/>
</g>
<!-- Mult#71 -->
<g id="node34" class="node">
<title>Mult#71</title>
<ellipse fill="none" stroke="black" cx="593.57" cy="-594" rx="40.64" ry="18"/>
<text text-anchor="middle" x="593.57" y="-589.8" font-family="Times,serif" font-size="14.00">Mult#71</text>
</g>
<!-- Const[&#45;1]&#45;&gt;Mult#71 -->
<g id="edge34" class="edge">
<title>Const[&#45;1]&#45;&gt;Mult#71</title>
<path fill="none" stroke="black" d="M492.77,-651C512.16,-640.23 539.14,-625.24 560.3,-613.48"/>
<polygon fill="black" stroke="black" points="562.23,-616.41 569.28,-608.5 558.83,-610.29 562.23,-616.41"/>
</g>
<!-- Const[210.59] -->
<g id="node6" class="node">
<title>Const[210.59]</title>
<ellipse fill="none" stroke="black" cx="89.57" cy="-954" rx="60.91" ry="18"/>
<text text-anchor="middle" x="89.57" y="-949.8" font-family="Times,serif" font-size="14.00">Const[210.59]</text>
</g>
<!-- Const[210.59]&#45;&gt;Mult#48 -->
<g id="edge2" class="edge">
<title>Const[210.59]&#45;&gt;Mult#48</title>
<path fill="none" stroke="black" d="M79.86,-936.14C65.83,-910.15 41.57,-858.36 41.57,-811 41.57,-811 41.57,-811 41.57,-737 41.57,-697 41.17,-650.65 40.88,-622.08"/>
<polygon fill="black" stroke="black" points="44.37,-622.01 40.77,-612.05 37.37,-622.09 44.37,-622.01"/>
</g>
<!-- Div#56 -->
<g id="node23" class="node">
<title>Div#56</title>
<ellipse fill="none" stroke="black" cx="108.57" cy="-882" rx="36.77" ry="18"/>
<text text-anchor="middle" x="108.57" y="-877.8" font-family="Times,serif" font-size="14.00">Div#56</text>
</g>
<!-- Const[210.59]&#45;&gt;Div#56 -->
<g id="edge14" class="edge">
<title>Const[210.59]&#45;&gt;Div#56</title>
<path fill="none" stroke="black" d="M94.27,-935.7C96.38,-927.9 98.93,-918.51 101.29,-909.83"/>
<polygon fill="black" stroke="black" points="104.69,-910.67 103.93,-900.1 97.93,-908.84 104.69,-910.67"/>
</g>
<!-- Div#81 -->
<g id="node48" class="node">
<title>Div#81</title>
<ellipse fill="none" stroke="black" cx="202.57" cy="-882" rx="36.77" ry="18"/>
<text text-anchor="middle" x="202.57" y="-877.8" font-family="Times,serif" font-size="14.00">Div#81</text>
</g>
<!-- Const[210.59]&#45;&gt;Div#81 -->
<g id="edge50" class="edge">
<title>Const[210.59]&#45;&gt;Div#81</title>
<path fill="none" stroke="black" d="M114.65,-937.46C131.48,-927.04 153.77,-913.23 171.69,-902.13"/>
<polygon fill="black" stroke="black" points="173.96,-904.84 180.62,-896.6 170.27,-898.89 173.96,-904.84"/>
</g>
<!-- Add#67 -->
<g id="node7" class="node">
<title>Add#67</title>
<ellipse fill="none" stroke="black" cx="460.57" cy="-234" rx="38.7" ry="18"/>
<text text-anchor="middle" x="460.57" y="-229.8" font-family="Times,serif" font-size="14.00">Add#67</text>
</g>
<!-- Add#67&#45;&gt;Mult#68 -->
<g id="edge29" class="edge">
<title>Add#67&#45;&gt;Mult#68</title>
<path fill="none" stroke="black" d="M460.57,-215.7C460.57,-207.98 460.57,-198.71 460.57,-190.11"/>
<polygon fill="black" stroke="black" points="464.07,-190.1 460.57,-180.1 457.07,-190.1 464.07,-190.1"/>
</g>
<!-- Mult#65 -->
<g id="node8" class="node">
<title>Mult#65</title>
<ellipse fill="none" stroke="black" cx="425.57" cy="-306" rx="40.64" ry="18"/>
<text text-anchor="middle" x="425.57" y="-301.8" font-family="Times,serif" font-size="14.00">Mult#65</text>
</g>
<!-- Mult#65&#45;&gt;Add#67 -->
<g id="edge27" class="edge">
<title>Mult#65&#45;&gt;Add#67</title>
<path fill="none" stroke="black" d="M434.04,-288.05C438.13,-279.89 443.12,-269.91 447.66,-260.82"/>
<polygon fill="black" stroke="black" points="450.83,-262.3 452.18,-251.79 444.57,-259.17 450.83,-262.3"/>
</g>
<!-- Erf#63 -->
<g id="node9" class="node">
<title>Erf#63</title>
<ellipse fill="none" stroke="black" cx="300.57" cy="-378" rx="34.83" ry="18"/>
<text text-anchor="middle" x="300.57" y="-373.8" font-family="Times,serif" font-size="14.00">Erf#63</text>
</g>
<!-- Erf#63&#45;&gt;Mult#65 -->
<g id="edge25" class="edge">
<title>Erf#63&#45;&gt;Mult#65</title>
<path fill="none" stroke="black" d="M323.21,-364.32C342.54,-353.5 370.6,-337.78 392.45,-325.55"/>
<polygon fill="black" stroke="black" points="394.38,-328.48 401.4,-320.54 390.96,-322.37 394.38,-328.48"/>
</g>
<!-- Div#62 -->
<g id="node10" class="node">
<title>Div#62</title>
<ellipse fill="none" stroke="black" cx="178.57" cy="-450" rx="36.77" ry="18"/>
<text text-anchor="middle" x="178.57" y="-445.8" font-family="Times,serif" font-size="14.00">Div#62</text>
</g>
<!-- Div#62&#45;&gt;Erf#63 -->
<g id="edge24" class="edge">
<title>Div#62&#45;&gt;Erf#63</title>
<path fill="none" stroke="black" d="M201.52,-435.83C220.64,-424.86 248.06,-409.13 269.21,-396.99"/>
<polygon fill="black" stroke="black" points="271.21,-399.88 278.14,-391.87 267.72,-393.81 271.21,-399.88"/>
</g>
<!-- Mult#59 -->
<g id="node11" class="node">
<title>Mult#59</title>
<ellipse fill="none" stroke="black" cx="109.57" cy="-522" rx="40.64" ry="18"/>
<text text-anchor="middle" x="109.57" y="-517.8" font-family="Times,serif" font-size="14.00">Mult#59</text>
</g>
<!-- Mult#59&#45;&gt;Div#62 -->
<g id="edge19" class="edge">
<title>Mult#59&#45;&gt;Div#62</title>
<path fill="none" stroke="black" d="M125.23,-505.12C134.23,-495.99 145.69,-484.36 155.69,-474.22"/>
<polygon fill="black" stroke="black" points="158.45,-476.4 162.98,-466.82 153.46,-471.49 158.45,-476.4"/>
</g>
<!-- Mult#50&#45;&gt;Mult#59 -->
<g id="edge6" class="edge">
<title>Mult#50&#45;&gt;Mult#59</title>
<path fill="none" stroke="black" d="M266.53,-581.75C234.63,-569.81 184.08,-550.89 149,-537.76"/>
<polygon fill="black" stroke="black" points="150.13,-534.45 139.54,-534.22 147.68,-541 150.13,-534.45"/>
</g>
<!-- Const[11.40175425099138] -->
<g id="node13" class="node">
<title>Const[11.40175425099138]</title>
<ellipse fill="none" stroke="black" cx="296.57" cy="-666" rx="109.04" ry="18"/>
<text text-anchor="middle" x="296.57" y="-661.8" font-family="Times,serif" font-size="14.00">Const[11.40175425099138]</text>
</g>
<!-- Const[11.40175425099138]&#45;&gt;Mult#50 -->
<g id="edge5" class="edge">
<title>Const[11.40175425099138]&#45;&gt;Mult#50</title>
<path fill="none" stroke="black" d="M296.57,-647.7C296.57,-639.98 296.57,-630.71 296.57,-622.11"/>
<polygon fill="black" stroke="black" points="300.07,-622.1 296.57,-612.1 293.07,-622.1 300.07,-622.1"/>
</g>
<!-- Add#58 -->
<g id="node14" class="node">
<title>Add#58</title>
<ellipse fill="none" stroke="black" cx="108.57" cy="-738" rx="38.7" ry="18"/>
<text text-anchor="middle" x="108.57" y="-733.8" font-family="Times,serif" font-size="14.00">Add#58</text>
</g>
<!-- Add#58&#45;&gt;Mult#59 -->
<g id="edge18" class="edge">
<title>Add#58&#45;&gt;Mult#59</title>
<path fill="none" stroke="black" d="M108.65,-719.85C108.82,-682.83 109.23,-595.18 109.44,-550.39"/>
<polygon fill="black" stroke="black" points="112.94,-550.25 109.49,-540.23 105.94,-550.22 112.94,-550.25"/>
</g>
<!-- Mult#55 -->
<g id="node15" class="node">
<title>Mult#55</title>
<ellipse fill="none" stroke="black" cx="337.57" cy="-810" rx="40.64" ry="18"/>
<text text-anchor="middle" x="337.57" y="-805.8" font-family="Times,serif" font-size="14.00">Mult#55</text>
</g>
<!-- Mult#55&#45;&gt;Add#58 -->
<g id="edge13" class="edge">
<title>Mult#55&#45;&gt;Add#58</title>
<path fill="none" stroke="black" d="M303.83,-799.87C267.14,-789.78 206.88,-772.73 155.57,-756 152.86,-755.12 150.08,-754.18 147.28,-753.22"/>
<polygon fill="black" stroke="black" points="148.4,-749.9 137.81,-749.9 146.08,-756.51 148.4,-749.9"/>
</g>
<!-- Mult#52 -->
<g id="node16" class="node">
<title>Mult#52</title>
<ellipse fill="none" stroke="black" cx="646.57" cy="-882" rx="40.64" ry="18"/>
<text text-anchor="middle" x="646.57" y="-877.8" font-family="Times,serif" font-size="14.00">Mult#52</text>
</g>
<!-- Mult#52&#45;&gt;Mult#55 -->
<g id="edge9" class="edge">
<title>Mult#52&#45;&gt;Mult#55</title>
<path fill="none" stroke="black" d="M609.18,-874.99C558.33,-866.45 464.77,-849.43 386.57,-828 383.58,-827.18 380.52,-826.28 377.44,-825.32"/>
<polygon fill="black" stroke="black" points="378.29,-821.92 367.69,-822.15 376.12,-828.57 378.29,-821.92"/>
</g>
<!-- Const[4] -->
<g id="node17" class="node">
<title>Const[4]</title>
<ellipse fill="none" stroke="black" cx="916.57" cy="-954" rx="41.12" ry="18"/>
<text text-anchor="middle" x="916.57" y="-949.8" font-family="Times,serif" font-size="14.00">Const[4]</text>
</g>
<!-- Const[4]&#45;&gt;Mult#52 -->
<g id="edge7" class="edge">
<title>Const[4]&#45;&gt;Mult#52</title>
<path fill="none" stroke="black" d="M881.68,-944.5C870.47,-941.77 858,-938.75 846.57,-936 779.49,-919.86 761.8,-919.33 695.57,-900 692.64,-899.14 689.63,-898.22 686.6,-897.25"/>
<polygon fill="black" stroke="black" points="687.59,-893.89 677,-894.09 685.4,-900.54 687.59,-893.89"/>
</g>
<!-- Sqrt#60 -->
<g id="node26" class="node">
<title>Sqrt#60</title>
<ellipse fill="none" stroke="black" cx="842.57" cy="-882" rx="38.23" ry="18"/>
<text text-anchor="middle" x="842.57" y="-877.8" font-family="Times,serif" font-size="14.00">Sqrt#60</text>
</g>
<!-- Const[4]&#45;&gt;Sqrt#60 -->
<g id="edge20" class="edge">
<title>Const[4]&#45;&gt;Sqrt#60</title>
<path fill="none" stroke="black" d="M900.15,-937.46C890.18,-928.04 877.3,-915.85 866.25,-905.4"/>
<polygon fill="black" stroke="black" points="868.62,-902.82 858.95,-898.49 863.81,-907.91 868.62,-902.82"/>
</g>
<!-- Sqrt#72 -->
<g id="node39" class="node">
<title>Sqrt#72</title>
<ellipse fill="none" stroke="black" cx="1282.57" cy="-882" rx="38.23" ry="18"/>
<text text-anchor="middle" x="1282.57" y="-877.8" font-family="Times,serif" font-size="14.00">Sqrt#72</text>
</g>
<!-- Const[4]&#45;&gt;Sqrt#72 -->
<g id="edge37" class="edge">
<title>Const[4]&#45;&gt;Sqrt#72</title>
<path fill="none" stroke="black" d="M956.35,-948.76C1017.19,-941.74 1136.72,-925.86 1235.57,-900 1238.5,-899.23 1241.5,-898.36 1244.5,-897.43"/>
<polygon fill="black" stroke="black" points="1245.61,-900.74 1254,-894.27 1243.41,-894.1 1245.61,-900.74"/>
</g>
<!-- Mult#77 -->
<g id="node45" class="node">
<title>Mult#77</title>
<ellipse fill="none" stroke="black" cx="745.57" cy="-882" rx="40.64" ry="18"/>
<text text-anchor="middle" x="745.57" y="-877.8" font-family="Times,serif" font-size="14.00">Mult#77</text>
</g>
<!-- Const[4]&#45;&gt;Mult#77 -->
<g id="edge43" class="edge">
<title>Const[4]&#45;&gt;Mult#77</title>
<path fill="none" stroke="black" d="M887.56,-941.13C858.98,-929.42 815.15,-911.48 783.75,-898.63"/>
<polygon fill="black" stroke="black" points="785.02,-895.37 774.44,-894.82 782.36,-901.84 785.02,-895.37"/>
</g>
<!-- Sqrt#86 -->
<g id="node51" class="node">
<title>Sqrt#86</title>
<ellipse fill="none" stroke="black" cx="936.57" cy="-882" rx="38.23" ry="18"/>
<text text-anchor="middle" x="936.57" y="-877.8" font-family="Times,serif" font-size="14.00">Sqrt#86</text>
</g>
<!-- Const[4]&#45;&gt;Sqrt#86 -->
<g id="edge57" class="edge">
<title>Const[4]&#45;&gt;Sqrt#86</title>
<path fill="none" stroke="black" d="M921.41,-936.05C923.64,-928.26 926.34,-918.82 928.83,-910.08"/>
<polygon fill="black" stroke="black" points="932.25,-910.85 931.64,-900.28 925.52,-908.93 932.25,-910.85"/>
</g>
<!-- Mult#99 -->
<g id="node54" class="node">
<title>Mult#99</title>
<ellipse fill="none" stroke="black" cx="1519.57" cy="-882" rx="40.64" ry="18"/>
<text text-anchor="middle" x="1519.57" y="-877.8" font-family="Times,serif" font-size="14.00">Mult#99</text>
</g>
<!-- Const[4]&#45;&gt;Mult#99 -->
<g id="edge71" class="edge">
<title>Const[4]&#45;&gt;Mult#99</title>
<path fill="none" stroke="black" d="M957.65,-952.31C1050.12,-950.05 1281.22,-940.47 1469.57,-900 1472.99,-899.27 1476.5,-898.37 1480,-897.38"/>
<polygon fill="black" stroke="black" points="1481.21,-900.67 1489.75,-894.4 1479.16,-893.98 1481.21,-900.67"/>
</g>
<!-- Const[0.00192307692307692] -->
<g id="node18" class="node">
<title>Const[0.00192307692307692]</title>
<ellipse fill="none" stroke="black" cx="719.57" cy="-954" rx="118.38" ry="18"/>
<text text-anchor="middle" x="719.57" y="-949.8" font-family="Times,serif" font-size="14.00">Const[0.00192307692307692]</text>
</g>
<!-- Const[0.00192307692307692]&#45;&gt;Mult#52 -->
<g id="edge8" class="edge">
<title>Const[0.00192307692307692]&#45;&gt;Mult#52</title>
<path fill="none" stroke="black" d="M701.9,-936.05C692.48,-927.03 680.77,-915.79 670.54,-905.99"/>
<polygon fill="black" stroke="black" points="672.72,-903.22 663.08,-898.83 667.87,-908.28 672.72,-903.22"/>
</g>
<!-- Const[0.00192307692307692]&#45;&gt;Mult#77 -->
<g id="edge44" class="edge">
<title>Const[0.00192307692307692]&#45;&gt;Mult#77</title>
<path fill="none" stroke="black" d="M726,-935.7C728.93,-927.81 732.46,-918.3 735.71,-909.55"/>
<polygon fill="black" stroke="black" points="739.02,-910.7 739.22,-900.1 732.46,-908.26 739.02,-910.7"/>
</g>
<!-- Pow#54 -->
<g id="node19" class="node">
<title>Pow#54</title>
<ellipse fill="none" stroke="black" cx="338.57" cy="-882" rx="39.2" ry="18"/>
<text text-anchor="middle" x="338.57" y="-877.8" font-family="Times,serif" font-size="14.00">Pow#54</text>
</g>
<!-- Pow#54&#45;&gt;Mult#55 -->
<g id="edge12" class="edge">
<title>Pow#54&#45;&gt;Mult#55</title>
<path fill="none" stroke="black" d="M338.32,-863.7C338.21,-855.98 338.08,-846.71 337.96,-838.11"/>
<polygon fill="black" stroke="black" points="341.46,-838.05 337.82,-828.1 334.46,-838.15 341.46,-838.05"/>
</g>
<!-- Const[14.04] -->
<g id="node20" class="node">
<title>Const[14.04]</title>
<ellipse fill="none" stroke="black" cx="501.57" cy="-954" rx="56.57" ry="18"/>
<text text-anchor="middle" x="501.57" y="-949.8" font-family="Times,serif" font-size="14.00">Const[14.04]</text>
</g>
<!-- Const[14.04]&#45;&gt;Pow#54 -->
<g id="edge10" class="edge">
<title>Const[14.04]&#45;&gt;Pow#54</title>
<path fill="none" stroke="black" d="M469.37,-939.17C442.39,-927.59 403.88,-911.05 375.63,-898.92"/>
<polygon fill="black" stroke="black" points="376.67,-895.55 366.1,-894.82 373.91,-901.99 376.67,-895.55"/>
</g>
<!-- Mult#61 -->
<g id="node25" class="node">
<title>Mult#61</title>
<ellipse fill="none" stroke="black" cx="535.57" cy="-810" rx="40.64" ry="18"/>
<text text-anchor="middle" x="535.57" y="-805.8" font-family="Times,serif" font-size="14.00">Mult#61</text>
</g>
<!-- Const[14.04]&#45;&gt;Mult#61 -->
<g id="edge22" class="edge">
<title>Const[14.04]&#45;&gt;Mult#61</title>
<path fill="none" stroke="black" d="M505.67,-935.87C511.49,-911.56 522.21,-866.82 529.1,-838.01"/>
<polygon fill="black" stroke="black" points="532.53,-838.73 531.46,-828.19 525.72,-837.1 532.53,-838.73"/>
</g>
<!-- Mult#75 -->
<g id="node37" class="node">
<title>Mult#75</title>
<ellipse fill="none" stroke="black" cx="991.57" cy="-738" rx="40.64" ry="18"/>
<text text-anchor="middle" x="991.57" y="-733.8" font-family="Times,serif" font-size="14.00">Mult#75</text>
</g>
<!-- Const[14.04]&#45;&gt;Mult#75 -->
<g id="edge41" class="edge">
<title>Const[14.04]&#45;&gt;Mult#75</title>
<path fill="none" stroke="black" d="M509.61,-935.97C520.76,-912.98 540.99,-873.77 553.57,-864 615.64,-815.83 845.26,-767.12 944.92,-747.74"/>
<polygon fill="black" stroke="black" points="945.84,-751.13 955,-745.79 944.51,-744.25 945.84,-751.13"/>
</g>
<!-- Pow#79 -->
<g id="node46" class="node">
<title>Pow#79</title>
<ellipse fill="none" stroke="black" cx="434.57" cy="-882" rx="39.2" ry="18"/>
<text text-anchor="middle" x="434.57" y="-877.8" font-family="Times,serif" font-size="14.00">Pow#79</text>
</g>
<!-- Const[14.04]&#45;&gt;Pow#79 -->
<g id="edge46" class="edge">
<title>Const[14.04]&#45;&gt;Pow#79</title>
<path fill="none" stroke="black" d="M485.69,-936.41C477.14,-927.48 466.45,-916.31 457.06,-906.5"/>
<polygon fill="black" stroke="black" points="459.32,-903.79 449.87,-898.99 454.26,-908.63 459.32,-903.79"/>
</g>
<!-- Mult#87 -->
<g id="node50" class="node">
<title>Mult#87</title>
<ellipse fill="none" stroke="black" cx="922.57" cy="-810" rx="40.64" ry="18"/>
<text text-anchor="middle" x="922.57" y="-805.8" font-family="Times,serif" font-size="14.00">Mult#87</text>
</g>
<!-- Const[14.04]&#45;&gt;Mult#87 -->
<g id="edge59" class="edge">
<title>Const[14.04]&#45;&gt;Mult#87</title>
<path fill="none" stroke="black" d="M518.08,-936.53C542.73,-912.08 587.29,-868.56 596.57,-864 686.32,-819.87 805.1,-811.27 871.69,-810.27"/>
<polygon fill="black" stroke="black" points="871.96,-813.77 881.92,-810.17 871.89,-806.77 871.96,-813.77"/>
</g>
<!-- Const[2] -->
<g id="node21" class="node">
<title>Const[2]</title>
<ellipse fill="none" stroke="black" cx="370.57" cy="-954" rx="41.12" ry="18"/>
<text text-anchor="middle" x="370.57" y="-949.8" font-family="Times,serif" font-size="14.00">Const[2]</text>
</g>
<!-- Const[2]&#45;&gt;Pow#54 -->
<g id="edge11" class="edge">
<title>Const[2]&#45;&gt;Pow#54</title>
<path fill="none" stroke="black" d="M362.82,-936.05C359.13,-927.97 354.63,-918.12 350.51,-909.11"/>
<polygon fill="black" stroke="black" points="353.59,-907.43 346.25,-899.79 347.22,-910.34 353.59,-907.43"/>
</g>
<!-- Const[2]&#45;&gt;Pow#79 -->
<g id="edge47" class="edge">
<title>Const[2]&#45;&gt;Pow#79</title>
<path fill="none" stroke="black" d="M385.09,-937.12C393.44,-927.99 404.07,-916.36 413.34,-906.22"/>
<polygon fill="black" stroke="black" points="415.94,-908.56 420.11,-898.82 410.78,-903.84 415.94,-908.56"/>
</g>
<!-- Log#57 -->
<g id="node22" class="node">
<title>Log#57</title>
<ellipse fill="none" stroke="black" cx="108.57" cy="-810" rx="37.74" ry="18"/>
<text text-anchor="middle" x="108.57" y="-805.8" font-family="Times,serif" font-size="14.00">Log#57</text>
</g>
<!-- Log#57&#45;&gt;Add#58 -->
<g id="edge17" class="edge">
<title>Log#57&#45;&gt;Add#58</title>
<path fill="none" stroke="black" d="M108.57,-791.7C108.57,-783.98 108.57,-774.71 108.57,-766.11"/>
<polygon fill="black" stroke="black" points="112.07,-766.1 108.57,-756.1 105.07,-766.1 112.07,-766.1"/>
</g>
<!-- Div#56&#45;&gt;Log#57 -->
<g id="edge16" class="edge">
<title>Div#56&#45;&gt;Log#57</title>
<path fill="none" stroke="black" d="M108.57,-863.7C108.57,-855.98 108.57,-846.71 108.57,-838.11"/>
<polygon fill="black" stroke="black" points="112.07,-838.1 108.57,-828.1 105.07,-838.1 112.07,-838.1"/>
</g>
<!-- Foo[strikes] -->
<g id="node24" class="node">
<title>Foo[strikes]</title>
<ellipse fill="none" stroke="black" cx="221.57" cy="-954" rx="52.7" ry="18"/>
<text text-anchor="middle" x="221.57" y="-949.8" font-family="Times,serif" font-size="14.00">Foo[strikes]</text>
</g>
<!-- Foo[strikes]&#45;&gt;Div#56 -->
<g id="edge15" class="edge">
<title>Foo[strikes]&#45;&gt;Div#56</title>
<path fill="none" stroke="black" d="M197.33,-937.98C180.28,-927.42 157.33,-913.2 139.04,-901.87"/>
<polygon fill="black" stroke="black" points="140.82,-898.86 130.48,-896.57 137.13,-904.81 140.82,-898.86"/>
</g>
<!-- Foo[strikes]&#45;&gt;Mult#69 -->
<g id="edge32" class="edge">
<title>Foo[strikes]&#45;&gt;Mult#69</title>
<path fill="none" stroke="black" d="M230.88,-936.07C236.35,-925.79 243.23,-912.32 248.57,-900 268.86,-853.17 246.74,-822.61 287.57,-792 390.55,-714.81 777.44,-849.79 865.57,-756 898.44,-721.02 894.11,-686.59 865.57,-648 837.74,-610.36 783.68,-598.58 743.37,-595.31"/>
<polygon fill="black" stroke="black" points="743.39,-591.81 733.18,-594.64 742.93,-598.79 743.39,-591.81"/>
</g>
<!-- Foo[strikes]&#45;&gt;Div#81 -->
<g id="edge51" class="edge">
<title>Foo[strikes]&#45;&gt;Div#81</title>
<path fill="none" stroke="black" d="M216.97,-936.05C214.86,-928.26 212.29,-918.82 209.92,-910.08"/>
<polygon fill="black" stroke="black" points="213.26,-909.01 207.26,-900.28 206.5,-910.84 213.26,-909.01"/>
</g>
<!-- Mult#61&#45;&gt;Div#62 -->
<g id="edge23" class="edge">
<title>Mult#61&#45;&gt;Div#62</title>
<path fill="none" stroke="black" d="M504.58,-798.21C417.88,-768.03 179.19,-684.88 178.57,-684 155.64,-651.68 167.81,-532.34 174.78,-478.12"/>
<polygon fill="black" stroke="black" points="178.26,-478.56 176.1,-468.19 171.32,-477.65 178.26,-478.56"/>
</g>
<!-- Sqrt#60&#45;&gt;Mult#61 -->
<g id="edge21" class="edge">
<title>Sqrt#60&#45;&gt;Mult#61</title>
<path fill="none" stroke="black" d="M813.95,-869.9C807.93,-867.78 801.59,-865.69 795.57,-864 722.61,-843.49 636.03,-827.45 583.48,-818.61"/>
<polygon fill="black" stroke="black" points="583.88,-815.12 573.44,-816.93 582.73,-822.03 583.88,-815.12"/>
</g>
<!-- Const[0.5] -->
<g id="node27" class="node">
<title>Const[0.5]</title>
<ellipse fill="none" stroke="black" cx="498.57" cy="-378" rx="47.88" ry="18"/>
<text text-anchor="middle" x="498.57" y="-373.8" font-family="Times,serif" font-size="14.00">Const[0.5]</text>
</g>
<!-- Const[0.5]&#45;&gt;Add#67 -->
<g id="edge28" class="edge">
<title>Const[0.5]&#45;&gt;Add#67</title>
<path fill="none" stroke="black" d="M494.28,-359.91C489.74,-341.97 482.33,-312.96 475.57,-288 473.26,-279.47 470.66,-270.19 468.29,-261.81"/>
<polygon fill="black" stroke="black" points="471.64,-260.81 465.53,-252.16 464.91,-262.73 471.64,-260.81"/>
</g>
<!-- Const[0.5]&#45;&gt;Mult#65 -->
<g id="edge26" class="edge">
<title>Const[0.5]&#45;&gt;Mult#65</title>
<path fill="none" stroke="black" d="M482.01,-361.12C472.32,-351.83 459.94,-339.96 449.25,-329.7"/>
<polygon fill="black" stroke="black" points="451.46,-326.98 441.82,-322.58 446.61,-332.03 451.46,-326.98"/>
</g>
<!-- Add#95 -->
<g id="node30" class="node">
<title>Add#95</title>
<ellipse fill="none" stroke="black" cx="601.57" cy="-234" rx="38.7" ry="18"/>
<text text-anchor="middle" x="601.57" y="-229.8" font-family="Times,serif" font-size="14.00">Add#95</text>
</g>
<!-- Const[0.5]&#45;&gt;Add#95 -->
<g id="edge67" class="edge">
<title>Const[0.5]&#45;&gt;Add#95</title>
<path fill="none" stroke="black" d="M507.12,-360.23C516.84,-341.81 533.69,-311.68 551.57,-288 559.55,-277.43 569.37,-266.64 578.18,-257.58"/>
<polygon fill="black" stroke="black" points="580.73,-259.98 585.29,-250.42 575.76,-255.05 580.73,-259.98"/>
</g>
<!-- Mult#93 -->
<g id="node31" class="node">
<title>Mult#93</title>
<ellipse fill="none" stroke="black" cx="601.57" cy="-306" rx="40.64" ry="18"/>
<text text-anchor="middle" x="601.57" y="-301.8" font-family="Times,serif" font-size="14.00">Mult#93</text>
</g>
<!-- Const[0.5]&#45;&gt;Mult#93 -->
<g id="edge65" class="edge">
<title>Const[0.5]&#45;&gt;Mult#93</title>
<path fill="none" stroke="black" d="M520.67,-361.98C535.53,-351.88 555.31,-338.44 571.59,-327.38"/>
<polygon fill="black" stroke="black" points="573.91,-330.03 580.22,-321.51 569.98,-324.24 573.91,-330.03"/>
</g>
<!-- Mult#96 -->
<g id="node28" class="node">
<title>Mult#96</title>
<ellipse fill="none" stroke="black" cx="643.57" cy="-162" rx="40.64" ry="18"/>
<text text-anchor="middle" x="643.57" y="-157.8" font-family="Times,serif" font-size="14.00">Mult#96</text>
</g>
<!-- Mult#96&#45;&gt;Sub#97 -->
<g id="edge69" class="edge">
<title>Mult#96&#45;&gt;Sub#97</title>
<path fill="none" stroke="black" d="M643.57,-143.7C643.57,-135.98 643.57,-126.71 643.57,-118.11"/>
<polygon fill="black" stroke="black" points="647.07,-118.1 643.57,-108.1 640.07,-118.1 647.07,-118.1"/>
</g>
<!-- Mult#69&#45;&gt;Mult#96 -->
<g id="edge33" class="edge">
<title>Mult#69&#45;&gt;Mult#96</title>
<path fill="none" stroke="black" d="M691.19,-575.96C689.15,-549.32 685.57,-496.17 685.57,-451 685.57,-451 685.57,-451 685.57,-305 685.57,-263.15 668.58,-217.1 656.22,-189.11"/>
<polygon fill="black" stroke="black" points="659.4,-187.66 652.07,-180.01 653.03,-190.56 659.4,-187.66"/>
</g>
<!-- Add#95&#45;&gt;Mult#96 -->
<g id="edge68" class="edge">
<title>Add#95&#45;&gt;Mult#96</title>
<path fill="none" stroke="black" d="M611.52,-216.41C616.6,-207.95 622.87,-197.49 628.52,-188.08"/>
<polygon fill="black" stroke="black" points="631.55,-189.85 633.69,-179.47 625.54,-186.24 631.55,-189.85"/>
</g>
<!-- Mult#93&#45;&gt;Add#95 -->
<g id="edge66" class="edge">
<title>Mult#93&#45;&gt;Add#95</title>
<path fill="none" stroke="black" d="M601.57,-287.7C601.57,-279.98 601.57,-270.71 601.57,-262.11"/>
<polygon fill="black" stroke="black" points="605.07,-262.1 601.57,-252.1 598.07,-262.1 605.07,-262.1"/>
</g>
<!-- Erf#91 -->
<g id="node32" class="node">
<title>Erf#91</title>
<ellipse fill="none" stroke="black" cx="601.57" cy="-378" rx="34.83" ry="18"/>
<text text-anchor="middle" x="601.57" y="-373.8" font-family="Times,serif" font-size="14.00">Erf#91</text>
</g>
<!-- Erf#91&#45;&gt;Mult#93 -->
<g id="edge64" class="edge">
<title>Erf#91&#45;&gt;Mult#93</title>
<path fill="none" stroke="black" d="M601.57,-359.7C601.57,-351.98 601.57,-342.71 601.57,-334.11"/>
<polygon fill="black" stroke="black" points="605.07,-334.1 601.57,-324.1 598.07,-334.1 605.07,-334.1"/>
</g>
<!-- Mult#90 -->
<g id="node33" class="node">
<title>Mult#90</title>
<ellipse fill="none" stroke="black" cx="601.57" cy="-450" rx="40.64" ry="18"/>
<text text-anchor="middle" x="601.57" y="-445.8" font-family="Times,serif" font-size="14.00">Mult#90</text>
</g>
<!-- Mult#90&#45;&gt;Erf#91 -->
<g id="edge63" class="edge">
<title>Mult#90&#45;&gt;Erf#91</title>
<path fill="none" stroke="black" d="M601.57,-431.7C601.57,-423.98 601.57,-414.71 601.57,-406.11"/>
<polygon fill="black" stroke="black" points="605.07,-406.1 601.57,-396.1 598.07,-406.1 605.07,-406.1"/>
</g>
<!-- Mult#71&#45;&gt;Mult#90 -->
<g id="edge36" class="edge">
<title>Mult#71&#45;&gt;Mult#90</title>
<path fill="none" stroke="black" d="M594.54,-575.87C595.9,-551.67 598.4,-507.21 600.03,-478.39"/>
<polygon fill="black" stroke="black" points="603.53,-478.37 600.6,-468.19 596.55,-477.98 603.53,-478.37"/>
</g>
<!-- Const[0.7071067811865476] -->
<g id="node35" class="node">
<title>Const[0.7071067811865476]</title>
<ellipse fill="none" stroke="black" cx="643.57" cy="-666" rx="113.89" ry="18"/>
<text text-anchor="middle" x="643.57" y="-661.8" font-family="Times,serif" font-size="14.00">Const[0.7071067811865476]</text>
</g>
<!-- Const[0.7071067811865476]&#45;&gt;Mult#71 -->
<g id="edge35" class="edge">
<title>Const[0.7071067811865476]&#45;&gt;Mult#71</title>
<path fill="none" stroke="black" d="M631.47,-648.05C625.36,-639.5 617.84,-628.97 611.11,-619.56"/>
<polygon fill="black" stroke="black" points="613.88,-617.41 605.22,-611.31 608.18,-621.48 613.88,-617.41"/>
</g>
<!-- Add#89 -->
<g id="node36" class="node">
<title>Add#89</title>
<ellipse fill="none" stroke="black" cx="864.57" cy="-522" rx="38.7" ry="18"/>
<text text-anchor="middle" x="864.57" y="-517.8" font-family="Times,serif" font-size="14.00">Add#89</text>
</g>
<!-- Add#89&#45;&gt;Mult#90 -->
<g id="edge62" class="edge">
<title>Add#89&#45;&gt;Mult#90</title>
<path fill="none" stroke="black" d="M831.79,-512.28C784.71,-499.74 697.82,-476.62 645.3,-462.64"/>
<polygon fill="black" stroke="black" points="646.16,-459.25 635.6,-460.06 644.36,-466.01 646.16,-459.25"/>
</g>
<!-- Mult#75&#45;&gt;Add#89 -->
<g id="edge42" class="edge">
<title>Mult#75&#45;&gt;Add#89</title>
<path fill="none" stroke="black" d="M984.6,-719.78C971.95,-689.47 943.5,-625.12 910.57,-576 903.65,-565.67 894.93,-555.15 886.95,-546.23"/>
<polygon fill="black" stroke="black" points="889.53,-543.86 880.19,-538.86 884.37,-548.59 889.53,-543.86"/>
</g>
<!-- Mult#74 -->
<g id="node38" class="node">
<title>Mult#74</title>
<ellipse fill="none" stroke="black" cx="1109.57" cy="-810" rx="40.64" ry="18"/>
<text text-anchor="middle" x="1109.57" y="-805.8" font-family="Times,serif" font-size="14.00">Mult#74</text>
</g>
<!-- Mult#74&#45;&gt;Mult#75 -->
<g id="edge40" class="edge">
<title>Mult#74&#45;&gt;Mult#75</title>
<path fill="none" stroke="black" d="M1086.26,-795.17C1068.32,-784.53 1043.33,-769.7 1023.53,-757.96"/>
<polygon fill="black" stroke="black" points="1025.22,-754.89 1014.84,-752.8 1021.65,-760.91 1025.22,-754.89"/>
</g>
<!-- Sqrt#72&#45;&gt;Mult#74 -->
<g id="edge38" class="edge">
<title>Sqrt#72&#45;&gt;Mult#74</title>
<path fill="none" stroke="black" d="M1254.39,-869.6C1225.5,-857.91 1180.35,-839.64 1148.15,-826.61"/>
<polygon fill="black" stroke="black" points="1149.19,-823.25 1138.61,-822.75 1146.56,-829.74 1149.19,-823.25"/>
</g>
<!-- Const[&#45;0.0620173672946042] -->
<g id="node40" class="node">
<title>Const[&#45;0.0620173672946042]</title>
<ellipse fill="none" stroke="black" cx="1109.57" cy="-882" rx="116.92" ry="18"/>
<text text-anchor="middle" x="1109.57" y="-877.8" font-family="Times,serif" font-size="14.00">Const[&#45;0.0620173672946042]</text>
</g>
<!-- Const[&#45;0.0620173672946042]&#45;&gt;Mult#74 -->
<g id="edge39" class="edge">
<title>Const[&#45;0.0620173672946042]&#45;&gt;Mult#74</title>
<path fill="none" stroke="black" d="M1109.57,-863.7C1109.57,-855.98 1109.57,-846.71 1109.57,-838.11"/>
<polygon fill="black" stroke="black" points="1113.07,-838.1 1109.57,-828.1 1106.07,-838.1 1113.07,-838.1"/>
</g>
<!-- Div#88 -->
<g id="node41" class="node">
<title>Div#88</title>
<ellipse fill="none" stroke="black" cx="864.57" cy="-594" rx="36.77" ry="18"/>
<text text-anchor="middle" x="864.57" y="-589.8" font-family="Times,serif" font-size="14.00">Div#88</text>
</g>
<!-- Div#88&#45;&gt;Add#89 -->
<g id="edge61" class="edge">
<title>Div#88&#45;&gt;Add#89</title>
<path fill="none" stroke="black" d="M864.57,-575.7C864.57,-567.98 864.57,-558.71 864.57,-550.11"/>
<polygon fill="black" stroke="black" points="868.07,-550.1 864.57,-540.1 861.07,-550.1 868.07,-550.1"/>
</g>
<!-- Mult#85 -->
<g id="node42" class="node">
<title>Mult#85</title>
<ellipse fill="none" stroke="black" cx="815.57" cy="-666" rx="40.64" ry="18"/>
<text text-anchor="middle" x="815.57" y="-661.8" font-family="Times,serif" font-size="14.00">Mult#85</text>
</g>
<!-- Mult#85&#45;&gt;Div#88 -->
<g id="edge56" class="edge">
<title>Mult#85&#45;&gt;Div#88</title>
<path fill="none" stroke="black" d="M827.18,-648.41C833.16,-639.87 840.58,-629.28 847.22,-619.79"/>
<polygon fill="black" stroke="black" points="850.17,-621.67 853.04,-611.47 844.44,-617.66 850.17,-621.67"/>
</g>
<!-- Add#83 -->
<g id="node43" class="node">
<title>Add#83</title>
<ellipse fill="none" stroke="black" cx="203.57" cy="-738" rx="38.7" ry="18"/>
<text text-anchor="middle" x="203.57" y="-733.8" font-family="Times,serif" font-size="14.00">Add#83</text>
</g>
<!-- Add#83&#45;&gt;Mult#85 -->
<g id="edge54" class="edge">
<title>Add#83&#45;&gt;Mult#85</title>
<path fill="none" stroke="black" d="M242.29,-736.54C334.28,-734.76 572.78,-726.1 766.57,-684 769.78,-683.3 773.07,-682.46 776.36,-681.52"/>
<polygon fill="black" stroke="black" points="777.58,-684.81 786.1,-678.5 775.51,-678.12 777.58,-684.81"/>
</g>
<!-- Mult#80 -->
<g id="node44" class="node">
<title>Mult#80</title>
<ellipse fill="none" stroke="black" cx="436.57" cy="-810" rx="40.64" ry="18"/>
<text text-anchor="middle" x="436.57" y="-805.8" font-family="Times,serif" font-size="14.00">Mult#80</text>
</g>
<!-- Mult#80&#45;&gt;Add#83 -->
<g id="edge49" class="edge">
<title>Mult#80&#45;&gt;Add#83</title>
<path fill="none" stroke="black" d="M406.09,-798.08C399.98,-795.99 393.59,-793.87 387.57,-792 329.91,-774.09 314.44,-773.22 256.57,-756 252.51,-754.79 248.28,-753.5 244.06,-752.18"/>
<polygon fill="black" stroke="black" points="244.92,-748.78 234.33,-749.11 242.81,-755.46 244.92,-748.78"/>
</g>
<!-- Mult#77&#45;&gt;Mult#80 -->
<g id="edge45" class="edge">
<title>Mult#77&#45;&gt;Mult#80</title>
<path fill="none" stroke="black" d="M715.75,-869.78C709.47,-867.66 702.85,-865.61 696.57,-864 604.43,-840.33 577.71,-851.67 485.57,-828 482.43,-827.19 479.21,-826.28 475.98,-825.3"/>
<polygon fill="black" stroke="black" points="476.98,-821.94 466.39,-822.22 474.84,-828.61 476.98,-821.94"/>
</g>
<!-- Pow#79&#45;&gt;Mult#80 -->
<g id="edge48" class="edge">
<title>Pow#79&#45;&gt;Mult#80</title>
<path fill="none" stroke="black" d="M435.07,-863.7C435.29,-855.98 435.55,-846.71 435.8,-838.11"/>
<polygon fill="black" stroke="black" points="439.3,-838.2 436.08,-828.1 432.3,-838 439.3,-838.2"/>
</g>
<!-- Log#82 -->
<g id="node47" class="node">
<title>Log#82</title>
<ellipse fill="none" stroke="black" cx="202.57" cy="-810" rx="37.74" ry="18"/>
<text text-anchor="middle" x="202.57" y="-805.8" font-family="Times,serif" font-size="14.00">Log#82</text>
</g>
<!-- Log#82&#45;&gt;Add#83 -->
<g id="edge53" class="edge">
<title>Log#82&#45;&gt;Add#83</title>
<path fill="none" stroke="black" d="M202.82,-791.7C202.93,-783.98 203.06,-774.71 203.18,-766.11"/>
<polygon fill="black" stroke="black" points="206.68,-766.15 203.33,-756.1 199.68,-766.05 206.68,-766.15"/>
</g>
<!-- Div#81&#45;&gt;Log#82 -->
<g id="edge52" class="edge">
<title>Div#81&#45;&gt;Log#82</title>
<path fill="none" stroke="black" d="M202.57,-863.7C202.57,-855.98 202.57,-846.71 202.57,-838.11"/>
<polygon fill="black" stroke="black" points="206.07,-838.1 202.57,-828.1 199.07,-838.1 206.07,-838.1"/>
</g>
<!-- Const[16.1245154965971] -->
<g id="node49" class="node">
<title>Const[16.1245154965971]</title>
<ellipse fill="none" stroke="black" cx="751.57" cy="-738" rx="105.35" ry="18"/>
<text text-anchor="middle" x="751.57" y="-733.8" font-family="Times,serif" font-size="14.00">Const[16.1245154965971]</text>
</g>
<!-- Const[16.1245154965971]&#45;&gt;Mult#85 -->
<g id="edge55" class="edge">
<title>Const[16.1245154965971]&#45;&gt;Mult#85</title>
<path fill="none" stroke="black" d="M767.06,-720.05C775.24,-711.12 785.39,-700.01 794.29,-690.28"/>
<polygon fill="black" stroke="black" points="796.93,-692.57 801.1,-682.83 791.77,-687.85 796.93,-692.57"/>
</g>
<!-- Mult#87&#45;&gt;Div#88 -->
<g id="edge60" class="edge">
<title>Mult#87&#45;&gt;Div#88</title>
<path fill="none" stroke="black" d="M922.36,-791.96C921.48,-761.93 917.35,-698 898.57,-648 894.86,-638.13 889.12,-628.17 883.4,-619.59"/>
<polygon fill="black" stroke="black" points="886.14,-617.4 877.54,-611.21 880.41,-621.41 886.14,-617.4"/>
</g>
<!-- Sqrt#86&#45;&gt;Mult#87 -->
<g id="edge58" class="edge">
<title>Sqrt#86&#45;&gt;Mult#87</title>
<path fill="none" stroke="black" d="M933.18,-864.05C931.64,-856.35 929.78,-847.03 928.04,-838.36"/>
<polygon fill="black" stroke="black" points="931.42,-837.39 926.03,-828.28 924.56,-838.77 931.42,-837.39"/>
</g>
<!-- Exp#101 -->
<g id="node52" class="node">
<title>Exp#101</title>
<ellipse fill="none" stroke="black" cx="1029.57" cy="-90" rx="42.08" ry="18"/>
<text text-anchor="middle" x="1029.57" y="-85.8" font-family="Times,serif" font-size="14.00">Exp#101</text>
</g>
<!-- Exp#101&#45;&gt;Mult#102 -->
<g id="edge76" class="edge">
<title>Exp#101&#45;&gt;Mult#102</title>
<path fill="none" stroke="black" d="M992.43,-81.31C931.18,-68.62 808.98,-43.32 740.67,-29.17"/>
<polygon fill="black" stroke="black" points="741.09,-25.68 730.59,-27.08 739.67,-32.54 741.09,-25.68"/>
</g>
<!-- Mult#100 -->
<g id="node53" class="node">
<title>Mult#100</title>
<ellipse fill="none" stroke="black" cx="1399.57" cy="-810" rx="44.99" ry="18"/>
<text text-anchor="middle" x="1399.57" y="-805.8" font-family="Times,serif" font-size="14.00">Mult#100</text>
</g>
<!-- Mult#100&#45;&gt;Exp#101 -->
<g id="edge75" class="edge">
<title>Mult#100&#45;&gt;Exp#101</title>
<path fill="none" stroke="black" d="M1366.78,-797.6C1318.92,-778.63 1235.57,-735.73 1235.57,-667 1235.57,-667 1235.57,-667 1235.57,-233 1235.57,-156.06 1136.94,-117.61 1076.17,-101.22"/>
<polygon fill="black" stroke="black" points="1076.96,-97.81 1066.4,-98.68 1075.2,-104.58 1076.96,-97.81"/>
</g>
<!-- Mult#99&#45;&gt;Mult#100 -->
<g id="edge73" class="edge">
<title>Mult#99&#45;&gt;Mult#100</title>
<path fill="none" stroke="black" d="M1495.86,-867.17C1477.86,-856.67 1452.86,-842.09 1432.85,-830.42"/>
<polygon fill="black" stroke="black" points="1434.46,-827.3 1424.05,-825.28 1430.93,-833.34 1434.46,-827.3"/>
</g>
<!-- Const[&#45;0.00384615384615385] -->
<g id="node55" class="node">
<title>Const[&#45;0.00384615384615385]</title>
<ellipse fill="none" stroke="black" cx="1519.57" cy="-954" rx="121.27" ry="18"/>
<text text-anchor="middle" x="1519.57" y="-949.8" font-family="Times,serif" font-size="14.00">Const[&#45;0.00384615384615385]</text>
</g>
<!-- Const[&#45;0.00384615384615385]&#45;&gt;Mult#99 -->
<g id="edge72" class="edge">
<title>Const[&#45;0.00384615384615385]&#45;&gt;Mult#99</title>
<path fill="none" stroke="black" d="M1519.57,-935.7C1519.57,-927.98 1519.57,-918.71 1519.57,-910.11"/>
<polygon fill="black" stroke="black" points="1523.07,-910.1 1519.57,-900.1 1516.07,-910.1 1523.07,-910.1"/>
</g>
<!-- Const[0.2175] -->
<g id="node56" class="node">
<title>Const[0.2175]</title>
<ellipse fill="none" stroke="black" cx="1399.57" cy="-882" rx="60.91" ry="18"/>
<text text-anchor="middle" x="1399.57" y="-877.8" font-family="Times,serif" font-size="14.00">Const[0.2175]</text>
</g>
<!-- Const[0.2175]&#45;&gt;Mult#100 -->
<g id="edge74" class="edge">
<title>Const[0.2175]&#45;&gt;Mult#100</title>
<path fill="none" stroke="black" d="M1399.57,-863.7C1399.57,-855.98 1399.57,-846.71 1399.57,-838.11"/>
<polygon fill="black" stroke="black" points="1403.07,-838.1 1399.57,-828.1 1396.07,-838.1 1403.07,-838.1"/>
</g>
</g>
</svg>
