<?xml version="1.0" encoding="UTF-8" standalone="no"?>
<!DOCTYPE svg PUBLIC "-//W3C//DTD SVG 1.1//EN"
 "http://www.w3.org/Graphics/SVG/1.1/DTD/svg11.dtd">
<!-- Generated by graphviz version 2.43.0 (0)
 -->
<!-- Title: Graph Pages: 1 -->
<svg width="483pt" height="476pt"
 viewBox="0.00 0.00 482.54 476.00" xmlns="http://www.w3.org/2000/svg" xmlns:xlink="http://www.w3.org/1999/xlink">
<g id="graph0" class="graph" transform="scale(1 1) rotate(0) translate(4 472)">
<title>Graph</title>
<polygon fill="white" stroke="transparent" points="-4,4 -4,-472 478.54,-472 478.54,4 -4,4"/>
<!-- Add#41 -->
<g id="node1" class="node">
<title>Add#41</title>
<ellipse fill="none" stroke="black" cx="372.06" cy="-18" rx="38.7" ry="18"/>
<text text-anchor="middle" x="372.06" y="-13.8" font-family="Times,serif" font-size="14.00">Add#41</text>
</g>
<!-- Add#39 -->
<g id="node2" class="node">
<title>Add#39</title>
<ellipse fill="none" stroke="black" cx="326.06" cy="-90" rx="38.7" ry="18"/>
<text text-anchor="middle" x="326.06" y="-85.8" font-family="Times,serif" font-size="14.00">Add#39</text>
</g>
<!-- Add#39&#45;&gt;Add#41 -->
<g id="edge16" class="edge">
<title>Add#39&#45;&gt;Add#41</title>
<path fill="none" stroke="black" d="M336.96,-72.41C342.52,-63.95 349.39,-53.49 355.58,-44.08"/>
<polygon fill="black" stroke="black" points="358.67,-45.75 361.24,-35.47 352.82,-41.9 358.67,-45.75"/>
</g>
<!-- Mult#31 -->
<g id="node3" class="node">
<title>Mult#31</title>
<ellipse fill="none" stroke="black" cx="186.06" cy="-234" rx="40.64" ry="18"/>
<text text-anchor="middle" x="186.06" y="-229.8" font-family="Times,serif" font-size="14.00">Mult#31</text>
</g>
<!-- Mult#31&#45;&gt;Add#39 -->
<g id="edge7" class="edge">
<title>Mult#31&#45;&gt;Add#39</title>
<path fill="none" stroke="black" d="M201.58,-217.26C226.28,-192.2 274.67,-143.12 303.3,-114.08"/>
<polygon fill="black" stroke="black" points="305.94,-116.39 310.47,-106.81 300.96,-111.47 305.94,-116.39"/>
</g>
<!-- Mult#30 -->
<g id="node4" class="node">
<title>Mult#30</title>
<ellipse fill="none" stroke="black" cx="41.06" cy="-306" rx="40.64" ry="18"/>
<text text-anchor="middle" x="41.06" y="-301.8" font-family="Times,serif" font-size="14.00">Mult#30</text>
</g>
<!-- Mult#30&#45;&gt;Mult#31 -->
<g id="edge5" class="edge">
<title>Mult#30&#45;&gt;Mult#31</title>
<path fill="none" stroke="black" d="M67.65,-292.16C90.96,-280.91 125,-264.48 150.61,-252.11"/>
<polygon fill="black" stroke="black" points="152.15,-255.26 159.63,-247.76 149.11,-248.95 152.15,-255.26"/>
</g>
<!-- Mult#29 -->
<g id="node5" class="node">
<title>Mult#29</title>
<ellipse fill="none" stroke="black" cx="41.06" cy="-378" rx="40.64" ry="18"/>
<text text-anchor="middle" x="41.06" y="-373.8" font-family="Times,serif" font-size="14.00">Mult#29</text>
</g>
<!-- Mult#29&#45;&gt;Mult#30 -->
<g id="edge3" class="edge">
<title>Mult#29&#45;&gt;Mult#30</title>
<path fill="none" stroke="black" d="M41.06,-359.7C41.06,-351.98 41.06,-342.71 41.06,-334.11"/>
<polygon fill="black" stroke="black" points="44.56,-334.1 41.06,-324.1 37.56,-334.1 44.56,-334.1"/>
</g>
<!-- Const[1] -->
<g id="node6" class="node">
<title>Const[1]</title>
<ellipse fill="none" stroke="black" cx="215.06" cy="-450" rx="41.12" ry="18"/>
<text text-anchor="middle" x="215.06" y="-445.8" font-family="Times,serif" font-size="14.00">Const[1]</text>
</g>
<!-- Const[1]&#45;&gt;Mult#29 -->
<g id="edge1" class="edge">
<title>Const[1]&#45;&gt;Mult#29</title>
<path fill="none" stroke="black" d="M185.94,-437.28C156.74,-425.54 111.63,-407.39 79.51,-394.47"/>
<polygon fill="black" stroke="black" points="80.57,-391.12 69.99,-390.64 77.96,-397.62 80.57,-391.12"/>
</g>
<!-- Pow#33 -->
<g id="node13" class="node">
<title>Pow#33</title>
<ellipse fill="none" stroke="black" cx="322.06" cy="-378" rx="39.2" ry="18"/>
<text text-anchor="middle" x="322.06" y="-373.8" font-family="Times,serif" font-size="14.00">Pow#33</text>
</g>
<!-- Const[1]&#45;&gt;Pow#33 -->
<g id="edge8" class="edge">
<title>Const[1]&#45;&gt;Pow#33</title>
<path fill="none" stroke="black" d="M236.97,-434.67C252.8,-424.31 274.37,-410.2 291.84,-398.77"/>
<polygon fill="black" stroke="black" points="294.09,-401.48 300.54,-393.08 290.26,-395.62 294.09,-401.48"/>
</g>
<!-- Const[3] -->
<g id="node7" class="node">
<title>Const[3]</title>
<ellipse fill="none" stroke="black" cx="41.06" cy="-450" rx="41.12" ry="18"/>
<text text-anchor="middle" x="41.06" y="-445.8" font-family="Times,serif" font-size="14.00">Const[3]</text>
</g>
<!-- Const[3]&#45;&gt;Mult#29 -->
<g id="edge2" class="edge">
<title>Const[3]&#45;&gt;Mult#29</title>
<path fill="none" stroke="black" d="M41.06,-431.7C41.06,-423.98 41.06,-414.71 41.06,-406.11"/>
<polygon fill="black" stroke="black" points="44.56,-406.1 41.06,-396.1 37.56,-406.1 44.56,-406.1"/>
</g>
<!-- Foo[foo] -->
<g id="node8" class="node">
<title>Foo[foo]</title>
<ellipse fill="none" stroke="black" cx="141.06" cy="-378" rx="41.59" ry="18"/>
<text text-anchor="middle" x="141.06" y="-373.8" font-family="Times,serif" font-size="14.00">Foo[foo]</text>
</g>
<!-- Foo[foo]&#45;&gt;Mult#30 -->
<g id="edge4" class="edge">
<title>Foo[foo]&#45;&gt;Mult#30</title>
<path fill="none" stroke="black" d="M119.85,-362.15C105.44,-352.06 86.18,-338.58 70.31,-327.47"/>
<polygon fill="black" stroke="black" points="72.09,-324.45 61.89,-321.58 68.08,-330.19 72.09,-324.45"/>
</g>
<!-- Timer[&lt;lambda&gt;]#26 -->
<g id="node9" class="node">
<title>Timer[&lt;lambda&gt;]#26</title>
<ellipse fill="none" stroke="black" cx="186.06" cy="-306" rx="86.63" ry="18"/>
<text text-anchor="middle" x="186.06" y="-301.8" font-family="Times,serif" font-size="14.00">Timer[&lt;lambda&gt;]#26</text>
</g>
<!-- Timer[&lt;lambda&gt;]#26&#45;&gt;Mult#31 -->
<g id="edge6" class="edge">
<title>Timer[&lt;lambda&gt;]#26&#45;&gt;Mult#31</title>
<path fill="none" stroke="black" d="M186.06,-287.7C186.06,-279.98 186.06,-270.71 186.06,-262.11"/>
<polygon fill="black" stroke="black" points="189.56,-262.1 186.06,-252.1 182.56,-262.1 189.56,-262.1"/>
</g>
<!-- Mult#38 -->
<g id="node10" class="node">
<title>Mult#38</title>
<ellipse fill="none" stroke="black" cx="326.06" cy="-162" rx="40.64" ry="18"/>
<text text-anchor="middle" x="326.06" y="-157.8" font-family="Times,serif" font-size="14.00">Mult#38</text>
</g>
<!-- Mult#38&#45;&gt;Add#39 -->
<g id="edge15" class="edge">
<title>Mult#38&#45;&gt;Add#39</title>
<path fill="none" stroke="black" d="M326.06,-143.7C326.06,-135.98 326.06,-126.71 326.06,-118.11"/>
<polygon fill="black" stroke="black" points="329.56,-118.1 326.06,-108.1 322.56,-118.1 329.56,-118.1"/>
</g>
<!-- Pow#36 -->
<g id="node11" class="node">
<title>Pow#36</title>
<ellipse fill="none" stroke="black" cx="326.06" cy="-234" rx="39.2" ry="18"/>
<text text-anchor="middle" x="326.06" y="-229.8" font-family="Times,serif" font-size="14.00">Pow#36</text>
</g>
<!-- Pow#36&#45;&gt;Mult#38 -->
<g id="edge13" class="edge">
<title>Pow#36&#45;&gt;Mult#38</title>
<path fill="none" stroke="black" d="M326.06,-215.7C326.06,-207.98 326.06,-198.71 326.06,-190.11"/>
<polygon fill="black" stroke="black" points="329.56,-190.1 326.06,-180.1 322.56,-190.1 329.56,-190.1"/>
</g>
<!-- Sin#34 -->
<g id="node12" class="node">
<title>Sin#34</title>
<ellipse fill="none" stroke="black" cx="326.06" cy="-306" rx="35.34" ry="18"/>
<text text-anchor="middle" x="326.06" y="-301.8" font-family="Times,serif" font-size="14.00">Sin#34</text>
</g>
<!-- Sin#34&#45;&gt;Pow#36 -->
<g id="edge11" class="edge">
<title>Sin#34&#45;&gt;Pow#36</title>
<path fill="none" stroke="black" d="M326.06,-287.7C326.06,-279.98 326.06,-270.71 326.06,-262.11"/>
<polygon fill="black" stroke="black" points="329.56,-262.1 326.06,-252.1 322.56,-262.1 329.56,-262.1"/>
</g>
<!-- Pow#33&#45;&gt;Sin#34 -->
<g id="edge10" class="edge">
<title>Pow#33&#45;&gt;Sin#34</title>
<path fill="none" stroke="black" d="M323.05,-359.7C323.49,-351.98 324.02,-342.71 324.51,-334.11"/>
<polygon fill="black" stroke="black" points="328.01,-334.29 325.08,-324.1 321.02,-333.89 328.01,-334.29"/>
</g>
<!-- Const[2] -->
<g id="node14" class="node">
<title>Const[2]</title>
<ellipse fill="none" stroke="black" cx="355.06" cy="-450" rx="41.12" ry="18"/>
<text text-anchor="middle" x="355.06" y="-445.8" font-family="Times,serif" font-size="14.00">Const[2]</text>
</g>
<!-- Const[2]&#45;&gt;Pow#36 -->
<g id="edge12" class="edge">
<title>Const[2]&#45;&gt;Pow#36</title>
<path fill="none" stroke="black" d="M361.31,-431.94C371.31,-401.88 388.07,-337.9 370.06,-288 366.02,-276.8 358.47,-266.3 350.75,-257.65"/>
<polygon fill="black" stroke="black" points="353.14,-255.08 343.71,-250.25 348.07,-259.91 353.14,-255.08"/>
</g>
<!-- Const[2]&#45;&gt;Pow#33 -->
<g id="edge9" class="edge">
<title>Const[2]&#45;&gt;Pow#33</title>
<path fill="none" stroke="black" d="M347.07,-432.05C343.26,-423.97 338.62,-414.12 334.37,-405.11"/>
<polygon fill="black" stroke="black" points="337.4,-403.34 329.97,-395.79 331.07,-406.33 337.4,-403.34"/>
</g>
<!-- Const[10] -->
<g id="node15" class="node">
<title>Const[10]</title>
<ellipse fill="none" stroke="black" cx="429.06" cy="-234" rx="45.46" ry="18"/>
<text text-anchor="middle" x="429.06" y="-229.8" font-family="Times,serif" font-size="14.00">Const[10]</text>
</g>
<!-- Const[10]&#45;&gt;Mult#38 -->
<g id="edge14" class="edge">
<title>Const[10]&#45;&gt;Mult#38</title>
<path fill="none" stroke="black" d="M407.22,-218.15C392.37,-208.06 372.53,-194.58 356.19,-183.47"/>
<polygon fill="black" stroke="black" points="357.76,-180.31 347.52,-177.58 353.82,-186.1 357.76,-180.31"/>
</g>
<!-- Tan#40 -->
<g id="node16" class="node">
<title>Tan#40</title>
<ellipse fill="none" stroke="black" cx="422.06" cy="-90" rx="36.51" ry="18"/>
<text text-anchor="middle" x="422.06" y="-85.8" font-family="Times,serif" font-size="14.00">Tan#40</text>
</g>
<!-- Tan#40&#45;&gt;Add#41 -->
<g id="edge18" class="edge">
<title>Tan#40&#45;&gt;Add#41</title>
<path fill="none" stroke="black" d="M410.46,-72.76C404.37,-64.23 396.76,-53.58 389.93,-44.02"/>
<polygon fill="black" stroke="black" points="392.6,-41.74 383.94,-35.63 386.9,-45.81 392.6,-41.74"/>
</g>
<!-- Const[4] -->
<g id="node17" class="node">
<title>Const[4]</title>
<ellipse fill="none" stroke="black" cx="426.06" cy="-162" rx="41.12" ry="18"/>
<text text-anchor="middle" x="426.06" y="-157.8" font-family="Times,serif" font-size="14.00">Const[4]</text>
</g>
<!-- Const[4]&#45;&gt;Tan#40 -->
<g id="edge17" class="edge">
<title>Const[4]&#45;&gt;Tan#40</title>
<path fill="none" stroke="black" d="M425.07,-143.7C424.63,-135.98 424.1,-126.71 423.61,-118.11"/>
<polygon fill="black" stroke="black" points="427.1,-117.89 423.04,-108.1 420.11,-118.29 427.1,-117.89"/>
</g>
</g>
</svg>
