<?xml version="1.0" encoding="UTF-8" standalone="no"?>
<!DOCTYPE svg PUBLIC "-//W3C//DTD SVG 1.1//EN"
 "http://www.w3.org/Graphics/SVG/1.1/DTD/svg11.dtd">
<!-- Generated by graphviz version 2.44.0 (20200408.0750)
 -->
<!-- Title: ?^var(2)*var((3, 0)+?*var((2, 0)#9 Pages: 1 -->
<svg width="357pt" height="260pt"
 viewBox="0.00 0.00 356.93 260.00" xmlns="http://www.w3.org/2000/svg" xmlns:xlink="http://www.w3.org/1999/xlink">
<g id="graph0" class="graph" transform="scale(1 1) rotate(0) translate(4 256)">
<title>?^var(2)*var((3, 0)+?*var((2, 0)#9</title>
<polygon fill="white" stroke="transparent" points="-4,4 -4,-256 352.93,-256 352.93,4 -4,4"/>
<!-- ?^var(2)*var((3, 0)+?*var((2, 0)#9 -->
<g id="node1" class="node">
<title>?^var(2)*var((3, 0)+?*var((2, 0)#9</title>
<ellipse fill="none" stroke="red" cx="214.4" cy="-18" rx="134.58" ry="18"/>
<text text-anchor="middle" x="214.4" y="-14.3" font-family="Times,serif" font-size="14.00">?^var(2)*var((3, 0)+?*var((2, 0)#9</text>
</g>
<!-- ?^var(2)*var((3, 0)#6 -->
<g id="node2" class="node">
<title>?^var(2)*var((3, 0)#6</title>
<ellipse fill="none" stroke="red" cx="157.4" cy="-90" rx="87.18" ry="18"/>
<text text-anchor="middle" x="157.4" y="-86.3" font-family="Times,serif" font-size="14.00">?^var(2)*var((3, 0)#6</text>
</g>
<!-- ?^var(2)*var((3, 0)#6&#45;&gt;?^var(2)*var((3, 0)+?*var((2, 0)#9 -->
<g id="edge5" class="edge">
<title>?^var(2)*var((3, 0)#6&#45;&gt;?^var(2)*var((3, 0)+?*var((2, 0)#9</title>
<path fill="none" stroke="red" d="M171.19,-72.05C178.02,-63.67 186.4,-53.38 193.96,-44.1"/>
<polygon fill="red" stroke="red" points="196.73,-46.24 200.33,-36.28 191.3,-41.82 196.73,-46.24"/>
</g>
<!-- ?^var(2)#4 -->
<g id="node3" class="node">
<title>?^var(2)#4</title>
<ellipse fill="none" stroke="red" cx="49.4" cy="-162" rx="49.29" ry="18"/>
<text text-anchor="middle" x="49.4" y="-158.3" font-family="Times,serif" font-size="14.00">?^var(2)#4</text>
</g>
<!-- ?^var(2)#4&#45;&gt;?^var(2)*var((3, 0)#6 -->
<g id="edge3" class="edge">
<title>?^var(2)#4&#45;&gt;?^var(2)*var((3, 0)#6</title>
<path fill="none" stroke="red" d="M72.56,-145.98C87.31,-136.42 106.67,-123.88 123.17,-113.18"/>
<polygon fill="red" stroke="red" points="125.51,-115.84 132,-107.46 121.71,-109.96 125.51,-115.84"/>
</g>
<!-- ?#0 -->
<g id="node4" class="node">
<title>?#0</title>
<polygon fill="none" stroke="black" points="186.4,-252 132.4,-252 132.4,-216 186.4,-216 186.4,-252"/>
<text text-anchor="middle" x="159.4" y="-230.3" font-family="Times,serif" font-size="14.00">?#0</text>
</g>
<!-- ?#0&#45;&gt;?^var(2)#4 -->
<g id="edge1" class="edge">
<title>?#0&#45;&gt;?^var(2)#4</title>
<path fill="none" stroke="black" d="M132.49,-215.88C117.14,-206.11 97.8,-193.8 81.64,-183.52"/>
<polygon fill="black" stroke="black" points="83.35,-180.46 73.04,-178.05 79.6,-186.37 83.35,-180.46"/>
</g>
<!-- ?*var((2, 0)#8 -->
<g id="node7" class="node">
<title>?*var((2, 0)#8</title>
<ellipse fill="none" stroke="red" cx="278.4" cy="-162" rx="61.99" ry="18"/>
<text text-anchor="middle" x="278.4" y="-158.3" font-family="Times,serif" font-size="14.00">?*var((2, 0)#8</text>
</g>
<!-- ?#0&#45;&gt;?*var((2, 0)#8 -->
<g id="edge6" class="edge">
<title>?#0&#45;&gt;?*var((2, 0)#8</title>
<path fill="none" stroke="black" d="M186.4,-217.12C203.37,-207.13 225.43,-194.16 243.7,-183.41"/>
<polygon fill="black" stroke="black" points="245.47,-186.43 252.32,-178.34 241.92,-180.39 245.47,-186.43"/>
</g>
<!-- var(2)#3 -->
<g id="node5" class="node">
<title>var(2)#3</title>
<polygon fill="none" stroke="red" points="80.9,-252 17.9,-252 17.9,-216 80.9,-216 80.9,-252"/>
<text text-anchor="middle" x="49.4" y="-230.3" font-family="Times,serif" font-size="14.00">var(2)#3</text>
</g>
<!-- var(2)#3&#45;&gt;?^var(2)#4 -->
<g id="edge2" class="edge">
<title>var(2)#3&#45;&gt;?^var(2)#4</title>
<path fill="none" stroke="red" d="M49.4,-215.7C49.4,-207.98 49.4,-198.71 49.4,-190.11"/>
<polygon fill="red" stroke="red" points="52.9,-190.1 49.4,-180.1 45.9,-190.1 52.9,-190.1"/>
</g>
<!-- var((3, 0)#5 -->
<g id="node6" class="node">
<title>var((3, 0)#5</title>
<polygon fill="none" stroke="red" points="198.4,-180 116.4,-180 116.4,-144 198.4,-144 198.4,-180"/>
<text text-anchor="middle" x="157.4" y="-158.3" font-family="Times,serif" font-size="14.00">var((3, 0)#5</text>
</g>
<!-- var((3, 0)#5&#45;&gt;?^var(2)*var((3, 0)#6 -->
<g id="edge4" class="edge">
<title>var((3, 0)#5&#45;&gt;?^var(2)*var((3, 0)#6</title>
<path fill="none" stroke="red" d="M157.4,-143.7C157.4,-135.98 157.4,-126.71 157.4,-118.11"/>
<polygon fill="red" stroke="red" points="160.9,-118.1 157.4,-108.1 153.9,-118.1 160.9,-118.1"/>
</g>
<!-- ?*var((2, 0)#8&#45;&gt;?^var(2)*var((3, 0)+?*var((2, 0)#9 -->
<g id="edge8" class="edge">
<title>?*var((2, 0)#8&#45;&gt;?^var(2)*var((3, 0)+?*var((2, 0)#9</title>
<path fill="none" stroke="red" d="M275.5,-143.94C271.95,-125.53 264.94,-95.65 253.4,-72 248.66,-62.3 242.11,-52.54 235.72,-44.08"/>
<polygon fill="red" stroke="red" points="238.4,-41.82 229.47,-36.11 232.89,-46.14 238.4,-41.82"/>
</g>
<!-- var((2, 0)#7 -->
<g id="node8" class="node">
<title>var((2, 0)#7</title>
<polygon fill="none" stroke="red" points="319.4,-252 237.4,-252 237.4,-216 319.4,-216 319.4,-252"/>
<text text-anchor="middle" x="278.4" y="-230.3" font-family="Times,serif" font-size="14.00">var((2, 0)#7</text>
</g>
<!-- var((2, 0)#7&#45;&gt;?*var((2, 0)#8 -->
<g id="edge7" class="edge">
<title>var((2, 0)#7&#45;&gt;?*var((2, 0)#8</title>
<path fill="none" stroke="red" d="M278.4,-215.7C278.4,-207.98 278.4,-198.71 278.4,-190.11"/>
<polygon fill="red" stroke="red" points="281.9,-190.1 278.4,-180.1 274.9,-190.1 281.9,-190.1"/>
</g>
</g>
</svg>
