<?xml version="1.0" encoding="UTF-8" standalone="no"?>
<!DOCTYPE svg PUBLIC "-//W3C//DTD SVG 1.1//EN"
 "http://www.w3.org/Graphics/SVG/1.1/DTD/svg11.dtd">
<!-- Generated by graphviz version 2.44.0 (20200408.0750)
 -->
<!-- Title: ?^var(2)*var((3, 0)+?*var((2, 0)#16 Pages: 1 -->
<svg width="377pt" height="260pt"
 viewBox="0.00 0.00 377.03 260.00" xmlns="http://www.w3.org/2000/svg" xmlns:xlink="http://www.w3.org/1999/xlink">
<g id="graph0" class="graph" transform="scale(1 1) rotate(0) translate(4 256)">
<title>?^var(2)*var((3, 0)+?*var((2, 0)#16</title>
<polygon fill="white" stroke="transparent" points="-4,4 -4,-256 373.03,-256 373.03,4 -4,4"/>
<!-- ?^var(2)*var((3, 0)+?*var((2, 0)#16 -->
<g id="node1" class="node">
<title>?^var(2)*var((3, 0)+?*var((2, 0)#16</title>
<ellipse fill="none" stroke="red" cx="229.95" cy="-18" rx="139.18" ry="18"/>
<text text-anchor="middle" x="229.95" y="-14.3" font-family="Times,serif" font-size="14.00">?^var(2)*var((3, 0)+?*var((2, 0)#16</text>
</g>
<!-- ?^var(2)*var((3, 0)#13 -->
<g id="node2" class="node">
<title>?^var(2)*var((3, 0)#13</title>
<ellipse fill="none" stroke="red" cx="169.95" cy="-90" rx="91.78" ry="18"/>
<text text-anchor="middle" x="169.95" y="-86.3" font-family="Times,serif" font-size="14.00">?^var(2)*var((3, 0)#13</text>
</g>
<!-- ?^var(2)*var((3, 0)#13&#45;&gt;?^var(2)*var((3, 0)+?*var((2, 0)#16 -->
<g id="edge5" class="edge">
<title>?^var(2)*var((3, 0)#13&#45;&gt;?^var(2)*var((3, 0)+?*var((2, 0)#16</title>
<path fill="none" stroke="red" d="M184.47,-72.05C191.66,-63.67 200.48,-53.38 208.43,-44.1"/>
<polygon fill="red" stroke="red" points="211.29,-46.15 215.14,-36.28 205.97,-41.59 211.29,-46.15"/>
</g>
<!-- ?^var(2)#11 -->
<g id="node3" class="node">
<title>?^var(2)#11</title>
<ellipse fill="none" stroke="red" cx="53.95" cy="-162" rx="53.89" ry="18"/>
<text text-anchor="middle" x="53.95" y="-158.3" font-family="Times,serif" font-size="14.00">?^var(2)#11</text>
</g>
<!-- ?^var(2)#11&#45;&gt;?^var(2)*var((3, 0)#13 -->
<g id="edge3" class="edge">
<title>?^var(2)#11&#45;&gt;?^var(2)*var((3, 0)#13</title>
<path fill="none" stroke="red" d="M78.83,-145.98C94.93,-136.27 116.15,-123.46 134.06,-112.65"/>
<polygon fill="red" stroke="red" points="136.33,-115.38 143.08,-107.21 132.71,-109.38 136.33,-115.38"/>
</g>
<!-- ?#1 -->
<g id="node4" class="node">
<title>?#1</title>
<polygon fill="none" stroke="black" points="197.95,-252 143.95,-252 143.95,-216 197.95,-216 197.95,-252"/>
<text text-anchor="middle" x="170.95" y="-230.3" font-family="Times,serif" font-size="14.00">?#1</text>
</g>
<!-- ?#1&#45;&gt;?^var(2)#11 -->
<g id="edge1" class="edge">
<title>?#1&#45;&gt;?^var(2)#11</title>
<path fill="none" stroke="black" d="M143.81,-216.76C127.14,-206.79 105.64,-193.93 87.86,-183.29"/>
<polygon fill="black" stroke="black" points="89.32,-180.08 78.94,-177.95 85.72,-186.09 89.32,-180.08"/>
</g>
<!-- ?*var((2, 0)#15 -->
<g id="node7" class="node">
<title>?*var((2, 0)#15</title>
<ellipse fill="none" stroke="red" cx="297.95" cy="-162" rx="65.79" ry="18"/>
<text text-anchor="middle" x="297.95" y="-158.3" font-family="Times,serif" font-size="14.00">?*var((2, 0)#15</text>
</g>
<!-- ?#1&#45;&gt;?*var((2, 0)#15 -->
<g id="edge6" class="edge">
<title>?#1&#45;&gt;?*var((2, 0)#15</title>
<path fill="none" stroke="black" d="M198.19,-217.98C216.52,-207.88 240.91,-194.44 260.98,-183.37"/>
<polygon fill="black" stroke="black" points="262.8,-186.37 269.87,-178.48 259.42,-180.24 262.8,-186.37"/>
</g>
<!-- var(2)#10 -->
<g id="node5" class="node">
<title>var(2)#10</title>
<polygon fill="none" stroke="red" points="88.95,-252 18.95,-252 18.95,-216 88.95,-216 88.95,-252"/>
<text text-anchor="middle" x="53.95" y="-230.3" font-family="Times,serif" font-size="14.00">var(2)#10</text>
</g>
<!-- var(2)#10&#45;&gt;?^var(2)#11 -->
<g id="edge2" class="edge">
<title>var(2)#10&#45;&gt;?^var(2)#11</title>
<path fill="none" stroke="red" d="M53.95,-215.7C53.95,-207.98 53.95,-198.71 53.95,-190.11"/>
<polygon fill="red" stroke="red" points="57.45,-190.1 53.95,-180.1 50.45,-190.1 57.45,-190.1"/>
</g>
<!-- var((3, 0)#12 -->
<g id="node6" class="node">
<title>var((3, 0)#12</title>
<polygon fill="none" stroke="red" points="214.45,-180 125.45,-180 125.45,-144 214.45,-144 214.45,-180"/>
<text text-anchor="middle" x="169.95" y="-158.3" font-family="Times,serif" font-size="14.00">var((3, 0)#12</text>
</g>
<!-- var((3, 0)#12&#45;&gt;?^var(2)*var((3, 0)#13 -->
<g id="edge4" class="edge">
<title>var((3, 0)#12&#45;&gt;?^var(2)*var((3, 0)#13</title>
<path fill="none" stroke="red" d="M169.95,-143.7C169.95,-135.98 169.95,-126.71 169.95,-118.11"/>
<polygon fill="red" stroke="red" points="173.45,-118.1 169.95,-108.1 166.45,-118.1 173.45,-118.1"/>
</g>
<!-- ?*var((2, 0)#15&#45;&gt;?^var(2)*var((3, 0)+?*var((2, 0)#16 -->
<g id="edge8" class="edge">
<title>?*var((2, 0)#15&#45;&gt;?^var(2)*var((3, 0)+?*var((2, 0)#16</title>
<path fill="none" stroke="red" d="M294.7,-143.9C290.76,-125.44 283.09,-95.53 270.95,-72 265.9,-62.23 259,-52.45 252.29,-44"/>
<polygon fill="red" stroke="red" points="254.79,-41.53 245.72,-36.04 249.39,-45.99 254.79,-41.53"/>
</g>
<!-- var((2, 0)#14 -->
<g id="node8" class="node">
<title>var((2, 0)#14</title>
<polygon fill="none" stroke="red" points="342.45,-252 253.45,-252 253.45,-216 342.45,-216 342.45,-252"/>
<text text-anchor="middle" x="297.95" y="-230.3" font-family="Times,serif" font-size="14.00">var((2, 0)#14</text>
</g>
<!-- var((2, 0)#14&#45;&gt;?*var((2, 0)#15 -->
<g id="edge7" class="edge">
<title>var((2, 0)#14&#45;&gt;?*var((2, 0)#15</title>
<path fill="none" stroke="red" d="M297.95,-215.7C297.95,-207.98 297.95,-198.71 297.95,-190.11"/>
<polygon fill="red" stroke="red" points="301.45,-190.1 297.95,-180.1 294.45,-190.1 301.45,-190.1"/>
</g>
</g>
</svg>
