<?xml version="1.0" encoding="UTF-8" standalone="no"?>
<!DOCTYPE svg PUBLIC "-//W3C//DTD SVG 1.1//EN"
 "http://www.w3.org/Graphics/SVG/1.1/DTD/svg11.dtd">
<!-- Generated by graphviz version 2.44.0 (20200408.0750)
 -->
<!-- Title: Graph Pages: 1 -->
<svg width="182pt" height="188pt"
 viewBox="0.00 0.00 181.50 188.00" xmlns="http://www.w3.org/2000/svg" xmlns:xlink="http://www.w3.org/1999/xlink">
<g id="graph0" class="graph" transform="scale(1 1) rotate(0) translate(4 184)">
<title>Graph</title>
<polygon fill="white" stroke="transparent" points="-4,4 -4,-184 177.5,-184 177.5,4 -4,4"/>
<!-- Add#4 -->
<g id="node1" class="node">
<title>Add#4</title>
<ellipse fill="none" stroke="black" cx="87.5" cy="-18" rx="34.39" ry="18"/>
<text text-anchor="middle" x="87.5" y="-14.3" font-family="Times,serif" font-size="14.00">Add#4</text>
</g>
<!-- Sin#1 -->
<g id="node2" class="node">
<title>Sin#1</title>
<ellipse fill="none" stroke="black" cx="45.5" cy="-90" rx="31.4" ry="18"/>
<text text-anchor="middle" x="45.5" y="-86.3" font-family="Times,serif" font-size="14.00">Sin#1</text>
</g>
<!-- Sin#1&#45;&gt;Add#4 -->
<g id="edge2" class="edge">
<title>Sin#1&#45;&gt;Add#4</title>
<path fill="none" stroke="black" d="M55.24,-72.76C60.31,-64.32 66.62,-53.8 72.31,-44.31"/>
<polygon fill="black" stroke="black" points="75.38,-46.01 77.52,-35.63 69.37,-42.41 75.38,-46.01"/>
</g>
<!-- Timer[foo]#0 -->
<g id="node3" class="node">
<title>Timer[foo]#0</title>
<polygon fill="none" stroke="black" points="91,-180 0,-180 0,-144 91,-144 91,-180"/>
<text text-anchor="middle" x="45.5" y="-158.3" font-family="Times,serif" font-size="14.00">Timer[foo]#0</text>
</g>
<!-- Timer[foo]#0&#45;&gt;Sin#1 -->
<g id="edge1" class="edge">
<title>Timer[foo]#0&#45;&gt;Sin#1</title>
<path fill="none" stroke="black" d="M45.5,-143.7C45.5,-135.98 45.5,-126.71 45.5,-118.11"/>
<polygon fill="black" stroke="black" points="49,-118.1 45.5,-108.1 42,-118.1 49,-118.1"/>
</g>
<!-- Pow#3 -->
<g id="node4" class="node">
<title>Pow#3</title>
<ellipse fill="none" stroke="black" cx="129.5" cy="-90" rx="35.19" ry="18"/>
<text text-anchor="middle" x="129.5" y="-86.3" font-family="Times,serif" font-size="14.00">Pow#3</text>
</g>
<!-- Timer[foo]#0&#45;&gt;Pow#3 -->
<g id="edge3" class="edge">
<title>Timer[foo]#0&#45;&gt;Pow#3</title>
<path fill="none" stroke="black" d="M66.26,-143.7C77.63,-134.22 91.82,-122.4 103.87,-112.36"/>
<polygon fill="black" stroke="black" points="106.37,-114.83 111.81,-105.74 101.89,-109.45 106.37,-114.83"/>
</g>
<!-- Pow#3&#45;&gt;Add#4 -->
<g id="edge5" class="edge">
<title>Pow#3&#45;&gt;Add#4</title>
<path fill="none" stroke="black" d="M119.55,-72.41C114.47,-63.95 108.2,-53.49 102.55,-44.08"/>
<polygon fill="black" stroke="black" points="105.53,-42.24 97.38,-35.47 99.53,-45.85 105.53,-42.24"/>
</g>
<!-- Const[2] -->
<g id="node5" class="node">
<title>Const[2]</title>
<polygon fill="none" stroke="black" points="173.5,-180 109.5,-180 109.5,-144 173.5,-144 173.5,-180"/>
<text text-anchor="middle" x="141.5" y="-158.3" font-family="Times,serif" font-size="14.00">Const[2]</text>
</g>
<!-- Const[2]&#45;&gt;Pow#3 -->
<g id="edge4" class="edge">
<title>Const[2]&#45;&gt;Pow#3</title>
<path fill="none" stroke="black" d="M138.53,-143.7C137.21,-135.98 135.62,-126.71 134.15,-118.11"/>
<polygon fill="black" stroke="black" points="137.57,-117.37 132.43,-108.1 130.67,-118.55 137.57,-117.37"/>
</g>
</g>
</svg>
