<?xml version="1.0" encoding="UTF-8" standalone="no"?>
<!DOCTYPE svg PUBLIC "-//W3C//DTD SVG 1.1//EN"
 "http://www.w3.org/Graphics/SVG/1.1/DTD/svg11.dtd">
<!-- Generated by graphviz version 2.43.0 (0)
 -->
<!-- Title: evaluate Pages: 1 -->
<svg width="647pt" height="548pt"
 viewBox="0.00 0.00 646.73 548.00" xmlns="http://www.w3.org/2000/svg" xmlns:xlink="http://www.w3.org/1999/xlink">
<g id="graph0" class="graph" transform="scale(1 1) rotate(0) translate(4 544)">
<title>evaluate</title>
<polygon fill="white" stroke="transparent" points="-4,4 -4,-544 642.73,-544 642.73,4 -4,4"/>
<!-- evaluate (#0) -->
<g id="node1" class="node">
<title>evaluate (#0)</title>
<ellipse fill="none" stroke="red" cx="432.35" cy="-18" rx="56.52" ry="18"/>
<text text-anchor="middle" x="432.35" y="-13.8" font-family="Times,serif" font-size="14.00">evaluate (#0)</text>
</g>
<!-- ?*var(3)*?*?+sin(?^var(2))^var(2)*var(10)+tan(?) (#1) -->
<g id="node2" class="node">
<title>?*var(3)*?*?+sin(?^var(2))^var(2)*var(10)+tan(?) (#1)</title>
<ellipse fill="none" stroke="red" cx="432.35" cy="-90" rx="206.25" ry="18"/>
<text text-anchor="middle" x="432.35" y="-85.8" font-family="Times,serif" font-size="14.00">?*var(3)*?*?+sin(?^var(2))^var(2)*var(10)+tan(?) (#1)</text>
</g>
<!-- ?*var(3)*?*?+sin(?^var(2))^var(2)*var(10)+tan(?) (#1)&#45;&gt;evaluate (#0) -->
<g id="edge19" class="edge">
<title>?*var(3)*?*?+sin(?^var(2))^var(2)*var(10)+tan(?) (#1)&#45;&gt;evaluate (#0)</title>
<path fill="none" stroke="red" d="M432.35,-71.7C432.35,-63.98 432.35,-54.71 432.35,-46.11"/>
<polygon fill="red" stroke="red" points="435.85,-46.1 432.35,-36.1 428.85,-46.1 435.85,-46.1"/>
</g>
<!-- ?*var(3)*?*?+sin(?^var(2))^var(2)*var(10) (#2) -->
<g id="node3" class="node">
<title>?*var(3)*?*?+sin(?^var(2))^var(2)*var(10) (#2)</title>
<ellipse fill="none" stroke="red" cx="307.35" cy="-162" rx="180.54" ry="18"/>
<text text-anchor="middle" x="307.35" y="-157.8" font-family="Times,serif" font-size="14.00">?*var(3)*?*?+sin(?^var(2))^var(2)*var(10) (#2)</text>
</g>
<!-- ?*var(3)*?*?+sin(?^var(2))^var(2)*var(10) (#2)&#45;&gt;?*var(3)*?*?+sin(?^var(2))^var(2)*var(10)+tan(?) (#1) -->
<g id="edge16" class="edge">
<title>?*var(3)*?*?+sin(?^var(2))^var(2)*var(10) (#2)&#45;&gt;?*var(3)*?*?+sin(?^var(2))^var(2)*var(10)+tan(?) (#1)</title>
<path fill="none" stroke="red" d="M337.29,-144.23C354.02,-134.86 375.07,-123.08 393.1,-112.98"/>
<polygon fill="red" stroke="red" points="395.2,-115.81 402.22,-107.87 391.78,-109.7 395.2,-115.81"/>
</g>
<!-- ?*var(3)*?*? (#3) -->
<g id="node4" class="node">
<title>?*var(3)*?*? (#3)</title>
<ellipse fill="none" stroke="red" cx="145.35" cy="-306" rx="73.89" ry="18"/>
<text text-anchor="middle" x="145.35" y="-301.8" font-family="Times,serif" font-size="14.00">?*var(3)*?*? (#3)</text>
</g>
<!-- ?*var(3)*?*? (#3)&#45;&gt;?*var(3)*?*?+sin(?^var(2))^var(2)*var(10) (#2) -->
<g id="edge7" class="edge">
<title>?*var(3)*?*? (#3)&#45;&gt;?*var(3)*?*?+sin(?^var(2))^var(2)*var(10) (#2)</title>
<path fill="none" stroke="red" d="M151.51,-287.89C159.31,-268.32 174.42,-236.35 196.35,-216 211.08,-202.33 229.98,-191.55 247.99,-183.38"/>
<polygon fill="red" stroke="red" points="249.52,-186.54 257.3,-179.35 246.73,-180.11 249.52,-186.54"/>
</g>
<!-- ?*var(3)*? (#4) -->
<g id="node5" class="node">
<title>?*var(3)*? (#4)</title>
<ellipse fill="none" stroke="red" cx="65.35" cy="-378" rx="65.2" ry="18"/>
<text text-anchor="middle" x="65.35" y="-373.8" font-family="Times,serif" font-size="14.00">?*var(3)*? (#4)</text>
</g>
<!-- ?*var(3)*? (#4)&#45;&gt;?*var(3)*?*? (#3) -->
<g id="edge5" class="edge">
<title>?*var(3)*? (#4)&#45;&gt;?*var(3)*?*? (#3)</title>
<path fill="none" stroke="red" d="M84.31,-360.41C94.67,-351.34 107.66,-339.97 119,-330.06"/>
<polygon fill="red" stroke="red" points="121.3,-332.69 126.53,-323.47 116.69,-327.42 121.3,-332.69"/>
</g>
<!-- ?*var(3) (#5) -->
<g id="node6" class="node">
<title>?*var(3) (#5)</title>
<ellipse fill="none" stroke="black" cx="65.35" cy="-450" rx="57" ry="18"/>
<text text-anchor="middle" x="65.35" y="-445.8" font-family="Times,serif" font-size="14.00">?*var(3) (#5)</text>
</g>
<!-- ?*var(3) (#5)&#45;&gt;?*var(3)*? (#4) -->
<g id="edge3" class="edge">
<title>?*var(3) (#5)&#45;&gt;?*var(3)*? (#4)</title>
<path fill="none" stroke="black" d="M65.35,-431.7C65.35,-423.98 65.35,-414.71 65.35,-406.11"/>
<polygon fill="black" stroke="black" points="68.85,-406.1 65.35,-396.1 61.85,-406.1 68.85,-406.1"/>
</g>
<!-- ? (#6) -->
<g id="node7" class="node">
<title>? (#6)</title>
<ellipse fill="none" stroke="black" cx="183.35" cy="-522" rx="30.95" ry="18"/>
<text text-anchor="middle" x="183.35" y="-517.8" font-family="Times,serif" font-size="14.00">? (#6)</text>
</g>
<!-- ? (#6)&#45;&gt;?*var(3) (#5) -->
<g id="edge1" class="edge">
<title>? (#6)&#45;&gt;?*var(3) (#5)</title>
<path fill="none" stroke="black" d="M162.52,-508.65C145.12,-498.32 119.94,-483.39 99.58,-471.31"/>
<polygon fill="black" stroke="black" points="101.28,-468.25 90.9,-466.16 97.71,-474.27 101.28,-468.25"/>
</g>
<!-- ?^var(2) (#13) -->
<g id="node14" class="node">
<title>?^var(2) (#13)</title>
<ellipse fill="none" stroke="black" cx="293.35" cy="-450" rx="61.3" ry="18"/>
<text text-anchor="middle" x="293.35" y="-445.8" font-family="Times,serif" font-size="14.00">?^var(2) (#13)</text>
</g>
<!-- ? (#6)&#45;&gt;?^var(2) (#13) -->
<g id="edge8" class="edge">
<title>? (#6)&#45;&gt;?^var(2) (#13)</title>
<path fill="none" stroke="black" d="M203.52,-508.16C219.3,-498.12 241.57,-483.95 259.99,-472.23"/>
<polygon fill="black" stroke="black" points="262.12,-475.02 268.68,-466.7 258.36,-469.11 262.12,-475.02"/>
</g>
<!-- var(3) (#7) -->
<g id="node8" class="node">
<title>var(3) (#7)</title>
<ellipse fill="none" stroke="black" cx="65.35" cy="-522" rx="48.81" ry="18"/>
<text text-anchor="middle" x="65.35" y="-517.8" font-family="Times,serif" font-size="14.00">var(3) (#7)</text>
</g>
<!-- var(3) (#7)&#45;&gt;?*var(3) (#5) -->
<g id="edge2" class="edge">
<title>var(3) (#7)&#45;&gt;?*var(3) (#5)</title>
<path fill="none" stroke="black" d="M65.35,-503.7C65.35,-495.98 65.35,-486.71 65.35,-478.11"/>
<polygon fill="black" stroke="black" points="68.85,-478.1 65.35,-468.1 61.85,-478.1 68.85,-478.1"/>
</g>
<!-- ? (#8) -->
<g id="node9" class="node">
<title>? (#8)</title>
<ellipse fill="none" stroke="red" cx="171.35" cy="-450" rx="30.95" ry="18"/>
<text text-anchor="middle" x="171.35" y="-445.8" font-family="Times,serif" font-size="14.00">? (#8)</text>
</g>
<!-- ? (#8)&#45;&gt;?*var(3)*? (#4) -->
<g id="edge4" class="edge">
<title>? (#8)&#45;&gt;?*var(3)*? (#4)</title>
<path fill="none" stroke="red" d="M151.41,-435.83C136.4,-425.92 115.49,-412.11 98.04,-400.59"/>
<polygon fill="red" stroke="red" points="99.55,-397.39 89.28,-394.8 95.7,-403.23 99.55,-397.39"/>
</g>
<!-- ? (#9) -->
<g id="node10" class="node">
<title>? (#9)</title>
<ellipse fill="none" stroke="black" cx="179.35" cy="-378" rx="30.95" ry="18"/>
<text text-anchor="middle" x="179.35" y="-373.8" font-family="Times,serif" font-size="14.00">? (#9)</text>
</g>
<!-- ? (#9)&#45;&gt;?*var(3)*?*? (#3) -->
<g id="edge6" class="edge">
<title>? (#9)&#45;&gt;?*var(3)*?*? (#3)</title>
<path fill="none" stroke="black" d="M171.29,-360.41C167.33,-352.25 162.46,-342.22 158.01,-333.07"/>
<polygon fill="black" stroke="black" points="161.1,-331.42 153.58,-323.96 154.8,-334.48 161.1,-331.42"/>
</g>
<!-- sin(?^var(2))^var(2)*var(10) (#10) -->
<g id="node11" class="node">
<title>sin(?^var(2))^var(2)*var(10) (#10)</title>
<ellipse fill="none" stroke="black" cx="339.35" cy="-234" rx="133.62" ry="18"/>
<text text-anchor="middle" x="339.35" y="-229.8" font-family="Times,serif" font-size="14.00">sin(?^var(2))^var(2)*var(10) (#10)</text>
</g>
<!-- sin(?^var(2))^var(2)*var(10) (#10)&#45;&gt;?*var(3)*?*?+sin(?^var(2))^var(2)*var(10) (#2) -->
<g id="edge15" class="edge">
<title>sin(?^var(2))^var(2)*var(10) (#10)&#45;&gt;?*var(3)*?*?+sin(?^var(2))^var(2)*var(10) (#2)</title>
<path fill="none" stroke="black" d="M331.44,-215.7C327.8,-207.73 323.39,-198.1 319.35,-189.26"/>
<polygon fill="black" stroke="black" points="322.51,-187.74 315.17,-180.1 316.14,-190.65 322.51,-187.74"/>
</g>
<!-- sin(?^var(2))^var(2) (#11) -->
<g id="node12" class="node">
<title>sin(?^var(2))^var(2) (#11)</title>
<ellipse fill="none" stroke="black" cx="339.35" cy="-306" rx="102.58" ry="18"/>
<text text-anchor="middle" x="339.35" y="-301.8" font-family="Times,serif" font-size="14.00">sin(?^var(2))^var(2) (#11)</text>
</g>
<!-- sin(?^var(2))^var(2) (#11)&#45;&gt;sin(?^var(2))^var(2)*var(10) (#10) -->
<g id="edge13" class="edge">
<title>sin(?^var(2))^var(2) (#11)&#45;&gt;sin(?^var(2))^var(2)*var(10) (#10)</title>
<path fill="none" stroke="black" d="M339.35,-287.7C339.35,-279.98 339.35,-270.71 339.35,-262.11"/>
<polygon fill="black" stroke="black" points="342.85,-262.1 339.35,-252.1 335.85,-262.1 342.85,-262.1"/>
</g>
<!-- sin(?^var(2)) (#12) -->
<g id="node13" class="node">
<title>sin(?^var(2)) (#12)</title>
<ellipse fill="none" stroke="black" cx="305.35" cy="-378" rx="77.22" ry="18"/>
<text text-anchor="middle" x="305.35" y="-373.8" font-family="Times,serif" font-size="14.00">sin(?^var(2)) (#12)</text>
</g>
<!-- sin(?^var(2)) (#12)&#45;&gt;sin(?^var(2))^var(2) (#11) -->
<g id="edge11" class="edge">
<title>sin(?^var(2)) (#12)&#45;&gt;sin(?^var(2))^var(2) (#11)</title>
<path fill="none" stroke="black" d="M313.58,-360.05C317.45,-352.09 322.15,-342.41 326.47,-333.51"/>
<polygon fill="black" stroke="black" points="329.74,-334.8 330.96,-324.28 323.44,-331.74 329.74,-334.8"/>
</g>
<!-- ?^var(2) (#13)&#45;&gt;sin(?^var(2)) (#12) -->
<g id="edge10" class="edge">
<title>?^var(2) (#13)&#45;&gt;sin(?^var(2)) (#12)</title>
<path fill="none" stroke="black" d="M296.31,-431.7C297.64,-423.98 299.23,-414.71 300.7,-406.11"/>
<polygon fill="black" stroke="black" points="304.18,-406.55 302.42,-396.1 297.28,-405.37 304.18,-406.55"/>
</g>
<!-- var(2) (#15) -->
<g id="node15" class="node">
<title>var(2) (#15)</title>
<ellipse fill="none" stroke="black" cx="293.35" cy="-522" rx="53.15" ry="18"/>
<text text-anchor="middle" x="293.35" y="-517.8" font-family="Times,serif" font-size="14.00">var(2) (#15)</text>
</g>
<!-- var(2) (#15)&#45;&gt;?^var(2) (#13) -->
<g id="edge9" class="edge">
<title>var(2) (#15)&#45;&gt;?^var(2) (#13)</title>
<path fill="none" stroke="black" d="M293.35,-503.7C293.35,-495.98 293.35,-486.71 293.35,-478.11"/>
<polygon fill="black" stroke="black" points="296.85,-478.1 293.35,-468.1 289.85,-478.1 296.85,-478.1"/>
</g>
<!-- var(2) (#16) -->
<g id="node16" class="node">
<title>var(2) (#16)</title>
<ellipse fill="none" stroke="black" cx="453.35" cy="-378" rx="53.15" ry="18"/>
<text text-anchor="middle" x="453.35" y="-373.8" font-family="Times,serif" font-size="14.00">var(2) (#16)</text>
</g>
<!-- var(2) (#16)&#45;&gt;sin(?^var(2))^var(2) (#11) -->
<g id="edge12" class="edge">
<title>var(2) (#16)&#45;&gt;sin(?^var(2))^var(2) (#11)</title>
<path fill="none" stroke="black" d="M428.89,-361.98C413.18,-352.34 392.51,-339.64 374.99,-328.88"/>
<polygon fill="black" stroke="black" points="376.51,-325.71 366.15,-323.46 372.84,-331.67 376.51,-325.71"/>
</g>
<!-- var(10) (#17) -->
<g id="node17" class="node">
<title>var(10) (#17)</title>
<ellipse fill="none" stroke="black" cx="517.35" cy="-306" rx="57.5" ry="18"/>
<text text-anchor="middle" x="517.35" y="-301.8" font-family="Times,serif" font-size="14.00">var(10) (#17)</text>
</g>
<!-- var(10) (#17)&#45;&gt;sin(?^var(2))^var(2)*var(10) (#10) -->
<g id="edge14" class="edge">
<title>var(10) (#17)&#45;&gt;sin(?^var(2))^var(2)*var(10) (#10)</title>
<path fill="none" stroke="black" d="M483.03,-291.5C456.59,-281.11 419.65,-266.58 389.84,-254.86"/>
<polygon fill="black" stroke="black" points="391.02,-251.56 380.44,-251.16 388.46,-258.08 391.02,-251.56"/>
</g>
<!-- tan(?) (#18) -->
<g id="node18" class="node">
<title>tan(?) (#18)</title>
<ellipse fill="none" stroke="black" cx="558.35" cy="-162" rx="52.18" ry="18"/>
<text text-anchor="middle" x="558.35" y="-157.8" font-family="Times,serif" font-size="14.00">tan(?) (#18)</text>
</g>
<!-- tan(?) (#18)&#45;&gt;?*var(3)*?*?+sin(?^var(2))^var(2)*var(10)+tan(?) (#1) -->
<g id="edge18" class="edge">
<title>tan(?) (#18)&#45;&gt;?*var(3)*?*?+sin(?^var(2))^var(2)*var(10)+tan(?) (#1)</title>
<path fill="none" stroke="black" d="M531.93,-146.33C514.49,-136.64 491.32,-123.76 471.72,-112.87"/>
<polygon fill="black" stroke="black" points="473.16,-109.67 462.71,-107.87 469.76,-115.79 473.16,-109.67"/>
</g>
<!-- ? (#19) -->
<g id="node19" class="node">
<title>? (#19)</title>
<ellipse fill="none" stroke="black" cx="558.35" cy="-234" rx="35.3" ry="18"/>
<text text-anchor="middle" x="558.35" y="-229.8" font-family="Times,serif" font-size="14.00">? (#19)</text>
</g>
<!-- ? (#19)&#45;&gt;tan(?) (#18) -->
<g id="edge17" class="edge">
<title>? (#19)&#45;&gt;tan(?) (#18)</title>
<path fill="none" stroke="black" d="M558.35,-215.7C558.35,-207.98 558.35,-198.71 558.35,-190.11"/>
<polygon fill="black" stroke="black" points="561.85,-190.1 558.35,-180.1 554.85,-190.1 561.85,-190.1"/>
</g>
</g>
</svg>
