<?xml version="1.0" encoding="UTF-8" standalone="no"?>
<!DOCTYPE svg PUBLIC "-//W3C//DTD SVG 1.1//EN"
 "http://www.w3.org/Graphics/SVG/1.1/DTD/svg11.dtd">
<!-- Generated by graphviz version 2.43.0 (0)
 -->
<!-- Title: ?+var(2)%var(4) Pages: 1 -->
<svg width="261pt" height="188pt"
 viewBox="0.00 0.00 260.63 188.00" xmlns="http://www.w3.org/2000/svg" xmlns:xlink="http://www.w3.org/1999/xlink">
<g id="graph0" class="graph" transform="scale(1 1) rotate(0) translate(4 184)">
<title>?+var(2)%var(4)</title>
<polygon fill="white" stroke="transparent" points="-4,4 -4,-184 256.63,-184 256.63,4 -4,4"/>
<!-- ?+var(2)%var(4) (#0) -->
<g id="node1" class="node">
<title>?+var(2)%var(4) (#0)</title>
<ellipse fill="none" stroke="red" cx="141.98" cy="-18" rx="86.57" ry="18"/>
<text text-anchor="middle" x="141.98" y="-13.8" font-family="Times,serif" font-size="14.00">?+var(2)%var(4) (#0)</text>
</g>
<!-- ?+var(2) (#1) -->
<g id="node2" class="node">
<title>?+var(2) (#1)</title>
<ellipse fill="none" stroke="red" cx="79.98" cy="-90" rx="57.63" ry="18"/>
<text text-anchor="middle" x="79.98" y="-85.8" font-family="Times,serif" font-size="14.00">?+var(2) (#1)</text>
</g>
<!-- ?+var(2) (#1)&#45;&gt;?+var(2)%var(4) (#0) -->
<g id="edge3" class="edge">
<title>?+var(2) (#1)&#45;&gt;?+var(2)%var(4) (#0)</title>
<path fill="none" stroke="red" d="M94.67,-72.41C102.28,-63.82 111.72,-53.16 120.16,-43.63"/>
<polygon fill="red" stroke="red" points="122.95,-45.76 126.96,-35.96 117.71,-41.12 122.95,-45.76"/>
</g>
<!-- ? (#2) -->
<g id="node3" class="node">
<title>? (#2)</title>
<ellipse fill="none" stroke="red" cx="30.98" cy="-162" rx="30.95" ry="18"/>
<text text-anchor="middle" x="30.98" y="-157.8" font-family="Times,serif" font-size="14.00">? (#2)</text>
</g>
<!-- ? (#2)&#45;&gt;?+var(2) (#1) -->
<g id="edge1" class="edge">
<title>? (#2)&#45;&gt;?+var(2) (#1)</title>
<path fill="none" stroke="red" d="M42.1,-145.12C48.06,-136.59 55.56,-125.89 62.3,-116.25"/>
<polygon fill="red" stroke="red" points="65.35,-118 68.22,-107.8 59.62,-113.98 65.35,-118"/>
</g>
<!-- var(2) (#3) -->
<g id="node4" class="node">
<title>var(2) (#3)</title>
<ellipse fill="none" stroke="black" cx="128.98" cy="-162" rx="48.81" ry="18"/>
<text text-anchor="middle" x="128.98" y="-157.8" font-family="Times,serif" font-size="14.00">var(2) (#3)</text>
</g>
<!-- var(2) (#3)&#45;&gt;?+var(2) (#1) -->
<g id="edge2" class="edge">
<title>var(2) (#3)&#45;&gt;?+var(2) (#1)</title>
<path fill="none" stroke="black" d="M117.36,-144.41C111.47,-135.99 104.19,-125.58 97.62,-116.2"/>
<polygon fill="black" stroke="black" points="100.45,-114.14 91.85,-107.96 94.71,-118.16 100.45,-114.14"/>
</g>
<!-- var(4) (#4) -->
<g id="node5" class="node">
<title>var(4) (#4)</title>
<ellipse fill="none" stroke="black" cx="203.98" cy="-90" rx="48.81" ry="18"/>
<text text-anchor="middle" x="203.98" y="-85.8" font-family="Times,serif" font-size="14.00">var(4) (#4)</text>
</g>
<!-- var(4) (#4)&#45;&gt;?+var(2)%var(4) (#0) -->
<g id="edge4" class="edge">
<title>var(4) (#4)&#45;&gt;?+var(2)%var(4) (#0)</title>
<path fill="none" stroke="black" d="M189.6,-72.76C181.99,-64.18 172.5,-53.46 163.99,-43.86"/>
<polygon fill="black" stroke="black" points="166.39,-41.29 157.14,-36.12 161.15,-45.93 166.39,-41.29"/>
</g>
</g>
</svg>
