<?xml version="1.0" encoding="UTF-8" standalone="no"?>
<!DOCTYPE svg PUBLIC "-//W3C//DTD SVG 1.1//EN"
 "http://www.w3.org/Graphics/SVG/1.1/DTD/svg11.dtd">
<!-- Generated by graphviz version 2.43.0 (0)
 -->
<!-- Title: sin(a+cos(?+cos(?+cos(?))))*||anon||*anon2 Pages: 1 -->
<svg width="530pt" height="692pt"
 viewBox="0.00 0.00 529.65 692.00" xmlns="http://www.w3.org/2000/svg" xmlns:xlink="http://www.w3.org/1999/xlink">
<g id="graph0" class="graph" transform="scale(1 1) rotate(0) translate(4 688)">
<title>sin(a+cos(?+cos(?+cos(?))))*||anon||*anon2</title>
<polygon fill="white" stroke="transparent" points="-4,4 -4,-688 525.65,-688 525.65,4 -4,4"/>
<!-- sin(a+cos(?+cos(?+cos(?))))*||anon||*anon2 (#0) -->
<g id="node1" class="node">
<title>sin(a+cos(?+cos(?+cos(?))))*||anon||*anon2 (#0)</title>
<ellipse fill="none" stroke="red" cx="339.96" cy="-18" rx="181.87" ry="18"/>
<text text-anchor="middle" x="339.96" y="-13.8" font-family="Times,serif" font-size="14.00">sin(a+cos(?+cos(?+cos(?))))*||anon||*anon2 (#0)</text>
</g>
<!-- sin(a+cos(?+cos(?+cos(?))))*||anon|| (#1) -->
<g id="node2" class="node">
<title>sin(a+cos(?+cos(?+cos(?))))*||anon|| (#1)</title>
<ellipse fill="none" stroke="red" cx="226.96" cy="-90" rx="155.81" ry="18"/>
<text text-anchor="middle" x="226.96" y="-85.8" font-family="Times,serif" font-size="14.00">sin(a+cos(?+cos(?+cos(?))))*||anon|| (#1)</text>
</g>
<!-- sin(a+cos(?+cos(?+cos(?))))*||anon|| (#1)&#45;&gt;sin(a+cos(?+cos(?+cos(?))))*||anon||*anon2 (#0) -->
<g id="edge14" class="edge">
<title>sin(a+cos(?+cos(?+cos(?))))*||anon|| (#1)&#45;&gt;sin(a+cos(?+cos(?+cos(?))))*||anon||*anon2 (#0)</title>
<path fill="none" stroke="red" d="M254.03,-72.23C269.01,-62.95 287.83,-51.29 304.03,-41.26"/>
<polygon fill="red" stroke="red" points="306.06,-44.11 312.72,-35.87 302.38,-38.16 306.06,-44.11"/>
</g>
<!-- sin(a+cos(?+cos(?+cos(?)))) (#2) -->
<g id="node3" class="node">
<title>sin(a+cos(?+cos(?+cos(?)))) (#2)</title>
<ellipse fill="none" stroke="red" cx="126.96" cy="-162" rx="126.92" ry="18"/>
<text text-anchor="middle" x="126.96" y="-157.8" font-family="Times,serif" font-size="14.00">sin(a+cos(?+cos(?+cos(?)))) (#2)</text>
</g>
<!-- sin(a+cos(?+cos(?+cos(?)))) (#2)&#45;&gt;sin(a+cos(?+cos(?+cos(?))))*||anon|| (#1) -->
<g id="edge11" class="edge">
<title>sin(a+cos(?+cos(?+cos(?)))) (#2)&#45;&gt;sin(a+cos(?+cos(?+cos(?))))*||anon|| (#1)</title>
<path fill="none" stroke="red" d="M150.91,-144.23C163.93,-135.12 180.21,-123.72 194.36,-113.82"/>
<polygon fill="red" stroke="red" points="196.67,-116.47 202.86,-107.87 192.66,-110.74 196.67,-116.47"/>
</g>
<!-- a+cos(?+cos(?+cos(?))) (#3) -->
<g id="node4" class="node">
<title>a+cos(?+cos(?+cos(?))) (#3)</title>
<ellipse fill="none" stroke="red" cx="126.96" cy="-234" rx="111" ry="18"/>
<text text-anchor="middle" x="126.96" y="-229.8" font-family="Times,serif" font-size="14.00">a+cos(?+cos(?+cos(?))) (#3)</text>
</g>
<!-- a+cos(?+cos(?+cos(?))) (#3)&#45;&gt;sin(a+cos(?+cos(?+cos(?)))) (#2) -->
<g id="edge10" class="edge">
<title>a+cos(?+cos(?+cos(?))) (#3)&#45;&gt;sin(a+cos(?+cos(?+cos(?)))) (#2)</title>
<path fill="none" stroke="red" d="M126.96,-215.7C126.96,-207.98 126.96,-198.71 126.96,-190.11"/>
<polygon fill="red" stroke="red" points="130.46,-190.1 126.96,-180.1 123.46,-190.1 130.46,-190.1"/>
</g>
<!-- a (#4) -->
<g id="node5" class="node">
<title>a (#4)</title>
<ellipse fill="none" stroke="red" cx="51.96" cy="-306" rx="30.95" ry="18"/>
<text text-anchor="middle" x="51.96" y="-301.8" font-family="Times,serif" font-size="14.00">a (#4)</text>
</g>
<!-- a (#4)&#45;&gt;a+cos(?+cos(?+cos(?))) (#3) -->
<g id="edge1" class="edge">
<title>a (#4)&#45;&gt;a+cos(?+cos(?+cos(?))) (#3)</title>
<path fill="none" stroke="red" d="M67.86,-290.15C77.65,-281.02 90.4,-269.12 101.56,-258.71"/>
<polygon fill="red" stroke="red" points="104.05,-261.17 108.97,-251.79 99.27,-256.05 104.05,-261.17"/>
</g>
<!-- cos(?+cos(?+cos(?))) (#5) -->
<g id="node6" class="node">
<title>cos(?+cos(?+cos(?))) (#5)</title>
<ellipse fill="none" stroke="red" cx="202.96" cy="-306" rx="101.67" ry="18"/>
<text text-anchor="middle" x="202.96" y="-301.8" font-family="Times,serif" font-size="14.00">cos(?+cos(?+cos(?))) (#5)</text>
</g>
<!-- cos(?+cos(?+cos(?))) (#5)&#45;&gt;a+cos(?+cos(?+cos(?))) (#3) -->
<g id="edge9" class="edge">
<title>cos(?+cos(?+cos(?))) (#5)&#45;&gt;a+cos(?+cos(?+cos(?))) (#3)</title>
<path fill="none" stroke="red" d="M184.56,-288.05C175.04,-279.28 163.26,-268.43 152.83,-258.83"/>
<polygon fill="red" stroke="red" points="154.91,-255.99 145.19,-251.79 150.17,-261.14 154.91,-255.99"/>
</g>
<!-- ?+cos(?+cos(?)) (#6) -->
<g id="node7" class="node">
<title>?+cos(?+cos(?)) (#6)</title>
<ellipse fill="none" stroke="red" cx="202.96" cy="-378" rx="84.32" ry="18"/>
<text text-anchor="middle" x="202.96" y="-373.8" font-family="Times,serif" font-size="14.00">?+cos(?+cos(?)) (#6)</text>
</g>
<!-- ?+cos(?+cos(?)) (#6)&#45;&gt;cos(?+cos(?+cos(?))) (#5) -->
<g id="edge8" class="edge">
<title>?+cos(?+cos(?)) (#6)&#45;&gt;cos(?+cos(?+cos(?))) (#5)</title>
<path fill="none" stroke="red" d="M202.96,-359.7C202.96,-351.98 202.96,-342.71 202.96,-334.11"/>
<polygon fill="red" stroke="red" points="206.46,-334.1 202.96,-324.1 199.46,-334.1 206.46,-334.1"/>
</g>
<!-- ? (#7) -->
<g id="node8" class="node">
<title>? (#7)</title>
<ellipse fill="none" stroke="red" cx="140.96" cy="-450" rx="30.95" ry="18"/>
<text text-anchor="middle" x="140.96" y="-445.8" font-family="Times,serif" font-size="14.00">? (#7)</text>
</g>
<!-- ? (#7)&#45;&gt;?+cos(?+cos(?)) (#6) -->
<g id="edge2" class="edge">
<title>? (#7)&#45;&gt;?+cos(?+cos(?)) (#6)</title>
<path fill="none" stroke="red" d="M154.72,-433.46C162.49,-424.69 172.38,-413.53 181.17,-403.6"/>
<polygon fill="red" stroke="red" points="183.93,-405.77 187.94,-395.96 178.69,-401.13 183.93,-405.77"/>
</g>
<!-- cos(?+cos(?)) (#8) -->
<g id="node9" class="node">
<title>cos(?+cos(?)) (#8)</title>
<ellipse fill="none" stroke="red" cx="264.96" cy="-450" rx="75.49" ry="18"/>
<text text-anchor="middle" x="264.96" y="-445.8" font-family="Times,serif" font-size="14.00">cos(?+cos(?)) (#8)</text>
</g>
<!-- cos(?+cos(?)) (#8)&#45;&gt;?+cos(?+cos(?)) (#6) -->
<g id="edge7" class="edge">
<title>cos(?+cos(?)) (#8)&#45;&gt;?+cos(?+cos(?)) (#6)</title>
<path fill="none" stroke="red" d="M249.95,-432.05C242.33,-423.46 232.95,-412.86 224.57,-403.4"/>
<polygon fill="red" stroke="red" points="227.08,-400.95 217.83,-395.79 221.84,-405.6 227.08,-400.95"/>
</g>
<!-- ?+cos(?) (#9) -->
<g id="node10" class="node">
<title>?+cos(?) (#9)</title>
<ellipse fill="none" stroke="red" cx="264.96" cy="-522" rx="57.63" ry="18"/>
<text text-anchor="middle" x="264.96" y="-517.8" font-family="Times,serif" font-size="14.00">?+cos(?) (#9)</text>
</g>
<!-- ?+cos(?) (#9)&#45;&gt;cos(?+cos(?)) (#8) -->
<g id="edge6" class="edge">
<title>?+cos(?) (#9)&#45;&gt;cos(?+cos(?)) (#8)</title>
<path fill="none" stroke="red" d="M264.96,-503.7C264.96,-495.98 264.96,-486.71 264.96,-478.11"/>
<polygon fill="red" stroke="red" points="268.46,-478.1 264.96,-468.1 261.46,-478.1 268.46,-478.1"/>
</g>
<!-- ? (#10) -->
<g id="node11" class="node">
<title>? (#10)</title>
<ellipse fill="none" stroke="red" cx="211.96" cy="-594" rx="35.3" ry="18"/>
<text text-anchor="middle" x="211.96" y="-589.8" font-family="Times,serif" font-size="14.00">? (#10)</text>
</g>
<!-- ? (#10)&#45;&gt;?+cos(?) (#9) -->
<g id="edge3" class="edge">
<title>? (#10)&#45;&gt;?+cos(?) (#9)</title>
<path fill="none" stroke="red" d="M224.25,-576.76C230.78,-568.14 238.94,-557.36 246.24,-547.73"/>
<polygon fill="red" stroke="red" points="249.12,-549.72 252.37,-539.63 243.54,-545.49 249.12,-549.72"/>
</g>
<!-- cos(?) (#11) -->
<g id="node12" class="node">
<title>cos(?) (#11)</title>
<ellipse fill="none" stroke="red" cx="317.96" cy="-594" rx="52.51" ry="18"/>
<text text-anchor="middle" x="317.96" y="-589.8" font-family="Times,serif" font-size="14.00">cos(?) (#11)</text>
</g>
<!-- cos(?) (#11)&#45;&gt;?+cos(?) (#9) -->
<g id="edge5" class="edge">
<title>cos(?) (#11)&#45;&gt;?+cos(?) (#9)</title>
<path fill="none" stroke="red" d="M305.4,-576.41C299.02,-567.99 291.14,-557.58 284.04,-548.2"/>
<polygon fill="red" stroke="red" points="286.62,-545.82 277.8,-539.96 281.04,-550.04 286.62,-545.82"/>
</g>
<!-- ? (#12) -->
<g id="node13" class="node">
<title>? (#12)</title>
<ellipse fill="none" stroke="red" cx="317.96" cy="-666" rx="35.3" ry="18"/>
<text text-anchor="middle" x="317.96" y="-661.8" font-family="Times,serif" font-size="14.00">? (#12)</text>
</g>
<!-- ? (#12)&#45;&gt;cos(?) (#11) -->
<g id="edge4" class="edge">
<title>? (#12)&#45;&gt;cos(?) (#11)</title>
<path fill="none" stroke="red" d="M317.96,-647.7C317.96,-639.98 317.96,-630.71 317.96,-622.11"/>
<polygon fill="red" stroke="red" points="321.46,-622.1 317.96,-612.1 314.46,-622.1 321.46,-622.1"/>
</g>
<!-- ||anon|| (#13) -->
<g id="node14" class="node">
<title>||anon|| (#13)</title>
<ellipse fill="none" stroke="black" cx="327.96" cy="-162" rx="55.99" ry="18"/>
<text text-anchor="middle" x="327.96" y="-157.8" font-family="Times,serif" font-size="14.00">||anon|| (#13)</text>
</g>
<!-- ||anon|| (#13)&#45;&gt;sin(a+cos(?+cos(?+cos(?))))*||anon|| (#1) -->
<g id="edge13" class="edge">
<title>||anon|| (#13)&#45;&gt;sin(a+cos(?+cos(?+cos(?))))*||anon|| (#1)</title>
<path fill="none" stroke="black" d="M305.54,-145.46C292.14,-136.17 274.85,-124.19 259.91,-113.84"/>
<polygon fill="black" stroke="black" points="261.65,-110.78 251.43,-107.96 257.66,-116.53 261.65,-110.78"/>
</g>
<!-- anon (#14) -->
<g id="node15" class="node">
<title>anon (#14)</title>
<ellipse fill="none" stroke="black" cx="327.96" cy="-234" rx="48.83" ry="18"/>
<text text-anchor="middle" x="327.96" y="-229.8" font-family="Times,serif" font-size="14.00">anon (#14)</text>
</g>
<!-- anon (#14)&#45;&gt;||anon|| (#13) -->
<g id="edge12" class="edge">
<title>anon (#14)&#45;&gt;||anon|| (#13)</title>
<path fill="none" stroke="black" d="M327.96,-215.7C327.96,-207.98 327.96,-198.71 327.96,-190.11"/>
<polygon fill="black" stroke="black" points="331.46,-190.1 327.96,-180.1 324.46,-190.1 331.46,-190.1"/>
</g>
<!-- anon2 (#15) -->
<g id="node16" class="node">
<title>anon2 (#15)</title>
<ellipse fill="none" stroke="black" cx="453.96" cy="-90" rx="53.17" ry="18"/>
<text text-anchor="middle" x="453.96" y="-85.8" font-family="Times,serif" font-size="14.00">anon2 (#15)</text>
</g>
<!-- anon2 (#15)&#45;&gt;sin(a+cos(?+cos(?+cos(?))))*||anon||*anon2 (#0) -->
<g id="edge15" class="edge">
<title>anon2 (#15)&#45;&gt;sin(a+cos(?+cos(?+cos(?))))*||anon||*anon2 (#0)</title>
<path fill="none" stroke="black" d="M429.5,-73.98C414.01,-64.47 393.71,-52 376.35,-41.34"/>
<polygon fill="black" stroke="black" points="377.93,-38.21 367.58,-35.96 374.27,-44.17 377.93,-38.21"/>
</g>
</g>
</svg>
