<?xml version="1.0" encoding="UTF-8" standalone="no"?>
<!DOCTYPE svg PUBLIC "-//W3C//DTD SVG 1.1//EN"
 "http://www.w3.org/Graphics/SVG/1.1/DTD/svg11.dtd">
<!-- Generated by graphviz version 2.43.0 (0)
 -->
<!-- Title: sin(a+cos(?))*||anon||*anon2 Pages: 1 -->
<svg width="377pt" height="404pt"
 viewBox="0.00 0.00 376.64 404.00" xmlns="http://www.w3.org/2000/svg" xmlns:xlink="http://www.w3.org/1999/xlink">
<g id="graph0" class="graph" transform="scale(1 1) rotate(0) translate(4 400)">
<title>sin(a+cos(?))*||anon||*anon2</title>
<polygon fill="white" stroke="transparent" points="-4,4 -4,-400 372.64,-400 372.64,4 -4,4"/>
<!-- sin(a+cos(?))*||anon||*anon2 (#0) -->
<g id="node1" class="node">
<title>sin(a+cos(?))*||anon||*anon2 (#0)</title>
<ellipse fill="none" stroke="red" cx="234.98" cy="-18" rx="128.51" ry="18"/>
<text text-anchor="middle" x="234.98" y="-13.8" font-family="Times,serif" font-size="14.00">sin(a+cos(?))*||anon||*anon2 (#0)</text>
</g>
<!-- sin(a+cos(?))*||anon|| (#1) -->
<g id="node2" class="node">
<title>sin(a+cos(?))*||anon|| (#1)</title>
<ellipse fill="none" stroke="red" cx="150.98" cy="-90" rx="102.44" ry="18"/>
<text text-anchor="middle" x="150.98" y="-85.8" font-family="Times,serif" font-size="14.00">sin(a+cos(?))*||anon|| (#1)</text>
</g>
<!-- sin(a+cos(?))*||anon|| (#1)&#45;&gt;sin(a+cos(?))*||anon||*anon2 (#0) -->
<g id="edge8" class="edge">
<title>sin(a+cos(?))*||anon|| (#1)&#45;&gt;sin(a+cos(?))*||anon||*anon2 (#0)</title>
<path fill="none" stroke="red" d="M171.31,-72.05C182.04,-63.11 195.37,-52.01 207.05,-42.27"/>
<polygon fill="red" stroke="red" points="209.39,-44.88 214.83,-35.79 204.91,-39.5 209.39,-44.88"/>
</g>
<!-- sin(a+cos(?)) (#2) -->
<g id="node3" class="node">
<title>sin(a+cos(?)) (#2)</title>
<ellipse fill="none" stroke="red" cx="79.98" cy="-162" rx="73.56" ry="18"/>
<text text-anchor="middle" x="79.98" y="-157.8" font-family="Times,serif" font-size="14.00">sin(a+cos(?)) (#2)</text>
</g>
<!-- sin(a+cos(?)) (#2)&#45;&gt;sin(a+cos(?))*||anon|| (#1) -->
<g id="edge5" class="edge">
<title>sin(a+cos(?)) (#2)&#45;&gt;sin(a+cos(?))*||anon|| (#1)</title>
<path fill="none" stroke="red" d="M96.8,-144.41C105.69,-135.65 116.76,-124.73 126.58,-115.06"/>
<polygon fill="red" stroke="red" points="129.11,-117.47 133.78,-107.96 124.2,-112.48 129.11,-117.47"/>
</g>
<!-- a+cos(?) (#3) -->
<g id="node4" class="node">
<title>a+cos(?) (#3)</title>
<ellipse fill="none" stroke="red" cx="79.98" cy="-234" rx="57.63" ry="18"/>
<text text-anchor="middle" x="79.98" y="-229.8" font-family="Times,serif" font-size="14.00">a+cos(?) (#3)</text>
</g>
<!-- a+cos(?) (#3)&#45;&gt;sin(a+cos(?)) (#2) -->
<g id="edge4" class="edge">
<title>a+cos(?) (#3)&#45;&gt;sin(a+cos(?)) (#2)</title>
<path fill="none" stroke="red" d="M79.98,-215.7C79.98,-207.98 79.98,-198.71 79.98,-190.11"/>
<polygon fill="red" stroke="red" points="83.48,-190.1 79.98,-180.1 76.48,-190.1 83.48,-190.1"/>
</g>
<!-- a (#4) -->
<g id="node5" class="node">
<title>a (#4)</title>
<ellipse fill="none" stroke="red" cx="30.98" cy="-306" rx="30.95" ry="18"/>
<text text-anchor="middle" x="30.98" y="-301.8" font-family="Times,serif" font-size="14.00">a (#4)</text>
</g>
<!-- a (#4)&#45;&gt;a+cos(?) (#3) -->
<g id="edge1" class="edge">
<title>a (#4)&#45;&gt;a+cos(?) (#3)</title>
<path fill="none" stroke="red" d="M42.1,-289.12C48.06,-280.59 55.56,-269.89 62.3,-260.25"/>
<polygon fill="red" stroke="red" points="65.35,-262 68.22,-251.8 59.62,-257.98 65.35,-262"/>
</g>
<!-- cos(?) (#5) -->
<g id="node6" class="node">
<title>cos(?) (#5)</title>
<ellipse fill="none" stroke="black" cx="128.98" cy="-306" rx="48.81" ry="18"/>
<text text-anchor="middle" x="128.98" y="-301.8" font-family="Times,serif" font-size="14.00">cos(?) (#5)</text>
</g>
<!-- cos(?) (#5)&#45;&gt;a+cos(?) (#3) -->
<g id="edge3" class="edge">
<title>cos(?) (#5)&#45;&gt;a+cos(?) (#3)</title>
<path fill="none" stroke="black" d="M117.36,-288.41C111.47,-279.99 104.19,-269.58 97.62,-260.2"/>
<polygon fill="black" stroke="black" points="100.45,-258.14 91.85,-251.96 94.71,-262.16 100.45,-258.14"/>
</g>
<!-- ? (#6) -->
<g id="node7" class="node">
<title>? (#6)</title>
<ellipse fill="none" stroke="black" cx="128.98" cy="-378" rx="30.95" ry="18"/>
<text text-anchor="middle" x="128.98" y="-373.8" font-family="Times,serif" font-size="14.00">? (#6)</text>
</g>
<!-- ? (#6)&#45;&gt;cos(?) (#5) -->
<g id="edge2" class="edge">
<title>? (#6)&#45;&gt;cos(?) (#5)</title>
<path fill="none" stroke="black" d="M128.98,-359.7C128.98,-351.98 128.98,-342.71 128.98,-334.11"/>
<polygon fill="black" stroke="black" points="132.48,-334.1 128.98,-324.1 125.48,-334.1 132.48,-334.1"/>
</g>
<!-- ||anon|| (#7) -->
<g id="node8" class="node">
<title>||anon|| (#7)</title>
<ellipse fill="none" stroke="black" cx="222.98" cy="-162" rx="51.15" ry="18"/>
<text text-anchor="middle" x="222.98" y="-157.8" font-family="Times,serif" font-size="14.00">||anon|| (#7)</text>
</g>
<!-- ||anon|| (#7)&#45;&gt;sin(a+cos(?))*||anon|| (#1) -->
<g id="edge7" class="edge">
<title>||anon|| (#7)&#45;&gt;sin(a+cos(?))*||anon|| (#1)</title>
<path fill="none" stroke="black" d="M206.28,-144.76C197.27,-136.01 185.98,-125.03 175.95,-115.28"/>
<polygon fill="black" stroke="black" points="178.2,-112.59 168.59,-108.12 173.32,-117.6 178.2,-112.59"/>
</g>
<!-- anon (#8) -->
<g id="node9" class="node">
<title>anon (#8)</title>
<ellipse fill="none" stroke="black" cx="222.98" cy="-234" rx="44.48" ry="18"/>
<text text-anchor="middle" x="222.98" y="-229.8" font-family="Times,serif" font-size="14.00">anon (#8)</text>
</g>
<!-- anon (#8)&#45;&gt;||anon|| (#7) -->
<g id="edge6" class="edge">
<title>anon (#8)&#45;&gt;||anon|| (#7)</title>
<path fill="none" stroke="black" d="M222.98,-215.7C222.98,-207.98 222.98,-198.71 222.98,-190.11"/>
<polygon fill="black" stroke="black" points="226.48,-190.1 222.98,-180.1 219.48,-190.1 226.48,-190.1"/>
</g>
<!-- anon2 (#9) -->
<g id="node10" class="node">
<title>anon2 (#9)</title>
<ellipse fill="none" stroke="black" cx="319.98" cy="-90" rx="48.83" ry="18"/>
<text text-anchor="middle" x="319.98" y="-85.8" font-family="Times,serif" font-size="14.00">anon2 (#9)</text>
</g>
<!-- anon2 (#9)&#45;&gt;sin(a+cos(?))*||anon||*anon2 (#0) -->
<g id="edge9" class="edge">
<title>anon2 (#9)&#45;&gt;sin(a+cos(?))*||anon||*anon2 (#0)</title>
<path fill="none" stroke="black" d="M300.69,-73.12C289.6,-63.98 275.47,-52.35 263.15,-42.2"/>
<polygon fill="black" stroke="black" points="265.32,-39.45 255.37,-35.8 260.87,-44.86 265.32,-39.45"/>
</g>
</g>
</svg>
